Literata-M6Italic.ufo
<glyph name="dollar" format="2">
	<unicode hex="0024"/>
	<advance width="598"/>
	<outline>
		<contour>
			<point x="219" y="-102" type="line"/>
			<point x="243" y="-102" type="line"/>
			<point x="250" y="-14" type="line"/>
			<point x="402" y="-20"/>
			<point x="571" y="74"/>
			<point x="571" y="217" type="curve" smooth="yes"/>
			<point x="571" y="306"/>
			<point x="528" y="371"/>
			<point x="395" y="437" type="curve" smooth="yes"/>
			<point x="350" y="459"/>
			<point x="316" y="478"/>
			<point x="290" y="495" type="curve"/>
			<point x="308" y="725" type="line"/>
			<point x="393" y="733"/>
			<point x="428" y="694"/>
			<point x="390" y="614" type="curve" smooth="yes"/>
			<point x="363" y="557" type="line"/>
			<point x="389" y="533"/>
			<point x="433" y="511"/>
			<point x="478" y="511" type="curve" smooth="yes"/>
			<point x="539" y="511"/>
			<point x="577" y="541"/>
			<point x="577" y="597" type="curve" smooth="yes"/>
			<point x="577" y="691"/>
			<point x="464" y="753"/>
			<point x="309" y="744" type="curve"/>
			<point x="316" y="831" type="line"/>
			<point x="292" y="831" type="line"/>
			<point x="285" y="742" type="line"/>
			<point x="167" y="728"/>
			<point x="49" y="665"/>
			<point x="49" y="521" type="curve" smooth="yes"/>
			<point x="49" y="425"/>
			<point x="89" y="352"/>
			<point x="248" y="275" type="curve"/>
			<point x="228" y="9" type="line"/>
			<point x="177" y="20"/>
			<point x="173" y="58"/>
			<point x="204" y="130" type="curve" smooth="yes"/>
			<point x="223" y="174" type="line"/>
			<point x="198" y="206"/>
			<point x="157" y="228"/>
			<point x="115" y="228" type="curve" smooth="yes"/>
			<point x="50" y="228"/>
			<point x="16" y="184"/>
			<point x="16" y="138" type="curve" smooth="yes"/>
			<point x="16" y="37"/>
			<point x="110" y="-4"/>
			<point x="226" y="-13" type="curve"/>
		</contour>
		<contour>
			<point x="251" y="6" type="curve"/>
			<point x="272" y="264" type="line"/>
			<point x="381" y="214"/>
			<point x="411" y="183"/>
			<point x="411" y="118" type="curve" smooth="yes"/>
			<point x="411" y="55"/>
			<point x="339" y="-3"/>
		</contour>
		<contour>
			<point x="267" y="511" type="line"/>
			<point x="221" y="545"/>
			<point x="209" y="575"/>
			<point x="209" y="619" type="curve" smooth="yes"/>
			<point x="209" y="671"/>
			<point x="243" y="704"/>
			<point x="283" y="719" type="curve"/>
		</contour>
	</outline>
</glyph>
<glyph name="percent" format="2">
	<unicode hex="0025"/>
	<advance width="852"/>
	<outline>
		<contour>
			<point x="627" y="597" type="line"/>
			<point x="214" y="-9" type="line"/>
			<point x="243" y="-9" type="line"/>
			<point x="656" y="597" type="line"/>
		</contour>
		<contour>
			<point x="66" y="424" type="curve" smooth="yes"/>
			<point x="66" y="340"/>
			<point x="131" y="272"/>
			<point x="220" y="272" type="curve" smooth="yes"/>
			<point x="298" y="272"/>
			<point x="379" y="340"/>
			<point x="379" y="449" type="curve" smooth="yes"/>
			<point x="379" y="530"/>
			<point x="313" y="595"/>
			<point x="230" y="595" type="curve" smooth="yes"/>
			<point x="138" y="595"/>
			<point x="66" y="533"/>
		</contour>
		<contour>
			<point x="201" y="438" type="curve" smooth="yes"/>
			<point x="201" y="572"/>
			<point x="211" y="588"/>
			<point x="225" y="588" type="curve" smooth="yes"/>
			<point x="240" y="588"/>
			<point x="243" y="561"/>
			<point x="243" y="438" type="curve" smooth="yes"/>
			<point x="243" y="301"/>
			<point x="233" y="279"/>
			<point x="220" y="279" type="curve" smooth="yes"/>
			<point x="204" y="279"/>
			<point x="201" y="310"/>
		</contour>
		<contour>
			<point x="491" y="143" type="curve" smooth="yes"/>
			<point x="491" y="59"/>
			<point x="556" y="-9"/>
			<point x="645" y="-9" type="curve" smooth="yes"/>
			<point x="723" y="-9"/>
			<point x="804" y="59"/>
			<point x="804" y="168" type="curve" smooth="yes"/>
			<point x="804" y="249"/>
			<point x="738" y="314"/>
			<point x="655" y="314" type="curve" smooth="yes"/>
			<point x="563" y="314"/>
			<point x="491" y="252"/>
		</contour>
		<contour>
			<point x="626" y="157" type="curve" smooth="yes"/>
			<point x="626" y="291"/>
			<point x="636" y="307"/>
			<point x="650" y="307" type="curve" smooth="yes"/>
			<point x="665" y="307"/>
			<point x="668" y="280"/>
			<point x="668" y="157" type="curve" smooth="yes"/>
			<point x="668" y="20"/>
			<point x="658" y="-2"/>
			<point x="645" y="-2" type="curve" smooth="yes"/>
			<point x="629" y="-2"/>
			<point x="626" y="29"/>
		</contour>
	</outline>
</glyph>
<glyph name="ampersand" format="2">
	<unicode hex="0026"/>
	<advance width="848"/>
	<outline>
		<contour>
			<point x="387" y="-14" type="curve" smooth="yes"/>
			<point x="551" y="-14"/>
			<point x="711" y="47"/>
			<point x="711" y="188" type="curve" smooth="yes"/>
			<point x="711" y="251"/>
			<point x="676" y="277"/>
			<point x="628" y="306" type="curve" smooth="yes"/>
			<point x="577" y="337" type="line"/>
			<point x="623" y="319"/>
			<point x="674" y="303"/>
			<point x="719" y="303" type="curve" smooth="yes"/>
			<point x="789" y="303"/>
			<point x="833" y="334"/>
			<point x="833" y="397" type="curve" smooth="yes"/>
			<point x="833" y="458"/>
			<point x="791" y="485"/>
			<point x="740" y="485" type="curve" smooth="yes"/>
			<point x="705" y="485"/>
			<point x="681" y="473"/>
			<point x="658" y="454" type="curve"/>
			<point x="674" y="417" type="line" smooth="yes"/>
			<point x="700" y="357"/>
			<point x="694" y="322"/>
			<point x="611" y="344" type="curve" smooth="yes"/>
			<point x="554" y="359" type="line"/>
			<point x="547" y="345" type="line"/>
			<point x="571" y="317"/>
			<point x="582" y="280"/>
			<point x="582" y="225" type="curve" smooth="yes"/>
			<point x="582" y="87"/>
			<point x="533" y="2"/>
			<point x="404" y="2" type="curve" smooth="yes"/>
			<point x="302" y="2"/>
			<point x="284" y="78"/>
			<point x="284" y="185" type="curve" smooth="yes"/>
			<point x="284" y="280"/>
			<point x="316" y="344"/>
			<point x="448" y="365" type="curve"/>
			<point x="447" y="383" type="line"/>
			<point x="427" y="380"/>
			<point x="414" y="379"/>
			<point x="393" y="379" type="curve" smooth="yes"/>
			<point x="329" y="379"/>
			<point x="302" y="429"/>
			<point x="302" y="516" type="curve" smooth="yes"/>
			<point x="302" y="618"/>
			<point x="338" y="699"/>
			<point x="434" y="699" type="curve" smooth="yes"/>
			<point x="510" y="699"/>
			<point x="544" y="658"/>
			<point x="500" y="584" type="curve" smooth="yes"/>
			<point x="467" y="529" type="line"/>
			<point x="491" y="508"/>
			<point x="520" y="491"/>
			<point x="559" y="491" type="curve" smooth="yes"/>
			<point x="620" y="491"/>
			<point x="657" y="525"/>
			<point x="657" y="588" type="curve" smooth="yes"/>
			<point x="657" y="666"/>
			<point x="561" y="715"/>
			<point x="440" y="715" type="curve" smooth="yes"/>
			<point x="273" y="715"/>
			<point x="85" y="638"/>
			<point x="85" y="494" type="curve" smooth="yes"/>
			<point x="85" y="392"/>
			<point x="184" y="362"/>
			<point x="335" y="362" type="curve"/>
			<point x="335" y="358" type="line"/>
			<point x="181" y="336"/>
			<point x="66" y="287"/>
			<point x="66" y="163" type="curve" smooth="yes"/>
			<point x="66" y="43"/>
			<point x="162" y="-14"/>
		</contour>
	</outline>
</glyph>
<glyph name="parenleft" format="2">
	<unicode hex="0028"/>
	<advance width="459"/>
	<outline>
		<contour>
			<point x="96" y="272" type="curve" smooth="yes"/>
			<point x="96" y="86"/>
			<point x="197" y="-48"/>
			<point x="367" y="-212" type="curve"/>
			<point x="376" y="-207" type="line"/>
			<point x="307" y="-58"/>
			<point x="291" y="93"/>
			<point x="291" y="288" type="curve" smooth="yes"/>
			<point x="291" y="489"/>
			<point x="334" y="681"/>
			<point x="426" y="806" type="curve"/>
			<point x="419" y="813" type="line"/>
			<point x="224" y="628"/>
			<point x="96" y="457"/>
		</contour>
	</outline>
</glyph>
<glyph name="asterisk" format="2">
	<unicode hex="002A"/>
	<advance width="504"/>
	<outline>
		<contour>
			<point x="266" y="606" type="line"/>
			<point x="157" y="733" type="line"/>
			<point x="112" y="727"/>
			<point x="77" y="699"/>
			<point x="77" y="678" type="curve" smooth="yes"/>
			<point x="77" y="660"/>
			<point x="84" y="644"/>
			<point x="116" y="636" type="curve" smooth="yes"/>
			<point x="263" y="601" type="line"/>
			<point x="75" y="572" type="line"/>
			<point x="71" y="562"/>
			<point x="65" y="528"/>
			<point x="65" y="518" type="curve" smooth="yes"/>
			<point x="65" y="468"/>
			<point x="126" y="467"/>
			<point x="148" y="488" type="curve" smooth="yes"/>
			<point x="266" y="597" type="line"/>
			<point x="194" y="427" type="line"/>
			<point x="207" y="405"/>
			<point x="238" y="392"/>
			<point x="264" y="391" type="curve" smooth="yes"/>
			<point x="292" y="388"/>
			<point x="312" y="415"/>
			<point x="306" y="443" type="curve" smooth="yes"/>
			<point x="272" y="597" type="line"/>
			<point x="383" y="454" type="line"/>
			<point x="421" y="458"/>
			<point x="461" y="476"/>
			<point x="461" y="506" type="curve" smooth="yes"/>
			<point x="461" y="529"/>
			<point x="450" y="542"/>
			<point x="427" y="550" type="curve" smooth="yes"/>
			<point x="275" y="601" type="line"/>
			<point x="462" y="624" type="line"/>
			<point x="466" y="637"/>
			<point x="468" y="668"/>
			<point x="468" y="679" type="curve" smooth="yes"/>
			<point x="468" y="723"/>
			<point x="432" y="736"/>
			<point x="399" y="709" type="curve" smooth="yes"/>
			<point x="272" y="605" type="line"/>
			<point x="346" y="784" type="line"/>
			<point x="335" y="795"/>
			<point x="296" y="809"/>
			<point x="277" y="809" type="curve" smooth="yes"/>
			<point x="240" y="809"/>
			<point x="224" y="784"/>
			<point x="233" y="746" type="curve" smooth="yes"/>
		</contour>
	</outline>
</glyph>
<glyph name="plus" format="2">
	<unicode hex="002B"/>
	<advance width="582"/>
	<outline>
		<contour>
			<point x="275" y="98" type="line"/>
			<point x="296" y="98" type="line"/>
			<point x="303" y="296" type="line"/>
			<point x="485" y="296" type="line"/>
			<point x="485" y="316" type="line"/>
			<point x="304" y="316" type="line"/>
			<point x="311" y="514" type="line"/>
			<point x="290" y="514" type="line"/>
			<point x="283" y="316" type="line"/>
			<point x="106" y="316" type="line"/>
			<point x="106" y="296" type="line"/>
			<point x="282" y="296" type="line"/>
		</contour>
	</outline>
</glyph>
<glyph name="comma" format="2">
	<unicode hex="002C"/>
	<advance width="462"/>
	<outline>
		<contour>
			<point x="130" y="-233" type="line"/>
			<point x="227" y="-173"/>
			<point x="357" y="-53"/>
			<point x="357" y="82" type="curve" smooth="yes"/>
			<point x="357" y="162"/>
			<point x="309" y="223"/>
			<point x="222" y="223" type="curve" smooth="yes"/>
			<point x="115" y="223"/>
			<point x="60" y="124"/>
			<point x="100" y="24" type="curve"/>
			<point x="164" y="7" type="line" smooth="yes"/>
			<point x="210" y="-5"/>
			<point x="227" y="-28"/>
			<point x="227" y="-68" type="curve" smooth="yes"/>
			<point x="227" y="-112"/>
			<point x="208" y="-161"/>
			<point x="120" y="-219" type="curve"/>
		</contour>
	</outline>
</glyph>
<glyph name="one" format="2">
	<unicode hex="0031"/>
	<advance width="501"/>
	<outline>
		<contour>
			<point x="172" y="669" type="line"/>
			<point x="148" y="35" type="line"/>
			<point x="21" y="17" type="line"/>
			<point x="20" y="0" type="line"/>
			<point x="481" y="0" type="line"/>
			<point x="482" y="17" type="line"/>
			<point x="372" y="36" type="line"/>
			<point x="394" y="740" type="line"/>
			<point x="375" y="753" type="line"/>
			<point x="39" y="698" type="line"/>
			<point x="33" y="669" type="line"/>
		</contour>
	</outline>
</glyph>
<glyph name="two" format="2">
	<unicode hex="0032"/>
	<advance width="603"/>
	<outline>
		<contour>
			<point x="25" y="555" type="curve" smooth="yes"/>
			<point x="25" y="498"/>
			<point x="70" y="460"/>
			<point x="128" y="460" type="curve" smooth="yes"/>
			<point x="180" y="460"/>
			<point x="213" y="482"/>
			<point x="241" y="526" type="curve"/>
			<point x="203" y="563" type="line" smooth="yes"/>
			<point x="145" y="619"/>
			<point x="164" y="707"/>
			<point x="246" y="707" type="curve" smooth="yes"/>
			<point x="321" y="707"/>
			<point x="349" y="647"/>
			<point x="349" y="544" type="curve" smooth="yes"/>
			<point x="349" y="383"/>
			<point x="282" y="293"/>
			<point x="48" y="78" type="curve"/>
			<point x="62" y="0" type="line"/>
			<point x="534" y="0" type="line"/>
			<point x="566" y="285" type="line"/>
			<point x="543" y="285" type="line"/>
			<point x="520" y="207"/>
			<point x="476" y="160"/>
			<point x="378" y="160" type="curve" smooth="yes"/>
			<point x="202" y="160" type="line"/>
			<point x="202" y="172" type="line"/>
			<point x="445" y="351"/>
			<point x="558" y="421"/>
			<point x="558" y="550" type="curve" smooth="yes"/>
			<point x="558" y="676"/>
			<point x="462" y="744"/>
			<point x="306" y="744" type="curve" smooth="yes"/>
			<point x="147" y="744"/>
			<point x="25" y="673"/>
		</contour>
	</outline>
</glyph>
<glyph name="three" format="2">
	<unicode hex="0033"/>
	<advance width="607"/>
	<outline>
		<contour>
			<point x="548" y="583" type="curve" smooth="yes"/>
			<point x="548" y="677"/>
			<point x="449" y="745"/>
			<point x="297" y="745" type="curve" smooth="yes"/>
			<point x="169" y="745"/>
			<point x="42" y="675"/>
			<point x="42" y="571" type="curve" smooth="yes"/>
			<point x="42" y="517"/>
			<point x="81" y="474"/>
			<point x="151" y="474" type="curve" smooth="yes"/>
			<point x="188" y="474"/>
			<point x="231" y="497"/>
			<point x="259" y="546" type="curve"/>
			<point x="210" y="590" type="line" smooth="yes"/>
			<point x="158" y="636"/>
			<point x="164" y="712"/>
			<point x="243" y="712" type="curve" smooth="yes"/>
			<point x="307" y="712"/>
			<point x="357" y="669"/>
			<point x="357" y="571" type="curve" smooth="yes"/>
			<point x="357" y="477"/>
			<point x="307" y="411"/>
			<point x="187" y="387" type="curve"/>
			<point x="193" y="347" type="line"/>
			<point x="222" y="351"/>
			<point x="237" y="353"/>
			<point x="259" y="353" type="curve" smooth="yes"/>
			<point x="318" y="353"/>
			<point x="357" y="323"/>
			<point x="357" y="224" type="curve" smooth="yes"/>
			<point x="357" y="118"/>
			<point x="321" y="16"/>
			<point x="238" y="16" type="curve" smooth="yes"/>
			<point x="169" y="16"/>
			<point x="183" y="78"/>
			<point x="213" y="126" type="curve" smooth="yes"/>
			<point x="243" y="174" type="line"/>
			<point x="220" y="207"/>
			<point x="170" y="231"/>
			<point x="133" y="231" type="curve" smooth="yes"/>
			<point x="59" y="231"/>
			<point x="20" y="185"/>
			<point x="20" y="118" type="curve" smooth="yes"/>
			<point x="20" y="24"/>
			<point x="118" y="-14"/>
			<point x="236" y="-14" type="curve" smooth="yes"/>
			<point x="436" y="-14"/>
			<point x="571" y="100"/>
			<point x="571" y="243" type="curve" smooth="yes"/>
			<point x="571" y="315"/>
			<point x="518" y="398"/>
			<point x="348" y="398" type="curve"/>
			<point x="348" y="407" type="line"/>
			<point x="449" y="432"/>
			<point x="548" y="486"/>
		</contour>
	</outline>
</glyph>
<glyph name="eight" format="2">
	<unicode hex="0038"/>
	<advance width="635"/>
	<outline>
		<contour>
			<point x="22" y="167" type="curve" smooth="yes"/>
			<point x="22" y="59"/>
			<point x="127" y="-14"/>
			<point x="294" y="-14" type="curve" smooth="yes"/>
			<point x="461" y="-14"/>
			<point x="604" y="74"/>
			<point x="604" y="245" type="curve" smooth="yes"/>
			<point x="604" y="324"/>
			<point x="553" y="394"/>
			<point x="427" y="451" type="curve"/>
			<point x="531" y="480"/>
			<point x="601" y="511"/>
			<point x="601" y="600" type="curve" smooth="yes"/>
			<point x="601" y="686"/>
			<point x="515" y="744"/>
			<point x="364" y="744" type="curve" smooth="yes"/>
			<point x="204" y="744"/>
			<point x="59" y="661"/>
			<point x="59" y="532" type="curve" smooth="yes"/>
			<point x="59" y="445"/>
			<point x="112" y="383"/>
			<point x="206" y="343" type="curve"/>
			<point x="83" y="295"/>
			<point x="22" y="260"/>
		</contour>
		<contour>
			<point x="229" y="324" type="curve"/>
			<point x="370" y="250"/>
			<point x="419" y="212"/>
			<point x="419" y="130" type="curve" smooth="yes"/>
			<point x="419" y="68"/>
			<point x="385" y="10"/>
			<point x="318" y="10" type="curve" smooth="yes"/>
			<point x="230" y="10"/>
			<point x="207" y="95"/>
			<point x="207" y="183" type="curve" smooth="yes"/>
			<point x="207" y="249"/>
			<point x="219" y="293"/>
		</contour>
		<contour>
			<point x="237" y="625" type="curve" smooth="yes"/>
			<point x="237" y="678"/>
			<point x="282" y="716"/>
			<point x="347" y="716" type="curve" smooth="yes"/>
			<point x="409" y="716"/>
			<point x="444" y="671"/>
			<point x="444" y="608" type="curve" smooth="yes"/>
			<point x="444" y="545"/>
			<point x="427" y="502"/>
			<point x="406" y="462" type="curve"/>
			<point x="286" y="525"/>
			<point x="237" y="546"/>
		</contour>
	</outline>
</glyph>
<glyph name="nine" format="2">
	<unicode hex="0039"/>
	<advance width="633"/>
	<outline>
		<contour>
			<point x="249" y="-14" type="curve" smooth="yes"/>
			<point x="430" y="-14"/>
			<point x="603" y="149"/>
			<point x="603" y="423" type="curve" smooth="yes"/>
			<point x="603" y="657"/>
			<point x="482" y="743"/>
			<point x="324" y="743" type="curve" smooth="yes"/>
			<point x="168" y="743"/>
			<point x="30" y="642"/>
			<point x="30" y="467" type="curve" smooth="yes"/>
			<point x="30" y="324"/>
			<point x="106" y="263"/>
			<point x="228" y="263" type="curve" smooth="yes"/>
			<point x="291" y="263"/>
			<point x="343" y="293"/>
			<point x="399" y="358" type="curve"/>
			<point x="404" y="355" type="line"/>
			<point x="394" y="191"/>
			<point x="343" y="48"/>
			<point x="217" y="48" type="curve" smooth="yes"/>
			<point x="139" y="48"/>
			<point x="85" y="77"/>
			<point x="42" y="124" type="curve"/>
			<point x="24" y="108" type="line"/>
			<point x="51" y="62"/>
			<point x="117" y="-14"/>
		</contour>
		<contour>
			<point x="300" y="339" type="curve" smooth="yes"/>
			<point x="240" y="339"/>
			<point x="223" y="387"/>
			<point x="223" y="512" type="curve" smooth="yes"/>
			<point x="223" y="682"/>
			<point x="258" y="717"/>
			<point x="308" y="717" type="curve" smooth="yes"/>
			<point x="377" y="717"/>
			<point x="409" y="594"/>
			<point x="398" y="403" type="curve"/>
			<point x="360" y="353"/>
			<point x="327" y="339"/>
		</contour>
	</outline>
</glyph>
<glyph name="greater" format="2">
	<unicode hex="003E"/>
	<advance width="582"/>
	<outline>
		<contour>
			<point x="120" y="45" type="line"/>
			<point x="511" y="273" type="line"/>
			<point x="511" y="295" type="line"/>
			<point x="138" y="524" type="line"/>
			<point x="127" y="508" type="line"/>
			<point x="490" y="284" type="line"/>
			<point x="111" y="62" type="line"/>
		</contour>
	</outline>
</glyph>
<glyph name="question" format="2">
	<unicode hex="003F"/>
	<advance width="546"/>
	<outline>
		<contour>
			<point x="194" y="422" type="curve"/>
			<point x="231" y="237" type="line"/>
			<point x="253" y="237" type="line"/>
			<point x="239" y="310" type="line"/>
			<point x="431" y="350"/>
			<point x="537" y="437"/>
			<point x="537" y="568" type="curve" smooth="yes"/>
			<point x="537" y="690"/>
			<point x="419" y="745"/>
			<point x="263" y="745" type="curve" smooth="yes"/>
			<point x="135" y="745"/>
			<point x="26" y="694"/>
			<point x="26" y="586" type="curve" smooth="yes"/>
			<point x="26" y="531"/>
			<point x="66" y="490"/>
			<point x="124" y="490" type="curve" smooth="yes"/>
			<point x="170" y="490"/>
			<point x="220" y="515"/>
			<point x="240" y="554" type="curve"/>
			<point x="213" y="591" type="line" smooth="yes"/>
			<point x="162" y="660"/>
			<point x="175" y="729"/>
			<point x="240" y="729" type="curve" smooth="yes"/>
			<point x="285" y="729"/>
			<point x="324" y="684"/>
			<point x="324" y="575" type="curve" smooth="yes"/>
			<point x="324" y="490"/>
			<point x="297" y="458"/>
		</contour>
		<contour>
			<point x="141" y="72" type="curve" smooth="yes"/>
			<point x="141" y="21"/>
			<point x="178" y="-22"/>
			<point x="252" y="-22" type="curve" smooth="yes"/>
			<point x="310" y="-22"/>
			<point x="373" y="11"/>
			<point x="373" y="91" type="curve" smooth="yes"/>
			<point x="373" y="145"/>
			<point x="331" y="187"/>
			<point x="264" y="187" type="curve" smooth="yes"/>
			<point x="189" y="187"/>
			<point x="141" y="139"/>
		</contour>
	</outline>
</glyph>
<glyph name="at" format="2">
	<unicode hex="0040"/>
	<advance width="1022"/>
	<outline>
		<contour>
			<point x="459" y="-218" type="curve" smooth="yes"/>
			<point x="593" y="-218"/>
			<point x="686" y="-183"/>
			<point x="756" y="-127" type="curve"/>
			<point x="743" y="-112" type="line"/>
			<point x="680" y="-167"/>
			<point x="577" y="-199"/>
			<point x="469" y="-199" type="curve" smooth="yes"/>
			<point x="262" y="-199"/>
			<point x="112" y="-74"/>
			<point x="112" y="160" type="curve" smooth="yes"/>
			<point x="112" y="410"/>
			<point x="267" y="580"/>
			<point x="534" y="582" type="curve" smooth="yes"/>
			<point x="762" y="584"/>
			<point x="924" y="470"/>
			<point x="924" y="249" type="curve" smooth="yes"/>
			<point x="924" y="86"/>
			<point x="827" y="4"/>
			<point x="771" y="4" type="curve" smooth="yes"/>
			<point x="737" y="4"/>
			<point x="730" y="19"/>
			<point x="732" y="66" type="curve" smooth="yes"/>
			<point x="750" y="416" type="line"/>
			<point x="740" y="422" type="line"/>
			<point x="628" y="386" type="line"/>
			<point x="600" y="409"/>
			<point x="569" y="425"/>
			<point x="512" y="425" type="curve" smooth="yes"/>
			<point x="382" y="425"/>
			<point x="290" y="323"/>
			<point x="290" y="160" type="curve" smooth="yes"/>
			<point x="290" y="29"/>
			<point x="359" y="-21"/>
			<point x="435" y="-21" type="curve" smooth="yes"/>
			<point x="517" y="-21"/>
			<point x="564" y="36"/>
			<point x="592" y="133" type="curve" smooth="yes"/>
			<point x="632" y="271" type="line"/>
			<point x="640" y="269" type="line"/>
			<point x="600" y="92" type="line" smooth="yes"/>
			<point x="581" y="8"/>
			<point x="616" y="-34"/>
			<point x="695" y="-34" type="curve" smooth="yes"/>
			<point x="836" y="-34"/>
			<point x="946" y="68"/>
			<point x="946" y="262" type="curve" smooth="yes"/>
			<point x="946" y="461"/>
			<point x="791" y="601"/>
			<point x="537" y="601" type="curve" smooth="yes"/>
			<point x="242" y="601"/>
			<point x="90" y="404"/>
			<point x="90" y="167" type="curve" smooth="yes"/>
			<point x="90" y="-97"/>
			<point x="257" y="-218"/>
		</contour>
		<contour>
			<point x="507" y="58" type="curve" smooth="yes"/>
			<point x="463" y="58"/>
			<point x="446" y="86"/>
			<point x="446" y="154" type="curve" smooth="yes"/>
			<point x="446" y="331"/>
			<point x="479" y="404"/>
			<point x="544" y="404" type="curve" smooth="yes"/>
			<point x="578" y="404"/>
			<point x="608" y="384"/>
			<point x="637" y="357" type="curve"/>
			<point x="592" y="192" type="line" smooth="yes"/>
			<point x="561" y="77"/>
			<point x="547" y="58"/>
		</contour>
	</outline>
</glyph>
<glyph name="A" format="2">
	<unicode hex="0041"/>
	<advance width="775"/>
	<outline>
		<contour>
			<point x="505" y="749" type="line"/>
			<point x="303" y="717" type="line"/>
			<point x="72" y="27" type="line"/>
			<point x="-2" y="18" type="line"/>
			<point x="-4" y="0" type="line"/>
			<point x="197" y="0" type="line"/>
			<point x="200" y="18" type="line"/>
			<point x="100" y="27" type="line"/>
			<point x="178" y="262" type="line"/>
			<point x="399" y="262" type="line"/>
			<point x="451" y="27" type="line"/>
			<point x="365" y="18" type="line"/>
			<point x="363" y="0" type="line"/>
			<point x="759" y="0" type="line"/>
			<point x="761" y="18" type="line"/>
			<point x="678" y="28" type="line"/>
		</contour>
		<contour>
			<point x="187" y="286" type="line"/>
			<point x="312" y="676" type="line"/>
			<point x="316" y="676" type="line"/>
			<point x="393" y="286" type="line"/>
		</contour>
	</outline>
	<anchor name="bottom" x="350" y="-30"/>
	<anchor name="top" x="403" y="730"/>
</glyph>
<glyph name="B" format="2">
	<unicode hex="0042"/>
	<advance width="709"/>
	<outline>
		<contour>
			<point x="671" y="571" type="curve" smooth="yes"/>
			<point x="671" y="684"/>
			<point x="562" y="730"/>
			<point x="371" y="730" type="curve" smooth="yes"/>
			<point x="51" y="730" type="line"/>
			<point x="47" y="712" type="line"/>
			<point x="121" y="697" type="line"/>
			<point x="93" y="27" type="line"/>
			<point x="12" y="18" type="line"/>
			<point x="10" y="0" type="line"/>
			<point x="352" y="0" type="line" smooth="yes"/>
			<point x="535" y="0"/>
			<point x="696" y="80"/>
			<point x="696" y="224" type="curve" smooth="yes"/>
			<point x="696" y="331"/>
			<point x="614" y="405"/>
			<point x="445" y="394" type="curve"/>
			<point x="445" y="398" type="line"/>
			<point x="576" y="413"/>
			<point x="671" y="465"/>
		</contour>
		<contour>
			<point x="360" y="383" type="curve"/>
			<point x="358" y="365" type="line"/>
			<point x="369" y="368"/>
			<point x="376" y="371"/>
			<point x="395" y="371" type="curve" smooth="yes"/>
			<point x="444" y="371"/>
			<point x="478" y="345"/>
			<point x="478" y="222" type="curve" smooth="yes"/>
			<point x="478" y="67"/>
			<point x="428" y="23"/>
			<point x="343" y="23" type="curve" smooth="yes"/>
			<point x="320" y="23" type="line"/>
			<point x="345" y="707" type="line"/>
			<point x="358" y="707" type="line" smooth="yes"/>
			<point x="421" y="707"/>
			<point x="454" y="665"/>
			<point x="454" y="557" type="curve" smooth="yes"/>
			<point x="454" y="444"/>
			<point x="428" y="395"/>
		</contour>
	</outline>
</glyph>
<glyph name="D" format="2">
	<unicode hex="0044"/>
	<advance width="838"/>
	<outline>
		<contour>
			<point x="10" y="0" type="line"/>
			<point x="336" y="0" type="line" smooth="yes"/>
			<point x="623" y="0"/>
			<point x="803" y="137"/>
			<point x="803" y="407" type="curve" smooth="yes"/>
			<point x="803" y="627"/>
			<point x="652" y="730"/>
			<point x="412" y="730" type="curve" smooth="yes"/>
			<point x="51" y="730" type="line"/>
			<point x="47" y="712" type="line"/>
			<point x="121" y="697" type="line"/>
			<point x="93" y="27" type="line"/>
			<point x="12" y="18" type="line"/>
		</contour>
		<contour>
			<point x="317" y="23" type="line"/>
			<point x="345" y="708" type="line"/>
			<point x="377" y="708" type="line" smooth="yes"/>
			<point x="531" y="708"/>
			<point x="567" y="621"/>
			<point x="567" y="398" type="curve" smooth="yes"/>
			<point x="567" y="143"/>
			<point x="470" y="23"/>
			<point x="330" y="23" type="curve" smooth="yes"/>
		</contour>
	</outline>
	<anchor name="bottom" x="404" y="-30"/>
	<anchor name="top" x="424" y="730"/>
</glyph>
<glyph name="F" format="2">
	<unicode hex="0046"/>
	<advance width="625"/>
	<outline>
		<contour>
			<point x="12" y="18" type="line"/>
			<point x="10" y="0" type="line"/>
			<point x="433" y="0" type="line"/>
			<point x="435" y="18" type="line"/>
			<point x="320" y="27" type="line"/>
			<point x="332" y="341" type="line"/>
			<point x="522" y="341" type="line"/>
			<point x="524" y="365" type="line"/>
			<point x="333" y="365" type="line"/>
			<point x="345" y="707" type="line"/>
			<point x="433" y="707" type="line" smooth="yes"/>
			<point x="502" y="707"/>
			<point x="533" y="687"/>
			<point x="560" y="602" type="curve" smooth="yes"/>
			<point x="582" y="532" type="line"/>
			<point x="604" y="533" type="line"/>
			<point x="583" y="730" type="line"/>
			<point x="51" y="730" type="line"/>
			<point x="47" y="712" type="line"/>
			<point x="121" y="697" type="line"/>
			<point x="93" y="27" type="line"/>
		</contour>
	</outline>
</glyph>
<glyph name="G" format="2">
	<unicode hex="0047"/>
	<advance width="762"/>
	<outline>
		<contour>
			<point x="724" y="319" type="line"/>
			<point x="439" y="319" type="line"/>
			<point x="435" y="301" type="line"/>
			<point x="509" y="286" type="line"/>
			<point x="499" y="11" type="line"/>
			<point x="478" y="7"/>
			<point x="461" y="4"/>
			<point x="441" y="4" type="curve" smooth="yes"/>
			<point x="314" y="4"/>
			<point x="280" y="125"/>
			<point x="281" y="350" type="curve" smooth="yes"/>
			<point x="282" y="609"/>
			<point x="366" y="729"/>
			<point x="461" y="729" type="curve" smooth="yes"/>
			<point x="547" y="729"/>
			<point x="571" y="676"/>
			<point x="535" y="589" type="curve" smooth="yes"/>
			<point x="507" y="522" type="line"/>
			<point x="544" y="491"/>
			<point x="579" y="476"/>
			<point x="628" y="476" type="curve" smooth="yes"/>
			<point x="687" y="476"/>
			<point x="729" y="519"/>
			<point x="729" y="577" type="curve" smooth="yes"/>
			<point x="729" y="677"/>
			<point x="611" y="745"/>
			<point x="456" y="745" type="curve" smooth="yes"/>
			<point x="221" y="745"/>
			<point x="46" y="593"/>
			<point x="45" y="339" type="curve" smooth="yes"/>
			<point x="44" y="116"/>
			<point x="197" y="-14"/>
			<point x="440" y="-14" type="curve" smooth="yes"/>
			<point x="549" y="-14"/>
			<point x="658" y="29"/>
			<point x="714" y="63" type="curve"/>
		</contour>
	</outline>
	<anchor name="bottom" x="416" y="-30"/>
	<anchor name="top" x="447" y="730"/>
</glyph>
<glyph name="H" format="2">
	<unicode hex="0048"/>
	<advance width="848"/>
	<outline>
		<contour>
			<point x="525" y="362" type="line"/>
			<point x="511" y="27" type="line"/>
			<point x="445" y="18" type="line"/>
			<point x="443" y="0" type="line"/>
			<point x="821" y="0" type="line"/>
			<point x="823" y="18" type="line"/>
			<point x="737" y="28" type="line"/>
			<point x="762" y="700" type="line"/>
			<point x="835" y="712" type="line"/>
			<point x="838" y="730" type="line"/>
			<point x="471" y="730" type="line"/>
			<point x="467" y="712" type="line"/>
			<point x="538" y="700" type="line"/>
			<point x="525" y="386" type="line"/>
			<point x="335" y="386" type="line"/>
			<point x="348" y="697" type="line"/>
			<point x="420" y="712" type="line"/>
			<point x="423" y="730" type="line"/>
			<point x="51" y="730" type="line"/>
			<point x="47" y="712" type="line"/>
			<point x="121" y="697" type="line"/>
			<point x="93" y="27" type="line"/>
			<point x="12" y="18" type="line"/>
			<point x="10" y="0" type="line"/>
			<point x="395" y="0" type="line"/>
			<point x="397" y="18" type="line"/>
			<point x="319" y="28" type="line"/>
			<point x="333" y="362" type="line"/>
		</contour>
	</outline>
	<anchor name="bottom" x="415" y="-30"/>
	<anchor name="top" x="449" y="730"/>
</glyph>
<glyph name="I" format="2">
	<unicode hex="0049"/>
	<advance width="431"/>
	<outline>
		<contour>
			<point x="121" y="697" type="line"/>
			<point x="93" y="27" type="line"/>
			<point x="12" y="18" type="line"/>
			<point x="10" y="0" type="line"/>
			<point x="404" y="0" type="line"/>
			<point x="406" y="18" type="line"/>
			<point x="320" y="28" type="line"/>
			<point x="345" y="700" type="line"/>
			<point x="418" y="712" type="line"/>
			<point x="421" y="730" type="line"/>
			<point x="51" y="730" type="line"/>
			<point x="47" y="712" type="line"/>
		</contour>
	</outline>
	<anchor name="bottom" x="201" y="-30"/>
	<anchor name="top" x="234" y="730"/>
</glyph>
<glyph name="J" format="2">
	<unicode hex="004A"/>
	<advance width="430"/>
	<outline>
		<contour>
			<point x="121" y="697" type="line"/>
			<point x="95" y="87" type="line" smooth="yes"/>
			<point x="87" y="-108"/>
			<point x="79" y="-159"/>
			<point x="31" y="-217" type="curve"/>
			<point x="41" y="-229" type="line"/>
			<point x="237" y="-123"/>
			<point x="318" y="-33"/>
			<point x="324" y="117" type="curve" smooth="yes"/>
			<point x="345" y="700" type="line"/>
			<point x="418" y="712" type="line"/>
			<point x="421" y="730" type="line"/>
			<point x="51" y="730" type="line"/>
			<point x="47" y="712" type="line"/>
		</contour>
	</outline>
	<anchor name="top" x="228" y="730"/>
</glyph>
<glyph name="K" format="2">
	<unicode hex="004B"/>
	<advance width="820"/>
	<outline>
		<contour>
			<point x="658" y="-14" type="curve" smooth="yes"/>
			<point x="728" y="-14"/>
			<point x="778" y="12"/>
			<point x="812" y="43" type="curve"/>
			<point x="804" y="54" type="line"/>
			<point x="797" y="48"/>
			<point x="786" y="44"/>
			<point x="777" y="44" type="curve" smooth="yes"/>
			<point x="743" y="44"/>
			<point x="721" y="56"/>
			<point x="659" y="245" type="curve" smooth="yes"/>
			<point x="616" y="377"/>
			<point x="544" y="431"/>
			<point x="401" y="408" type="curve"/>
			<point x="401" y="410" type="line"/>
			<point x="701" y="702" type="line"/>
			<point x="770" y="712" type="line"/>
			<point x="772" y="730" type="line"/>
			<point x="590" y="730" type="line"/>
			<point x="587" y="712" type="line"/>
			<point x="670" y="702" type="line"/>
			<point x="357" y="397" type="line"/>
			<point x="356" y="387" type="line"/>
			<point x="379" y="382"/>
			<point x="401" y="349"/>
			<point x="428" y="247" type="curve" smooth="yes"/>
			<point x="482" y="44"/>
			<point x="534" y="-14"/>
		</contour>
		<contour>
			<point x="10" y="0" type="line"/>
			<point x="404" y="0" type="line"/>
			<point x="406" y="18" type="line"/>
			<point x="320" y="28" type="line"/>
			<point x="345" y="700" type="line"/>
			<point x="418" y="712" type="line"/>
			<point x="421" y="730" type="line"/>
			<point x="51" y="730" type="line"/>
			<point x="47" y="712" type="line"/>
			<point x="121" y="697" type="line"/>
			<point x="93" y="27" type="line"/>
			<point x="12" y="18" type="line"/>
		</contour>
	</outline>
	<anchor name="bottom" x="401" y="-30"/>
	<anchor name="top" x="449" y="730"/>
</glyph>
<glyph name="M" format="2">
	<unicode hex="004D"/>
	<advance width="1034"/>
	<outline>
		<contour>
			<point x="682" y="628" type="line"/>
			<point x="697" y="27" type="line"/>
			<point x="601" y="18" type="line"/>
			<point x="599" y="0" type="line"/>
			<point x="1007" y="0" type="line"/>
			<point x="1009" y="18" type="line"/>
			<point x="923" y="28" type="line"/>
			<point x="907" y="700" type="line"/>
			<point x="980" y="712" type="line"/>
			<point x="983" y="730" type="line"/>
			<point x="682" y="730" type="line"/>
			<point x="483" y="56" type="line"/>
			<point x="338" y="730" type="line"/>
			<point x="48" y="730" type="line"/>
			<point x="44" y="712" type="line"/>
			<point x="118" y="697" type="line"/>
			<point x="90" y="27" type="line"/>
			<point x="9" y="18" type="line"/>
			<point x="7" y="0" type="line"/>
			<point x="212" y="0" type="line"/>
			<point x="216" y="18" type="line"/>
			<point x="118" y="27" type="line"/>
			<point x="141" y="625" type="line"/>
			<point x="300" y="-19" type="line"/>
			<point x="497" y="8" type="line"/>
		</contour>
	</outline>
	<anchor name="bottom" x="442" y="-30"/>
</glyph>
<glyph name="N" format="2">
	<unicode hex="004E"/>
	<advance width="705"/>
	<outline>
		<contour>
			<point x="587" y="211" type="line"/>
			<point x="291" y="730" type="line"/>
			<point x="51" y="730" type="line"/>
			<point x="47" y="712" type="line"/>
			<point x="121" y="697" type="line"/>
			<point x="93" y="27" type="line"/>
			<point x="12" y="18" type="line"/>
			<point x="10" y="0" type="line"/>
			<point x="225" y="0" type="line"/>
			<point x="227" y="18" type="line"/>
			<point x="121" y="28" type="line"/>
			<point x="143" y="561" type="line"/>
			<point x="476" y="-16" type="line"/>
			<point x="608" y="0" type="line"/>
			<point x="634" y="700" type="line"/>
			<point x="707" y="712" type="line"/>
			<point x="710" y="730" type="line"/>
			<point x="539" y="730" type="line"/>
			<point x="535" y="712" type="line"/>
			<point x="606" y="700" type="line"/>
		</contour>
	</outline>
	<anchor name="bottom" x="337" y="-30"/>
	<anchor name="top" x="393" y="730"/>
</glyph>
<glyph name="P" format="2">
	<unicode hex="0050"/>
	<advance width="721"/>
	<outline>
		<contour>
			<point x="360" y="324" type="curve"/>
			<point x="357" y="305" type="line"/>
			<point x="367" y="303"/>
			<point x="385" y="301"/>
			<point x="401" y="301" type="curve" smooth="yes"/>
			<point x="550" y="301"/>
			<point x="712" y="353"/>
			<point x="712" y="524" type="curve" smooth="yes"/>
			<point x="712" y="692"/>
			<point x="575" y="730"/>
			<point x="415" y="730" type="curve" smooth="yes"/>
			<point x="51" y="730" type="line"/>
			<point x="47" y="712" type="line"/>
			<point x="121" y="697" type="line"/>
			<point x="93" y="27" type="line"/>
			<point x="12" y="18" type="line"/>
			<point x="10" y="0" type="line"/>
			<point x="434" y="0" type="line"/>
			<point x="435" y="18" type="line"/>
			<point x="320" y="28" type="line"/>
			<point x="345" y="707" type="line"/>
			<point x="380" y="707" type="line" smooth="yes"/>
			<point x="465" y="707"/>
			<point x="494" y="633"/>
			<point x="494" y="513" type="curve" smooth="yes"/>
			<point x="494" y="379"/>
			<point x="450" y="322"/>
			<point x="396" y="322" type="curve" smooth="yes"/>
			<point x="382" y="322"/>
			<point x="371" y="323"/>
		</contour>
	</outline>
</glyph>
<glyph name="Q" format="2">
	<unicode hex="0051"/>
	<advance width="796"/>
	<outline>
		<contour>
			<point x="45" y="339" type="curve" smooth="yes"/>
			<point x="45" y="177"/>
			<point x="107" y="56"/>
			<point x="276" y="3" type="curve"/>
			<point x="276" y="1" type="line"/>
			<point x="256" y="-6"/>
			<point x="241" y="-13"/>
			<point x="225" y="-24" type="curve"/>
			<point x="232" y="-36" type="line"/>
			<point x="259" y="-18"/>
			<point x="293" y="-5"/>
			<point x="339" y="-5" type="curve" smooth="yes"/>
			<point x="389" y="-5"/>
			<point x="429" y="-22"/>
			<point x="471" y="-67" type="curve" smooth="yes"/>
			<point x="563" y="-166"/>
			<point x="621" y="-209"/>
			<point x="689" y="-209" type="curve" smooth="yes"/>
			<point x="764" y="-209"/>
			<point x="799" y="-158"/>
			<point x="799" y="-97" type="curve" smooth="yes"/>
			<point x="799" y="-26"/>
			<point x="741" y="8"/>
			<point x="652" y="5" type="curve"/>
			<point x="640" y="-37" type="line" smooth="yes"/>
			<point x="621" y="-103"/>
			<point x="571" y="-130"/>
			<point x="481" y="-48" type="curve" smooth="yes"/>
			<point x="448" y="-18"/>
			<point x="423" y="-3"/>
			<point x="391" y="3" type="curve"/>
			<point x="391" y="5" type="line"/>
			<point x="592" y="1"/>
			<point x="761" y="173"/>
			<point x="761" y="407" type="curve" smooth="yes"/>
			<point x="761" y="624"/>
			<point x="642" y="745"/>
			<point x="428" y="745" type="curve" smooth="yes"/>
			<point x="203" y="745"/>
			<point x="45" y="594"/>
		</contour>
		<contour>
			<point x="280" y="372" type="curve" smooth="yes"/>
			<point x="285" y="610"/>
			<point x="305" y="729"/>
			<point x="409" y="729" type="curve" smooth="yes"/>
			<point x="504" y="729"/>
			<point x="532" y="603"/>
			<point x="525" y="378" type="curve" smooth="yes"/>
			<point x="518" y="142"/>
			<point x="499" y="19"/>
			<point x="391" y="19" type="curve" smooth="yes"/>
			<point x="309" y="19"/>
			<point x="276" y="159"/>
		</contour>
	</outline>
</glyph>
<glyph name="T" format="2">
	<unicode hex="0054"/>
	<advance width="705"/>
	<outline>
		<contour>
			<point x="117" y="18" type="line"/>
			<point x="115" y="0" type="line"/>
			<point x="570" y="0" type="line"/>
			<point x="572" y="18" type="line"/>
			<point x="457" y="30" type="line"/>
			<point x="483" y="707" type="line"/>
			<point x="532" y="707" type="line" smooth="yes"/>
			<point x="617" y="707"/>
			<point x="651" y="684"/>
			<point x="673" y="580" type="curve" smooth="yes"/>
			<point x="687" y="513" type="line"/>
			<point x="708" y="516" type="line"/>
			<point x="694" y="730" type="line"/>
			<point x="51" y="730" type="line"/>
			<point x="25" y="524" type="line"/>
			<point x="46" y="518" type="line"/>
			<point x="72" y="611" type="line" smooth="yes"/>
			<point x="94" y="691"/>
			<point x="144" y="707"/>
			<point x="210" y="707" type="curve" smooth="yes"/>
			<point x="260" y="707" type="line"/>
			<point x="230" y="28" type="line"/>
		</contour>
	</outline>
	<anchor name="bottom" x="339" y="-30"/>
	<anchor name="top" x="381" y="730"/>
</glyph>
<glyph name="U" format="2">
	<unicode hex="0055"/>
	<advance width="822"/>
	<outline>
		<contour>
			<point x="703" y="28" type="line"/>
			<point x="746" y="700" type="line"/>
			<point x="819" y="712" type="line"/>
			<point x="822" y="730" type="line"/>
			<point x="458" y="730" type="line"/>
			<point x="454" y="712" type="line"/>
			<point x="529" y="700" type="line"/>
			<point x="514" y="558" type="line" smooth="yes"/>
			<point x="474" y="182"/>
			<point x="415" y="61"/>
			<point x="342" y="61" type="curve" smooth="yes"/>
			<point x="301" y="61"/>
			<point x="289" y="84"/>
			<point x="295" y="202" type="curve" smooth="yes"/>
			<point x="322" y="697" type="line"/>
			<point x="394" y="712" type="line"/>
			<point x="397" y="730" type="line"/>
			<point x="35" y="730" type="line"/>
			<point x="31" y="712" type="line"/>
			<point x="105" y="697" type="line"/>
			<point x="82" y="232" type="line" smooth="yes"/>
			<point x="74" y="70"/>
			<point x="115" y="-14"/>
			<point x="243" y="-14" type="curve" smooth="yes"/>
			<point x="431" y="-14"/>
			<point x="471" y="157"/>
			<point x="514" y="403" type="curve"/>
			<point x="519" y="403" type="line"/>
			<point x="490" y="12" type="line"/>
			<point x="497" y="0" type="line"/>
			<point x="787" y="0" type="line"/>
			<point x="789" y="18" type="line"/>
		</contour>
	</outline>
	<anchor name="bottom" x="392" y="-30"/>
	<anchor name="top" x="427" y="730"/>
</glyph>
<glyph name="V" format="2">
	<unicode hex="0056"/>
	<advance width="807"/>
	<outline>
		<contour>
			<point x="484" y="54" type="line"/>
			<point x="331" y="703" type="line"/>
			<point x="427" y="712" type="line"/>
			<point x="429" y="730" type="line"/>
			<point x="23" y="730" type="line"/>
			<point x="21" y="712" type="line"/>
			<point x="104" y="702" type="line"/>
			<point x="295" y="-19" type="line"/>
			<point x="497" y="13" type="line"/>
			<point x="740" y="703" type="line"/>
			<point x="816" y="712" type="line"/>
			<point x="818" y="730" type="line"/>
			<point x="615" y="730" type="line"/>
			<point x="612" y="712" type="line"/>
			<point x="712" y="703" type="line"/>
			<point x="488" y="54" type="line"/>
		</contour>
	</outline>
	<anchor name="top" x="495" y="730"/>
</glyph>
<glyph name="Z" format="2">
	<unicode hex="005A"/>
	<advance width="648"/>
	<outline>
		<contour>
			<point x="626" y="694" type="line"/>
			<point x="623" y="730" type="line"/>
			<point x="70" y="730" type="line"/>
			<point x="44" y="526" type="line"/>
			<point x="65" y="523" type="line"/>
			<point x="91" y="606" type="line" smooth="yes"/>
			<point x="117" y="690"/>
			<point x="147" y="707"/>
			<point x="225" y="707" type="curve" smooth="yes"/>
			<point x="397" y="707" type="line"/>
			<point x="29" y="39" type="line"/>
			<point x="30" y="0" type="line"/>
			<point x="602" y="0" type="line"/>
			<point x="625" y="186" type="line"/>
			<point x="604" y="186" type="line"/>
			<point x="589" y="126" type="line" smooth="yes"/>
			<point x="567" y="39"/>
			<point x="535" y="23"/>
			<point x="440" y="23" type="curve" smooth="yes"/>
			<point x="261" y="23" type="line"/>
		</contour>
	</outline>
	<anchor name="bottom" x="310" y="-30"/>
	<anchor name="top" x="331" y="730"/>
</glyph>
<glyph name="bracketleft" format="2">
	<unicode hex="005B"/>
	<advance width="445"/>
	<outline>
		<contour>
			<point x="289" y="-182" type="line"/>
			<point x="326" y="784" type="line"/>
			<point x="425" y="794" type="line"/>
			<point x="426" y="812" type="line"/>
			<point x="140" y="812" type="line"/>
			<point x="95" y="-212" type="line"/>
			<point x="389" y="-212" type="line"/>
			<point x="392" y="-193" type="line"/>
		</contour>
	</outline>
</glyph>
<glyph name="backslash" format="2">
	<unicode hex="005C"/>
	<advance width="500"/>
	<outline>
		<contour>
			<point x="456" y="-110" type="line"/>
			<point x="487" y="-110" type="line"/>
			<point x="50" y="802" type="line"/>
			<point x="19" y="802" type="line"/>
		</contour>
	</outline>
</glyph>
<glyph name="bracketright" format="2">
	<unicode hex="005D"/>
	<advance width="445"/>
	<outline>
		<contour>
			<point x="162" y="775" type="line"/>
			<point x="124" y="-190" type="line"/>
			<point x="14" y="-202" type="line"/>
			<point x="11" y="-220" type="line"/>
			<point x="310" y="-220" type="line"/>
			<point x="356" y="805" type="line"/>
			<point x="79" y="805" type="line"/>
			<point x="76" y="787" type="line"/>
		</contour>
	</outline>
</glyph>
<glyph name="underscore" format="2">
	<unicode hex="005F"/>
	<advance width="535"/>
	<outline>
		<contour>
			<point x="9" y="-170" type="line"/>
			<point x="507" y="-170" type="line"/>
			<point x="511" y="-25" type="line"/>
			<point x="14" y="-25" type="line"/>
		</contour>
	</outline>
</glyph>
<glyph name="grave" format="2">
	<unicode hex="0060"/>
	<advance width="490"/>
	<outline>
		<contour>
			<point x="348" y="597" type="line"/>
			<point x="208" y="823" type="line"/>
			<point x="133" y="813"/>
			<point x="105" y="777"/>
			<point x="105" y="741" type="curve" smooth="yes"/>
			<point x="105" y="712"/>
			<point x="118" y="692"/>
			<point x="152" y="676" type="curve" smooth="yes"/>
			<point x="340" y="588" type="line"/>
		</contour>
	</outline>
	<anchor name="_top" x="268" y="550"/>
</glyph>
<glyph name="a" format="2">
	<unicode hex="0061"/>
	<advance width="656"/>
	<outline>
		<contour>
			<point x="572" y="94" type="curve" smooth="yes"/>
			<point x="585" y="534" type="line"/>
			<point x="571" y="545" type="line"/>
			<point x="428" y="510" type="line"/>
			<point x="395" y="522"/>
			<point x="358" y="537"/>
			<point x="310" y="537" type="curve" smooth="yes"/>
			<point x="126" y="537"/>
			<point x="35" y="381"/>
			<point x="35" y="206" type="curve" smooth="yes"/>
			<point x="35" y="80"/>
			<point x="87" y="-14"/>
			<point x="209" y="-14" type="curve" smooth="yes"/>
			<point x="341" y="-14"/>
			<point x="353" y="91"/>
			<point x="381" y="188" type="curve" smooth="yes"/>
			<point x="432" y="365" type="line"/>
			<point x="442" y="363" type="line"/>
			<point x="388" y="119" type="line" smooth="yes"/>
			<point x="368" y="29"/>
			<point x="422" y="-14"/>
			<point x="496" y="-14" type="curve" smooth="yes"/>
			<point x="585" y="-14"/>
			<point x="660" y="44"/>
			<point x="679" y="65" type="curve"/>
			<point x="667" y="79" type="line"/>
			<point x="652" y="67"/>
			<point x="625" y="46"/>
			<point x="600" y="46" type="curve" smooth="yes"/>
			<point x="574" y="46"/>
			<point x="571" y="65"/>
		</contour>
		<contour>
			<point x="293" y="94" type="curve" smooth="yes"/>
			<point x="262" y="94"/>
			<point x="253" y="125"/>
			<point x="257" y="199" type="curve" smooth="yes"/>
			<point x="267" y="404"/>
			<point x="290" y="511"/>
			<point x="353" y="511" type="curve" smooth="yes"/>
			<point x="375" y="511"/>
			<point x="407" y="499"/>
			<point x="439" y="481" type="curve"/>
			<point x="373" y="242" type="line" smooth="yes"/>
			<point x="340" y="122"/>
			<point x="329" y="94"/>
		</contour>
	</outline>
	<anchor name="bottom" x="309" y="-30"/>
	<anchor name="top" x="348" y="550"/>
</glyph>
<glyph name="b" format="2">
	<unicode hex="0062"/>
	<advance width="692"/>
	<outline>
		<contour>
			<point x="325" y="-14" type="curve" smooth="yes"/>
			<point x="562" y="-14"/>
			<point x="662" y="129"/>
			<point x="662" y="316" type="curve" smooth="yes"/>
			<point x="662" y="493"/>
			<point x="575" y="537"/>
			<point x="489" y="537" type="curve" smooth="yes"/>
			<point x="387" y="537"/>
			<point x="345" y="489"/>
			<point x="303" y="339" type="curve" smooth="yes"/>
			<point x="252" y="158" type="line"/>
			<point x="242" y="160" type="line"/>
			<point x="286" y="445" type="line"/>
			<point x="297" y="759" type="line"/>
			<point x="287" y="767" type="line"/>
			<point x="5" y="767" type="line"/>
			<point x="2" y="749" type="line"/>
			<point x="100" y="729" type="line"/>
			<point x="68" y="45" type="line"/>
			<point x="139" y="8"/>
			<point x="263" y="-14"/>
		</contour>
		<contour>
			<point x="394" y="429" type="curve" smooth="yes"/>
			<point x="426" y="429"/>
			<point x="434" y="390"/>
			<point x="434" y="326" type="curve" smooth="yes"/>
			<point x="434" y="178"/>
			<point x="397" y="10"/>
			<point x="325" y="10" type="curve" smooth="yes"/>
			<point x="296" y="10"/>
			<point x="271" y="19"/>
			<point x="246" y="35" type="curve"/>
			<point x="300" y="224" type="line" smooth="yes"/>
			<point x="353" y="409"/>
			<point x="362" y="429"/>
		</contour>
	</outline>
</glyph>
<glyph name="c" format="2">
	<unicode hex="0063"/>
	<advance width="560"/>
	<outline>
		<contour>
			<point x="353" y="537" type="curve" smooth="yes"/>
			<point x="112" y="537"/>
			<point x="33" y="367"/>
			<point x="33" y="236" type="curve" smooth="yes"/>
			<point x="33" y="60"/>
			<point x="140" y="-14"/>
			<point x="285" y="-14" type="curve" smooth="yes"/>
			<point x="440" y="-14"/>
			<point x="508" y="85"/>
			<point x="524" y="122" type="curve"/>
			<point x="512" y="130" type="line"/>
			<point x="480" y="79"/>
			<point x="425" y="22"/>
			<point x="354" y="22" type="curve" smooth="yes"/>
			<point x="267" y="22"/>
			<point x="260" y="123"/>
			<point x="260" y="234" type="curve" smooth="yes"/>
			<point x="260" y="371"/>
			<point x="280" y="519"/>
			<point x="370" y="519" type="curve" smooth="yes"/>
			<point x="422" y="519"/>
			<point x="437" y="469"/>
			<point x="390" y="398" type="curve" smooth="yes"/>
			<point x="369" y="366" type="line"/>
			<point x="382" y="334"/>
			<point x="422" y="304"/>
			<point x="458" y="304" type="curve" smooth="yes"/>
			<point x="503" y="304"/>
			<point x="539" y="336"/>
			<point x="539" y="390" type="curve" smooth="yes"/>
			<point x="539" y="500"/>
			<point x="440" y="537"/>
		</contour>
	</outline>
	<anchor name="bottom" x="302" y="-30"/>
	<anchor name="top" x="313" y="550"/>
</glyph>
<glyph name="d" format="2">
	<unicode hex="0064"/>
	<advance width="670"/>
	<outline>
		<contour>
			<point x="578" y="84" type="curve" smooth="yes"/>
			<point x="606" y="756" type="line"/>
			<point x="602" y="767" type="line"/>
			<point x="308" y="767" type="line"/>
			<point x="306" y="748" type="line"/>
			<point x="409" y="730" type="line"/>
			<point x="400" y="516" type="line"/>
			<point x="376" y="530"/>
			<point x="331" y="537"/>
			<point x="307" y="537" type="curve" smooth="yes"/>
			<point x="121" y="537"/>
			<point x="32" y="371"/>
			<point x="32" y="206" type="curve" smooth="yes"/>
			<point x="32" y="80"/>
			<point x="92" y="-14"/>
			<point x="202" y="-14" type="curve" smooth="yes"/>
			<point x="339" y="-14"/>
			<point x="357" y="106"/>
			<point x="393" y="242" type="curve" smooth="yes"/>
			<point x="446" y="442" type="line"/>
			<point x="456" y="439" type="line"/>
			<point x="388" y="129" type="line" smooth="yes"/>
			<point x="369" y="42"/>
			<point x="403" y="-14"/>
			<point x="493" y="-14" type="curve" smooth="yes"/>
			<point x="581" y="-14"/>
			<point x="670" y="46"/>
			<point x="685" y="65" type="curve"/>
			<point x="674" y="79" type="line"/>
			<point x="659" y="67"/>
			<point x="636" y="46"/>
			<point x="607" y="46" type="curve" smooth="yes"/>
			<point x="579" y="46"/>
			<point x="578" y="72"/>
		</contour>
		<contour>
			<point x="290" y="94" type="curve" smooth="yes"/>
			<point x="260" y="94"/>
			<point x="254" y="119"/>
			<point x="254" y="187" type="curve" smooth="yes"/>
			<point x="254" y="390"/>
			<point x="289" y="511"/>
			<point x="350" y="511" type="curve" smooth="yes"/>
			<point x="372" y="511"/>
			<point x="403" y="499"/>
			<point x="435" y="480" type="curve"/>
			<point x="374" y="261" type="line" smooth="yes"/>
			<point x="332" y="110"/>
			<point x="320" y="94"/>
		</contour>
	</outline>
	<anchor name="bottom" x="307" y="-30"/>
	<anchor name="top" x="302" y="550"/>
</glyph>
<glyph name="f" format="2">
	<unicode hex="0066"/>
	<advance width="438"/>
	<outline>
		<contour>
			<point x="396" y="768" type="curve" smooth="yes"/>
			<point x="452" y="768"/>
			<point x="460" y="721"/>
			<point x="434" y="655" type="curve" smooth="yes"/>
			<point x="417" y="612" type="line"/>
			<point x="439" y="591"/>
			<point x="472" y="569"/>
			<point x="513" y="569" type="curve" smooth="yes"/>
			<point x="566" y="569"/>
			<point x="591" y="606"/>
			<point x="591" y="643" type="curve" smooth="yes"/>
			<point x="591" y="731"/>
			<point x="498" y="782"/>
			<point x="396" y="782" type="curve" smooth="yes"/>
			<point x="177" y="782"/>
			<point x="105" y="653"/>
			<point x="96" y="546" type="curve" smooth="yes"/>
			<point x="94" y="522" type="line"/>
			<point x="21" y="519" type="line"/>
			<point x="17" y="498" type="line"/>
			<point x="94" y="498" type="line"/>
			<point x="73" y="23" type="line" smooth="yes"/>
			<point x="73" y="15"/>
			<point x="71" y="-81"/>
			<point x="69" y="-104" type="curve" smooth="yes"/>
			<point x="66" y="-143"/>
			<point x="48" y="-147"/>
			<point x="11" y="-113" type="curve" smooth="yes"/>
			<point x="-35" y="-71" type="line"/>
			<point x="-70" y="-100"/>
			<point x="-89" y="-128"/>
			<point x="-89" y="-156" type="curve" smooth="yes"/>
			<point x="-89" y="-201"/>
			<point x="-54" y="-229"/>
			<point x="1" y="-229" type="curve" smooth="yes"/>
			<point x="62" y="-229"/>
			<point x="116" y="-170"/>
			<point x="135" y="-146" type="curve" smooth="yes"/>
			<point x="236" y="-18"/>
			<point x="287" y="90"/>
			<point x="292" y="170" type="curve" smooth="yes"/>
			<point x="311" y="498" type="line"/>
			<point x="412" y="498" type="line"/>
			<point x="413" y="523" type="line"/>
			<point x="312" y="523" type="line"/>
			<point x="316" y="601" type="line" smooth="yes"/>
			<point x="321" y="698"/>
			<point x="334" y="768"/>
		</contour>
	</outline>
</glyph>
<glyph name="j" format="2">
	<unicode hex="006A"/>
	<advance width="363"/>
	<outline>
		<contour>
			<point x="294" y="170" type="curve" smooth="yes"/>
			<point x="308" y="412" type="line" smooth="yes"/>
			<point x="312" y="483"/>
			<point x="264" y="537"/>
			<point x="172" y="537" type="curve" smooth="yes"/>
			<point x="101" y="537"/>
			<point x="27" y="511"/>
			<point x="-2" y="497" type="curve"/>
			<point x="4" y="478" type="line"/>
			<point x="16" y="482"/>
			<point x="49" y="494"/>
			<point x="70" y="494" type="curve" smooth="yes"/>
			<point x="89" y="494"/>
			<point x="95" y="484"/>
			<point x="94" y="457" type="curve" smooth="yes"/>
			<point x="75" y="14" type="line" smooth="yes"/>
			<point x="73" y="-32"/>
			<point x="72" y="-73"/>
			<point x="68" y="-109" type="curve" smooth="yes"/>
			<point x="64" y="-145"/>
			<point x="45" y="-146"/>
			<point x="22" y="-126" type="curve" smooth="yes"/>
			<point x="-34" y="-77" type="line"/>
			<point x="-69" y="-105"/>
			<point x="-85" y="-127"/>
			<point x="-85" y="-163" type="curve" smooth="yes"/>
			<point x="-85" y="-196"/>
			<point x="-56" y="-229"/>
			<point x="-3" y="-229" type="curve" smooth="yes"/>
			<point x="37" y="-229"/>
			<point x="80" y="-211"/>
			<point x="130" y="-151" type="curve" smooth="yes"/>
			<point x="246" y="-13"/>
			<point x="290" y="87"/>
		</contour>
		<contour>
			<point x="59" y="701" type="curve" smooth="yes"/>
			<point x="59" y="643"/>
			<point x="106" y="597"/>
			<point x="185" y="597" type="curve" smooth="yes"/>
			<point x="255" y="597"/>
			<point x="306" y="636"/>
			<point x="306" y="698" type="curve" smooth="yes"/>
			<point x="306" y="754"/>
			<point x="252" y="801"/>
			<point x="183" y="801" type="curve" smooth="yes"/>
			<point x="106" y="801"/>
			<point x="59" y="757"/>
		</contour>
	</outline>
</glyph>
<glyph name="k" format="2">
	<unicode hex="006B"/>
	<advance width="647"/>
	<outline>
		<contour>
			<point x="91" y="728" type="line"/>
			<point x="58" y="0" type="line"/>
			<point x="256" y="0" type="line"/>
			<point x="265" y="259" type="line"/>
			<point x="269" y="259"/>
			<point x="275" y="260"/>
			<point x="279" y="260" type="curve"/>
			<point x="352" y="82" type="line" smooth="yes"/>
			<point x="377" y="21"/>
			<point x="413" y="-14"/>
			<point x="486" y="-14" type="curve" smooth="yes"/>
			<point x="563" y="-14"/>
			<point x="642" y="48"/>
			<point x="660" y="69" type="curve"/>
			<point x="653" y="79" type="line"/>
			<point x="635" y="69"/>
			<point x="619" y="65"/>
			<point x="599" y="65" type="curve" smooth="yes"/>
			<point x="578" y="65"/>
			<point x="559" y="76"/>
			<point x="537" y="122" type="curve" smooth="yes"/>
			<point x="445" y="316" type="line"/>
			<point x="484" y="336"/>
			<point x="509" y="350"/>
			<point x="533" y="366" type="curve" smooth="yes"/>
			<point x="577" y="395"/>
			<point x="595" y="429"/>
			<point x="595" y="462" type="curve" smooth="yes"/>
			<point x="595" y="496"/>
			<point x="569" y="537"/>
			<point x="512" y="537" type="curve" smooth="yes"/>
			<point x="446" y="537"/>
			<point x="418" y="497"/>
			<point x="409" y="446" type="curve"/>
			<point x="444" y="422" type="line" smooth="yes"/>
			<point x="478" y="399"/>
			<point x="465" y="374"/>
			<point x="423" y="351" type="curve" smooth="yes"/>
			<point x="369" y="321"/>
			<point x="330" y="307"/>
			<point x="268" y="293" type="curve"/>
			<point x="288" y="756" type="line"/>
			<point x="276" y="767" type="line"/>
			<point x="5" y="767" type="line"/>
			<point x="2" y="750" type="line"/>
		</contour>
	</outline>
	<anchor name="bottom" x="317" y="-30"/>
	<anchor name="top" x="151" y="760"/>
</glyph>
<glyph name="l" format="2">
	<unicode hex="006C"/>
	<advance width="358"/>
	<outline>
		<contour>
			<point x="94" y="728" type="line"/>
			<point x="65" y="112" type="line" smooth="yes"/>
			<point x="62" y="56"/>
			<point x="76" y="-14"/>
			<point x="177" y="-14" type="curve" smooth="yes"/>
			<point x="264" y="-14"/>
			<point x="349" y="51"/>
			<point x="374" y="80" type="curve"/>
			<point x="362" y="93" type="line"/>
			<point x="339" y="72"/>
			<point x="309" y="56"/>
			<point x="289" y="56" type="curve" smooth="yes"/>
			<point x="268" y="56"/>
			<point x="263" y="69"/>
			<point x="264" y="99" type="curve" smooth="yes"/>
			<point x="291" y="756" type="line"/>
			<point x="279" y="767" type="line"/>
			<point x="5" y="767" type="line"/>
			<point x="2" y="751" type="line"/>
		</contour>
	</outline>
	<anchor name="bottom" x="177" y="-30"/>
	<anchor name="top" x="151" y="760"/>
</glyph>
<glyph name="m" format="2">
	<unicode hex="006D"/>
	<advance width="984"/>
	<outline>
		<contour>
			<point x="399" y="384" type="curve" smooth="yes"/>
			<point x="359" y="0" type="line"/>
			<point x="543" y="0" type="line"/>
			<point x="649" y="368" type="line" smooth="yes"/>
			<point x="665" y="424"/>
			<point x="673" y="440"/>
			<point x="693" y="440" type="curve" smooth="yes"/>
			<point x="718" y="440"/>
			<point x="724" y="423"/>
			<point x="719" y="375" type="curve" smooth="yes"/>
			<point x="692" y="110" type="line" smooth="yes"/>
			<point x="686" y="54"/>
			<point x="690" y="-14"/>
			<point x="798" y="-14" type="curve" smooth="yes"/>
			<point x="878" y="-14"/>
			<point x="971" y="40"/>
			<point x="997" y="69" type="curve"/>
			<point x="987" y="84" type="line"/>
			<point x="961" y="65"/>
			<point x="939" y="56"/>
			<point x="920" y="56" type="curve" smooth="yes"/>
			<point x="901" y="56"/>
			<point x="899" y="70"/>
			<point x="905" y="139" type="curve" smooth="yes"/>
			<point x="923" y="355" type="line" smooth="yes"/>
			<point x="934" y="487"/>
			<point x="870" y="540"/>
			<point x="788" y="540" type="curve" smooth="yes"/>
			<point x="682" y="540"/>
			<point x="650" y="478"/>
			<point x="628" y="398" type="curve" smooth="yes"/>
			<point x="569" y="179" type="line"/>
			<point x="559" y="180" type="line"/>
			<point x="582" y="389" type="line" smooth="yes"/>
			<point x="592" y="482"/>
			<point x="563" y="540"/>
			<point x="458" y="540" type="curve" smooth="yes"/>
			<point x="349" y="540"/>
			<point x="332" y="465"/>
			<point x="308" y="377" type="curve" smooth="yes"/>
			<point x="254" y="176" type="line"/>
			<point x="245" y="180" type="line"/>
			<point x="268" y="407" type="line" smooth="yes"/>
			<point x="276" y="488"/>
			<point x="238" y="537"/>
			<point x="154" y="537" type="curve" smooth="yes"/>
			<point x="94" y="537"/>
			<point x="15" y="509"/>
			<point x="-4" y="502" type="curve"/>
			<point x="4" y="481" type="line"/>
			<point x="31" y="490"/>
			<point x="46" y="494"/>
			<point x="63" y="494" type="curve" smooth="yes"/>
			<point x="78" y="494"/>
			<point x="83" y="486"/>
			<point x="82" y="462" type="curve" smooth="yes"/>
			<point x="71" y="0" type="line"/>
			<point x="234" y="0" type="line"/>
			<point x="333" y="364" type="line" smooth="yes"/>
			<point x="350" y="428"/>
			<point x="358" y="440"/>
			<point x="383" y="440" type="curve" smooth="yes"/>
			<point x="399" y="440"/>
			<point x="403" y="421"/>
		</contour>
	</outline>
	<anchor name="bottom" x="464" y="-30"/>
</glyph>
<glyph name="o" format="2">
	<unicode hex="006F"/>
	<advance width="644"/>
	<outline>
		<contour>
			<point x="302" y="-14" type="curve" smooth="yes"/>
			<point x="531" y="-14"/>
			<point x="610" y="131"/>
			<point x="610" y="283" type="curve" smooth="yes"/>
			<point x="610" y="442"/>
			<point x="524" y="537"/>
			<point x="346" y="537" type="curve" smooth="yes"/>
			<point x="121" y="537"/>
			<point x="34" y="401"/>
			<point x="34" y="241" type="curve" smooth="yes"/>
			<point x="34" y="90"/>
			<point x="116" y="-14"/>
		</contour>
		<contour>
			<point x="317" y="8" type="curve" smooth="yes"/>
			<point x="267" y="8"/>
			<point x="261" y="70"/>
			<point x="261" y="235" type="curve" smooth="yes"/>
			<point x="261" y="481"/>
			<point x="290" y="519"/>
			<point x="333" y="519" type="curve" smooth="yes"/>
			<point x="387" y="519"/>
			<point x="389" y="451"/>
			<point x="389" y="281" type="curve" smooth="yes"/>
			<point x="389" y="109"/>
			<point x="386" y="8"/>
		</contour>
	</outline>
	<anchor name="bottom" x="316" y="-30"/>
	<anchor name="top" x="329" y="550"/>
</glyph>
<glyph name="q" format="2">
	<unicode hex="0071"/>
	<advance width="641"/>
	<outline>
		<contour>
			<point x="566" y="-132" type="curve" smooth="yes"/>
			<point x="582" y="534" type="line"/>
			<point x="568" y="545" type="line"/>
			<point x="425" y="510" type="line"/>
			<point x="374" y="533"/>
			<point x="322" y="537"/>
			<point x="302" y="537" type="curve" smooth="yes"/>
			<point x="131" y="537"/>
			<point x="32" y="393"/>
			<point x="32" y="206" type="curve" smooth="yes"/>
			<point x="32" y="57"/>
			<point x="95" y="-14"/>
			<point x="205" y="-14" type="curve" smooth="yes"/>
			<point x="318" y="-14"/>
			<point x="344" y="52"/>
			<point x="394" y="236" type="curve" smooth="yes"/>
			<point x="429" y="365" type="line"/>
			<point x="439" y="363" type="line"/>
			<point x="391" y="124" type="line"/>
			<point x="370" y="-68" type="line" smooth="yes"/>
			<point x="358" y="-180"/>
			<point x="405" y="-232"/>
			<point x="501" y="-232" type="curve" smooth="yes"/>
			<point x="571" y="-232"/>
			<point x="654" y="-182"/>
			<point x="676" y="-154" type="curve"/>
			<point x="664" y="-140" type="line"/>
			<point x="627" y="-170"/>
			<point x="608" y="-173"/>
			<point x="597" y="-173" type="curve" smooth="yes"/>
			<point x="579" y="-173"/>
			<point x="565" y="-162"/>
		</contour>
		<contour>
			<point x="290" y="94" type="curve" smooth="yes"/>
			<point x="260" y="94"/>
			<point x="252" y="116"/>
			<point x="252" y="182" type="curve" smooth="yes"/>
			<point x="252" y="313"/>
			<point x="278" y="511"/>
			<point x="350" y="511" type="curve" smooth="yes"/>
			<point x="373" y="511"/>
			<point x="407" y="499"/>
			<point x="436" y="481" type="curve"/>
			<point x="412" y="389" type="line" smooth="yes"/>
			<point x="351" y="154"/>
			<point x="331" y="94"/>
		</contour>
	</outline>
</glyph>
<glyph name="s" format="2">
	<unicode hex="0073"/>
	<advance width="538"/>
	<outline>
		<contour>
			<point x="255" y="10" type="curve" smooth="yes"/>
			<point x="214" y="10"/>
			<point x="194" y="29"/>
			<point x="189" y="73" type="curve" smooth="yes"/>
			<point x="182" y="138" type="line"/>
			<point x="160" y="149"/>
			<point x="137" y="155"/>
			<point x="116" y="155" type="curve" smooth="yes"/>
			<point x="69" y="155"/>
			<point x="39" y="128"/>
			<point x="39" y="86" type="curve" smooth="yes"/>
			<point x="39" y="23"/>
			<point x="112" y="-14"/>
			<point x="237" y="-14" type="curve" smooth="yes"/>
			<point x="395" y="-14"/>
			<point x="497" y="65"/>
			<point x="497" y="186" type="curve" smooth="yes"/>
			<point x="497" y="271"/>
			<point x="437" y="320"/>
			<point x="310" y="354" type="curve" smooth="yes"/>
			<point x="249" y="370"/>
			<point x="211" y="403"/>
			<point x="211" y="446" type="curve" smooth="yes"/>
			<point x="211" y="491"/>
			<point x="240" y="515"/>
			<point x="295" y="515" type="curve" smooth="yes"/>
			<point x="350" y="515"/>
			<point x="375" y="488"/>
			<point x="365" y="440" type="curve" smooth="yes"/>
			<point x="353" y="383" type="line"/>
			<point x="377" y="372"/>
			<point x="409" y="364"/>
			<point x="432" y="364" type="curve" smooth="yes"/>
			<point x="477" y="364"/>
			<point x="506" y="388"/>
			<point x="506" y="424" type="curve" smooth="yes"/>
			<point x="506" y="487"/>
			<point x="416" y="537"/>
			<point x="304" y="537" type="curve" smooth="yes"/>
			<point x="160" y="537"/>
			<point x="52" y="460"/>
			<point x="52" y="356" type="curve" smooth="yes"/>
			<point x="52" y="275"/>
			<point x="124" y="210"/>
			<point x="227" y="187" type="curve" smooth="yes"/>
			<point x="311" y="168"/>
			<point x="350" y="144"/>
			<point x="350" y="99" type="curve" smooth="yes"/>
			<point x="350" y="44"/>
			<point x="314" y="10"/>
		</contour>
	</outline>
	<anchor name="bottom" x="247" y="-30"/>
	<anchor name="top" x="292" y="550"/>
</glyph>
<glyph name="u" format="2">
	<unicode hex="0075"/>
	<advance width="673"/>
	<outline>
		<contour>
			<point x="8" y="502" type="curve"/>
			<point x="16" y="481" type="line"/>
			<point x="33" y="487"/>
			<point x="49" y="494"/>
			<point x="71" y="494" type="curve" smooth="yes"/>
			<point x="94" y="494"/>
			<point x="96" y="477"/>
			<point x="93" y="451" type="curve" smooth="yes"/>
			<point x="65" y="177" type="line" smooth="yes"/>
			<point x="52" y="47"/>
			<point x="109" y="-17"/>
			<point x="202" y="-17" type="curve" smooth="yes"/>
			<point x="304" y="-17"/>
			<point x="333" y="41"/>
			<point x="363" y="147" type="curve" smooth="yes"/>
			<point x="419" y="344" type="line"/>
			<point x="429" y="343" type="line"/>
			<point x="395" y="110" type="line" smooth="yes"/>
			<point x="384" y="33"/>
			<point x="432" y="-14"/>
			<point x="495" y="-14" type="curve" smooth="yes"/>
			<point x="569" y="-14"/>
			<point x="659" y="48"/>
			<point x="681" y="68" type="curve"/>
			<point x="670" y="84" type="line"/>
			<point x="646" y="65"/>
			<point x="621" y="56"/>
			<point x="607" y="56" type="curve" smooth="yes"/>
			<point x="587" y="56"/>
			<point x="583" y="68"/>
			<point x="584" y="89" type="curve" smooth="yes"/>
			<point x="607" y="523" type="line"/>
			<point x="437" y="523" type="line"/>
			<point x="336" y="155" type="line" smooth="yes"/>
			<point x="321" y="100"/>
			<point x="311" y="83"/>
			<point x="293" y="83" type="curve" smooth="yes"/>
			<point x="277" y="83"/>
			<point x="269" y="93"/>
			<point x="273" y="131" type="curve" smooth="yes"/>
			<point x="303" y="425" type="line" smooth="yes"/>
			<point x="310" y="496"/>
			<point x="274" y="537"/>
			<point x="189" y="537" type="curve" smooth="yes"/>
			<point x="115" y="537"/>
			<point x="48" y="519"/>
		</contour>
	</outline>
	<anchor name="bottom" x="342" y="-30"/>
	<anchor name="top" x="347" y="550"/>
</glyph>
<glyph name="v" format="2">
	<unicode hex="0076"/>
	<advance width="581"/>
	<outline>
		<contour>
			<point x="452" y="537" type="curve" smooth="yes"/>
			<point x="389" y="537"/>
			<point x="365" y="484"/>
			<point x="375" y="417" type="curve"/>
			<point x="432" y="402" type="line" smooth="yes"/>
			<point x="470" y="392"/>
			<point x="509" y="382"/>
			<point x="509" y="324" type="curve" smooth="yes"/>
			<point x="509" y="130"/>
			<point x="385" y="22"/>
			<point x="321" y="22" type="curve" smooth="yes"/>
			<point x="283" y="22"/>
			<point x="279" y="52"/>
			<point x="283" y="117" type="curve" smooth="yes"/>
			<point x="303" y="417" type="line" smooth="yes"/>
			<point x="308" y="495"/>
			<point x="284" y="537"/>
			<point x="190" y="537" type="curve" smooth="yes"/>
			<point x="118" y="537"/>
			<point x="45" y="510"/>
			<point x="-2" y="494" type="curve"/>
			<point x="6" y="473" type="line"/>
			<point x="34" y="482" type="line" smooth="yes"/>
			<point x="84" y="498"/>
			<point x="98" y="482"/>
			<point x="96" y="450" type="curve" smooth="yes"/>
			<point x="79" y="174" type="line" smooth="yes"/>
			<point x="69" y="7"/>
			<point x="190" y="-14"/>
			<point x="247" y="-14" type="curve" smooth="yes"/>
			<point x="490" y="-14"/>
			<point x="551" y="238"/>
			<point x="551" y="418" type="curve" smooth="yes"/>
			<point x="551" y="484"/>
			<point x="515" y="537"/>
		</contour>
	</outline>
	<anchor name="top" x="342" y="550"/>
</glyph>
<glyph name="w" format="2">
	<unicode hex="0077"/>
	<advance width="850"/>
	<outline>
		<contour>
			<point x="573" y="515" type="curve"/>
			<point x="395" y="498" type="line"/>
			<point x="402" y="456"/>
			<point x="406" y="402"/>
			<point x="406" y="357" type="curve" smooth="yes"/>
			<point x="406" y="244"/>
			<point x="381" y="30"/>
			<point x="317" y="30" type="curve" smooth="yes"/>
			<point x="285" y="30"/>
			<point x="281" y="77"/>
			<point x="285" y="140" type="curve" smooth="yes"/>
			<point x="302" y="405" type="line" smooth="yes"/>
			<point x="307" y="483"/>
			<point x="293" y="537"/>
			<point x="190" y="537" type="curve" smooth="yes"/>
			<point x="114" y="537"/>
			<point x="32" y="507"/>
			<point x="-2" y="494" type="curve"/>
			<point x="6" y="473" type="line"/>
			<point x="47" y="486" type="line" smooth="yes"/>
			<point x="74" y="495"/>
			<point x="98" y="488"/>
			<point x="96" y="450" type="curve" smooth="yes"/>
			<point x="81" y="183" type="line" smooth="yes"/>
			<point x="71" y="9"/>
			<point x="202" y="-14"/>
			<point x="256" y="-14" type="curve" smooth="yes"/>
			<point x="320" y="-14"/>
			<point x="389" y="15"/>
			<point x="411" y="179" type="curve"/>
			<point x="419" y="11"/>
			<point x="510" y="-14"/>
			<point x="585" y="-14" type="curve" smooth="yes"/>
			<point x="761" y="-14"/>
			<point x="814" y="230"/>
			<point x="814" y="397" type="curve" smooth="yes"/>
			<point x="814" y="482"/>
			<point x="785" y="537"/>
			<point x="722" y="537" type="curve" smooth="yes"/>
			<point x="653" y="537"/>
			<point x="628" y="487"/>
			<point x="640" y="417" type="curve"/>
			<point x="702" y="400" type="line" smooth="yes"/>
			<point x="762" y="384"/>
			<point x="772" y="366"/>
			<point x="772" y="313" type="curve" smooth="yes"/>
			<point x="772" y="84"/>
			<point x="668" y="22"/>
			<point x="615" y="22" type="curve" smooth="yes"/>
			<point x="542" y="22"/>
			<point x="549" y="103"/>
			<point x="566" y="204" type="curve" smooth="yes"/>
			<point x="580" y="286"/>
			<point x="584" y="327"/>
			<point x="584" y="391" type="curve" smooth="yes"/>
			<point x="584" y="437"/>
			<point x="577" y="491"/>
		</contour>
	</outline>
	<anchor name="top" x="460" y="550"/>
</glyph>
<glyph name="x" format="2">
	<unicode hex="0078"/>
	<advance width="585"/>
	<outline>
		<contour>
			<point x="382" y="328" type="line"/>
			<point x="326" y="452" type="line" smooth="yes"/>
			<point x="302" y="506"/>
			<point x="266" y="537"/>
			<point x="171" y="537" type="curve" smooth="yes"/>
			<point x="116" y="537"/>
			<point x="31" y="498"/>
			<point x="8" y="486" type="curve"/>
			<point x="16" y="470" type="line"/>
			<point x="37" y="479"/>
			<point x="52" y="486"/>
			<point x="64" y="486" type="curve" smooth="yes"/>
			<point x="78" y="486"/>
			<point x="87" y="478"/>
			<point x="100" y="448" type="curve" smooth="yes"/>
			<point x="193" y="237" type="line"/>
			<point x="118" y="187" type="line" smooth="yes"/>
			<point x="49" y="141"/>
			<point x="23" y="97"/>
			<point x="23" y="57" type="curve" smooth="yes"/>
			<point x="23" y="21"/>
			<point x="43" y="-21"/>
			<point x="95" y="-21" type="curve" smooth="yes"/>
			<point x="133" y="-21"/>
			<point x="171" y="2"/>
			<point x="174" y="41" type="curve"/>
			<point x="130" y="58" type="line" smooth="yes"/>
			<point x="88" y="74"/>
			<point x="57" y="109"/>
			<point x="118" y="150" type="curve" smooth="yes"/>
			<point x="205" y="209" type="line"/>
			<point x="257" y="94" type="line" smooth="yes"/>
			<point x="289" y="24"/>
			<point x="333" y="-13"/>
			<point x="414" y="-13" type="curve" smooth="yes"/>
			<point x="508" y="-13"/>
			<point x="567" y="14"/>
			<point x="602" y="40" type="curve"/>
			<point x="591" y="58" type="line"/>
			<point x="576" y="49"/>
			<point x="560" y="39"/>
			<point x="537" y="39" type="curve" smooth="yes"/>
			<point x="515" y="39"/>
			<point x="505" y="51"/>
			<point x="476" y="115" type="curve" smooth="yes"/>
			<point x="393" y="300" type="line"/>
			<point x="426" y="322" type="line" smooth="yes"/>
			<point x="529" y="391"/>
			<point x="560" y="425"/>
			<point x="560" y="468" type="curve" smooth="yes"/>
			<point x="560" y="501"/>
			<point x="537" y="537"/>
			<point x="488" y="537" type="curve" smooth="yes"/>
			<point x="448" y="537"/>
			<point x="416" y="510"/>
			<point x="405" y="470" type="curve"/>
			<point x="458" y="437" type="line" smooth="yes"/>
			<point x="500" y="411"/>
			<point x="475" y="391"/>
			<point x="410" y="347" type="curve" smooth="yes"/>
		</contour>
	</outline>
</glyph>
<glyph name="y" format="2">
	<unicode hex="0079"/>
	<advance width="596"/>
	<outline>
		<contour>
			<point x="371" y="-35" type="curve" smooth="yes"/>
			<point x="496" y="231" type="line" smooth="yes"/>
			<point x="545" y="336"/>
			<point x="567" y="382"/>
			<point x="567" y="435" type="curve" smooth="yes"/>
			<point x="567" y="505"/>
			<point x="523" y="537"/>
			<point x="468" y="537" type="curve" smooth="yes"/>
			<point x="404" y="537"/>
			<point x="363" y="491"/>
			<point x="380" y="408" type="curve"/>
			<point x="463" y="387" type="line" smooth="yes"/>
			<point x="502" y="377"/>
			<point x="514" y="354"/>
			<point x="486" y="291" type="curve" smooth="yes"/>
			<point x="373" y="37" type="line"/>
			<point x="359" y="37" type="line" smooth="yes"/>
			<point x="337" y="37"/>
			<point x="319" y="47"/>
			<point x="308" y="79" type="curve" smooth="yes"/>
			<point x="284" y="147"/>
			<point x="283" y="247"/>
			<point x="283" y="313" type="curve" smooth="yes"/>
			<point x="283" y="362"/>
			<point x="287" y="417"/>
			<point x="287" y="437" type="curve" smooth="yes"/>
			<point x="287" y="495"/>
			<point x="256" y="537"/>
			<point x="181" y="537" type="curve" smooth="yes"/>
			<point x="113" y="537"/>
			<point x="19" y="507"/>
			<point x="-17" y="491" type="curve"/>
			<point x="-8" y="467" type="line"/>
			<point x="15" y="476"/>
			<point x="43" y="485"/>
			<point x="59" y="485" type="curve" smooth="yes"/>
			<point x="74" y="485"/>
			<point x="82" y="476"/>
			<point x="82" y="451" type="curve" smooth="yes"/>
			<point x="82" y="429"/>
			<point x="78" y="376"/>
			<point x="78" y="332" type="curve" smooth="yes"/>
			<point x="78" y="226"/>
			<point x="86" y="141"/>
			<point x="111" y="95" type="curve" smooth="yes"/>
			<point x="148" y="26"/>
			<point x="207" y="0"/>
			<point x="303" y="0" type="curve" smooth="yes"/>
			<point x="355" y="0" type="line"/>
			<point x="317" y="-77" type="line" smooth="yes"/>
			<point x="288" y="-135"/>
			<point x="258" y="-179"/>
			<point x="220" y="-179" type="curve" smooth="yes"/>
			<point x="188" y="-179"/>
			<point x="176" y="-157"/>
			<point x="155" y="-112" type="curve" smooth="yes"/>
			<point x="130" y="-58" type="line"/>
			<point x="76" y="-62"/>
			<point x="25" y="-84"/>
			<point x="25" y="-138" type="curve" smooth="yes"/>
			<point x="25" y="-196"/>
			<point x="82" y="-229"/>
			<point x="155" y="-229" type="curve" smooth="yes"/>
			<point x="281" y="-229"/>
			<point x="326" y="-131"/>
		</contour>
	</outline>
	<anchor name="bottom" x="485" y="-30"/>
	<anchor name="top" x="307" y="550"/>
</glyph>
<glyph name="z" format="2">
	<unicode hex="007A"/>
	<advance width="548"/>
	<outline>
		<contour>
			<point x="75" y="523" type="line"/>
			<point x="64" y="512" type="line"/>
			<point x="42" y="290" type="line"/>
			<point x="66" y="293" type="line"/>
			<point x="89" y="375"/>
			<point x="118" y="385"/>
			<point x="181" y="385" type="curve" smooth="yes"/>
			<point x="409" y="385" type="line"/>
			<point x="29" y="112" type="line"/>
			<point x="66" y="-16" type="line"/>
			<point x="94" y="-4"/>
			<point x="152" y="9"/>
			<point x="199" y="9" type="curve" smooth="yes"/>
			<point x="265" y="9"/>
			<point x="373" y="-27"/>
			<point x="469" y="0" type="curve"/>
			<point x="510" y="244" type="line"/>
			<point x="489" y="244" type="line"/>
			<point x="459" y="160"/>
			<point x="423" y="145"/>
			<point x="383" y="145" type="curve" smooth="yes"/>
			<point x="350" y="145"/>
			<point x="308" y="148"/>
			<point x="265" y="148" type="curve" smooth="yes"/>
			<point x="209" y="148"/>
			<point x="171" y="144"/>
			<point x="77" y="113" type="curve"/>
			<point x="519" y="432" type="line"/>
			<point x="505" y="523" type="line"/>
		</contour>
	</outline>
	<anchor name="bottom" x="251" y="-30"/>
	<anchor name="top" x="281" y="550"/>
</glyph>
<glyph name="bar" format="2">
	<unicode hex="007C"/>
	<advance width="373"/>
	<outline>
		<contour>
			<point x="158" y="-110" type="line"/>
			<point x="189" y="-110" type="line"/>
			<point x="221" y="802" type="line"/>
			<point x="190" y="802" type="line"/>
		</contour>
	</outline>
</glyph>
<glyph name="cent" format="2">
	<unicode hex="00A2"/>
	<advance width="560"/>
	<outline>
		<contour>
			<point x="244" y="-54" type="line"/>
			<point x="268" y="-54" type="line"/>
			<point x="282" y="21" type="line"/>
			<point x="284" y="21"/>
			<point x="285" y="21"/>
			<point x="287" y="21" type="curve" smooth="yes"/>
			<point x="442" y="21"/>
			<point x="510" y="120"/>
			<point x="526" y="157" type="curve"/>
			<point x="514" y="165" type="line"/>
			<point x="482" y="114"/>
			<point x="427" y="57"/>
			<point x="356" y="57" type="curve" smooth="yes"/>
			<point x="328" y="57"/>
			<point x="308" y="67"/>
			<point x="294" y="85" type="curve"/>
			<point x="383" y="553" type="line"/>
			<point x="426" y="546"/>
			<point x="435" y="499"/>
			<point x="392" y="433" type="curve" smooth="yes"/>
			<point x="371" y="401" type="line"/>
			<point x="384" y="369"/>
			<point x="424" y="339"/>
			<point x="460" y="339" type="curve" smooth="yes"/>
			<point x="505" y="339"/>
			<point x="541" y="371"/>
			<point x="541" y="425" type="curve" smooth="yes"/>
			<point x="541" y="522"/>
			<point x="464" y="562"/>
			<point x="386" y="570" type="curve"/>
			<point x="401" y="648" type="line"/>
			<point x="377" y="648" type="line"/>
			<point x="363" y="572" type="line"/>
			<point x="150" y="577"/>
			<point x="35" y="439"/>
			<point x="35" y="271" type="curve" smooth="yes"/>
			<point x="35" y="107"/>
			<point x="128" y="31"/>
			<point x="258" y="22" type="curve"/>
		</contour>
		<contour>
			<point x="277" y="120" type="line"/>
			<point x="264" y="159"/>
			<point x="262" y="213"/>
			<point x="262" y="269" type="curve" smooth="yes"/>
			<point x="262" y="399"/>
			<point x="280" y="539"/>
			<point x="359" y="553" type="curve"/>
		</contour>
	</outline>
</glyph>
<glyph name="currency" format="2">
	<unicode hex="00A4"/>
	<advance width="629"/>
	<outline>
		<contour>
			<point x="115" y="302" type="curve" smooth="yes"/>
			<point x="115" y="251"/>
			<point x="121" y="229"/>
			<point x="134" y="196" type="curve"/>
			<point x="78" y="91" type="line"/>
			<point x="91" y="77" type="line"/>
			<point x="197" y="129" type="line"/>
			<point x="229" y="117"/>
			<point x="270" y="109"/>
			<point x="317" y="109" type="curve" smooth="yes"/>
			<point x="351" y="109"/>
			<point x="391" y="114"/>
			<point x="425" y="131" type="curve"/>
			<point x="541" y="79" type="line"/>
			<point x="554" y="89" type="line"/>
			<point x="506" y="196" type="line"/>
			<point x="526" y="225"/>
			<point x="537" y="260"/>
			<point x="537" y="309" type="curve" smooth="yes"/>
			<point x="537" y="354"/>
			<point x="527" y="389"/>
			<point x="518" y="408" type="curve"/>
			<point x="571" y="513" type="line"/>
			<point x="557" y="526" type="line"/>
			<point x="444" y="471" type="line"/>
			<point x="411" y="485"/>
			<point x="372" y="490"/>
			<point x="335" y="490" type="curve" smooth="yes"/>
			<point x="304" y="490"/>
			<point x="263" y="483"/>
			<point x="223" y="468" type="curve"/>
			<point x="114" y="522" type="line"/>
			<point x="101" y="508" type="line"/>
			<point x="145" y="400" type="line"/>
			<point x="127" y="374"/>
			<point x="115" y="337"/>
		</contour>
		<contour>
			<point x="264" y="302" type="curve" smooth="yes"/>
			<point x="264" y="427"/>
			<point x="285" y="467"/>
			<point x="329" y="467" type="curve" smooth="yes"/>
			<point x="366" y="467"/>
			<point x="388" y="430"/>
			<point x="388" y="304" type="curve" smooth="yes"/>
			<point x="388" y="162"/>
			<point x="360" y="132"/>
			<point x="321" y="132" type="curve" smooth="yes"/>
			<point x="288" y="132"/>
			<point x="264" y="150"/>
		</contour>
	</outline>
</glyph>
<glyph name="brokenbar" format="2">
	<unicode hex="00A6"/>
	<advance width="372"/>
	<outline>
		<contour>
			<point x="158" y="-110" type="line"/>
			<point x="189" y="-110" type="line"/>
			<point x="203" y="289" type="line"/>
			<point x="172" y="289" type="line"/>
		</contour>
		<contour>
			<point x="176" y="432" type="line"/>
			<point x="207" y="432" type="line"/>
			<point x="221" y="802" type="line"/>
			<point x="190" y="802" type="line"/>
		</contour>
	</outline>
</glyph>
<glyph name="dieresis" format="2">
	<unicode hex="00A8"/>
	<advance width="485"/>
	<outline>
		<contour>
			<point x="46" y="690" type="curve" smooth="yes"/>
			<point x="46" y="634"/>
			<point x="83" y="602"/>
			<point x="144" y="602" type="curve" smooth="yes"/>
			<point x="204" y="602"/>
			<point x="248" y="637"/>
			<point x="248" y="695" type="curve" smooth="yes"/>
			<point x="248" y="751"/>
			<point x="212" y="783"/>
			<point x="149" y="783" type="curve" smooth="yes"/>
			<point x="91" y="783"/>
			<point x="46" y="747"/>
		</contour>
		<contour>
			<point x="293" y="691" type="curve" smooth="yes"/>
			<point x="293" y="635"/>
			<point x="330" y="603"/>
			<point x="392" y="603" type="curve" smooth="yes"/>
			<point x="451" y="603"/>
			<point x="495" y="638"/>
			<point x="495" y="696" type="curve" smooth="yes"/>
			<point x="495" y="752"/>
			<point x="459" y="784"/>
			<point x="397" y="784" type="curve" smooth="yes"/>
			<point x="339" y="784"/>
			<point x="293" y="748"/>
		</contour>
	</outline>
	<anchor name="_top" x="266" y="550"/>
</glyph>
<glyph name="copyright" format="2">
	<unicode hex="00A9"/>
	<advance width="917"/>
	<outline>
		<contour>
			<point x="461" y="-12" type="curve" smooth="yes"/>
			<point x="733" y="-12"/>
			<point x="852" y="143"/>
			<point x="852" y="343" type="curve" smooth="yes"/>
			<point x="852" y="574"/>
			<point x="674" y="680"/>
			<point x="466" y="680" type="curve" smooth="yes"/>
			<point x="249" y="680"/>
			<point x="77" y="555"/>
			<point x="77" y="329" type="curve" smooth="yes"/>
			<point x="77" y="133"/>
			<point x="190" y="-12"/>
		</contour>
		<contour>
			<point x="447" y="119" type="curve" smooth="yes"/>
			<point x="565" y="119"/>
			<point x="617" y="195"/>
			<point x="629" y="223" type="curve"/>
			<point x="615" y="231" type="line"/>
			<point x="591" y="192"/>
			<point x="549" y="150"/>
			<point x="499" y="150" type="curve" smooth="yes"/>
			<point x="435" y="150"/>
			<point x="428" y="223"/>
			<point x="428" y="308" type="curve" smooth="yes"/>
			<point x="428" y="412"/>
			<point x="443" y="525"/>
			<point x="512" y="525" type="curve" smooth="yes"/>
			<point x="551" y="525"/>
			<point x="559" y="487"/>
			<point x="523" y="433" type="curve" smooth="yes"/>
			<point x="507" y="409" type="line"/>
			<point x="517" y="384"/>
			<point x="549" y="365"/>
			<point x="576" y="365" type="curve" smooth="yes"/>
			<point x="610" y="365"/>
			<point x="641" y="386"/>
			<point x="641" y="427" type="curve" smooth="yes"/>
			<point x="641" y="491"/>
			<point x="594" y="539"/>
			<point x="499" y="539" type="curve" smooth="yes"/>
			<point x="315" y="539"/>
			<point x="255" y="409"/>
			<point x="255" y="310" type="curve" smooth="yes"/>
			<point x="255" y="175"/>
			<point x="337" y="119"/>
		</contour>
		<contour>
			<point x="468" y="7" type="curve" smooth="yes"/>
			<point x="211" y="7"/>
			<point x="100" y="136"/>
			<point x="100" y="332" type="curve" smooth="yes"/>
			<point x="100" y="541"/>
			<point x="259" y="661"/>
			<point x="463" y="661" type="curve" smooth="yes"/>
			<point x="677" y="661"/>
			<point x="829" y="556"/>
			<point x="829" y="335" type="curve" smooth="yes"/>
			<point x="829" y="134"/>
			<point x="699" y="7"/>
		</contour>
	</outline>
</glyph>
<glyph name="ordfeminine" format="2">
	<unicode hex="00AA"/>
	<advance width="519"/>
	<outline>
		<contour>
			<point x="436" y="450" type="curve" smooth="yes"/>
			<point x="441" y="735" type="line"/>
			<point x="423" y="746" type="line"/>
			<point x="334" y="722" type="line"/>
			<point x="303" y="738"/>
			<point x="277" y="744"/>
			<point x="253" y="744" type="curve" smooth="yes"/>
			<point x="111" y="744"/>
			<point x="51" y="630"/>
			<point x="51" y="515" type="curve" smooth="yes"/>
			<point x="51" y="429"/>
			<point x="85" y="362"/>
			<point x="169" y="362" type="curve" smooth="yes"/>
			<point x="232" y="362"/>
			<point x="265" y="393"/>
			<point x="297" y="509" type="curve" smooth="yes"/>
			<point x="327" y="619" type="line"/>
			<point x="336" y="616" type="line"/>
			<point x="301" y="458" type="line" smooth="yes"/>
			<point x="287" y="393"/>
			<point x="326" y="362"/>
			<point x="378" y="362" type="curve" smooth="yes"/>
			<point x="431" y="362"/>
			<point x="488" y="397"/>
			<point x="505" y="417" type="curve"/>
			<point x="493" y="434" type="line"/>
			<point x="482" y="424"/>
			<point x="469" y="418"/>
			<point x="457" y="418" type="curve" smooth="yes"/>
			<point x="444" y="418"/>
			<point x="436" y="429"/>
		</contour>
		<contour>
			<point x="215" y="414" type="curve" smooth="yes"/>
			<point x="197" y="414"/>
			<point x="186" y="444"/>
			<point x="188" y="512" type="curve" smooth="yes"/>
			<point x="193" y="678"/>
			<point x="225" y="722"/>
			<point x="267" y="722" type="curve" smooth="yes"/>
			<point x="284" y="722"/>
			<point x="308" y="712"/>
			<point x="326" y="700" type="curve"/>
			<point x="281" y="535" type="line" smooth="yes"/>
			<point x="252" y="434"/>
			<point x="240" y="414"/>
		</contour>
	</outline>
</glyph>
<glyph name="logicalnot" format="2">
	<unicode hex="00AC"/>
	<advance width="582"/>
	<outline>
		<contour>
			<point x="472" y="154" type="line"/>
			<point x="492" y="154" type="line"/>
			<point x="498" y="350" type="line"/>
			<point x="90" y="350" type="line"/>
			<point x="90" y="331" type="line"/>
			<point x="478" y="331" type="line"/>
		</contour>
	</outline>
</glyph>
<glyph name="registered" format="2">
	<unicode hex="00AE"/>
	<advance width="555"/>
	<outline>
		<contour>
			<point x="261" y="374" type="curve" smooth="yes"/>
			<point x="393" y="374"/>
			<point x="485" y="461"/>
			<point x="485" y="583" type="curve" smooth="yes"/>
			<point x="485" y="708"/>
			<point x="401" y="792"/>
			<point x="262" y="792" type="curve" smooth="yes"/>
			<point x="144" y="792"/>
			<point x="38" y="718"/>
			<point x="38" y="579" type="curve" smooth="yes"/>
			<point x="38" y="473"/>
			<point x="106" y="374"/>
		</contour>
		<contour>
			<point x="346" y="464" type="curve" smooth="yes"/>
			<point x="311" y="464"/>
			<point x="291" y="476"/>
			<point x="277" y="532" type="curve" smooth="yes"/>
			<point x="267" y="572"/>
			<point x="265" y="577"/>
			<point x="247" y="578" type="curve"/>
			<point x="249" y="585" type="line"/>
			<point x="260" y="585" type="line" smooth="yes"/>
			<point x="285" y="585"/>
			<point x="294" y="593"/>
			<point x="294" y="642" type="curve" smooth="yes"/>
			<point x="294" y="678"/>
			<point x="279" y="697"/>
			<point x="254" y="697" type="curve" smooth="yes"/>
			<point x="237" y="697" type="line"/>
			<point x="236" y="480" type="line"/>
			<point x="264" y="474" type="line"/>
			<point x="264" y="467" type="line"/>
			<point x="126" y="467" type="line"/>
			<point x="127" y="474" type="line"/>
			<point x="163" y="480" type="line"/>
			<point x="168" y="695" type="line"/>
			<point x="140" y="699" type="line"/>
			<point x="142" y="706" type="line"/>
			<point x="260" y="706" type="line" smooth="yes"/>
			<point x="333" y="706"/>
			<point x="369" y="680"/>
			<point x="369" y="641" type="curve" smooth="yes"/>
			<point x="369" y="607"/>
			<point x="334" y="590"/>
			<point x="293" y="586" type="curve"/>
			<point x="293" y="584" type="line"/>
			<point x="335" y="582"/>
			<point x="341" y="572"/>
			<point x="355" y="532" type="curve" smooth="yes"/>
			<point x="365" y="503"/>
			<point x="369" y="484"/>
			<point x="387" y="484" type="curve" smooth="yes"/>
			<point x="395" y="484"/>
			<point x="400" y="486"/>
			<point x="405" y="490" type="curve"/>
			<point x="407" y="485" type="line"/>
			<point x="391" y="470"/>
			<point x="365" y="464"/>
		</contour>
	</outline>
</glyph>
<glyph name="macron" format="2">
	<unicode hex="00AF"/>
	<advance width="497.5"/>
	<outline>
		<contour>
			<point x="100" y="749" type="line"/>
			<point x="95" y="625" type="line"/>
			<point x="446" y="625" type="line"/>
			<point x="450" y="749" type="line"/>
		</contour>
	</outline>
	<anchor name="_top" x="266" y="550"/>
</glyph>
<glyph name="plusminus" format="2">
	<unicode hex="00B1"/>
	<advance width="582"/>
	<outline>
		<contour>
			<point x="270" y="141" type="line"/>
			<point x="291" y="141" type="line"/>
			<point x="298" y="327" type="line"/>
			<point x="480" y="327" type="line"/>
			<point x="480" y="347" type="line"/>
			<point x="299" y="347" type="line"/>
			<point x="305" y="521" type="line"/>
			<point x="284" y="521" type="line"/>
			<point x="278" y="347" type="line"/>
			<point x="101" y="347" type="line"/>
			<point x="101" y="327" type="line"/>
			<point x="277" y="327" type="line"/>
		</contour>
		<contour>
			<point x="90" y="1" type="line"/>
			<point x="472" y="1" type="line"/>
			<point x="472" y="20" type="line"/>
			<point x="90" y="20" type="line"/>
		</contour>
	</outline>
</glyph>
<glyph name="threesuperior" format="2">
	<unicode hex="00B3"/>
	<advance width="469"/>
	<outline>
		<contour>
			<point x="444" y="736" type="curve" smooth="yes"/>
			<point x="444" y="805"/>
			<point x="347" y="837"/>
			<point x="239" y="837" type="curve" smooth="yes"/>
			<point x="146" y="837"/>
			<point x="49" y="800"/>
			<point x="49" y="732" type="curve" smooth="yes"/>
			<point x="49" y="689"/>
			<point x="78" y="667"/>
			<point x="121" y="667" type="curve" smooth="yes"/>
			<point x="153" y="667"/>
			<point x="180" y="685"/>
			<point x="195" y="714" type="curve"/>
			<point x="167" y="738" type="line" smooth="yes"/>
			<point x="132" y="768"/>
			<point x="145" y="813"/>
			<point x="199" y="813" type="curve" smooth="yes"/>
			<point x="240" y="813"/>
			<point x="276" y="787"/>
			<point x="276" y="730" type="curve" smooth="yes"/>
			<point x="276" y="662"/>
			<point x="233" y="624"/>
			<point x="145" y="607" type="curve"/>
			<point x="147" y="589" type="line"/>
			<point x="167" y="595"/>
			<point x="186" y="597"/>
			<point x="200" y="597" type="curve" smooth="yes"/>
			<point x="251" y="597"/>
			<point x="289" y="575"/>
			<point x="289" y="516" type="curve" smooth="yes"/>
			<point x="289" y="438"/>
			<point x="242" y="383"/>
			<point x="188" y="383" type="curve" smooth="yes"/>
			<point x="141" y="383"/>
			<point x="125" y="411"/>
			<point x="150" y="454" type="curve" smooth="yes"/>
			<point x="164" y="477" type="line"/>
			<point x="156" y="494"/>
			<point x="132" y="520"/>
			<point x="98" y="520" type="curve" smooth="yes"/>
			<point x="60" y="520"/>
			<point x="32" y="496"/>
			<point x="32" y="454" type="curve" smooth="yes"/>
			<point x="32" y="385"/>
			<point x="100" y="361"/>
			<point x="189" y="361" type="curve" smooth="yes"/>
			<point x="320" y="361"/>
			<point x="458" y="423"/>
			<point x="458" y="532" type="curve" smooth="yes"/>
			<point x="458" y="608"/>
			<point x="371" y="640"/>
			<point x="289" y="635" type="curve"/>
			<point x="289" y="638" type="line"/>
			<point x="387" y="651"/>
			<point x="444" y="677"/>
		</contour>
	</outline>
</glyph>
<glyph name="acute" format="2">
	<unicode hex="00B4"/>
	<advance width="495"/>
	<outline>
		<contour>
			<point x="301" y="790" type="curve" smooth="yes"/>
			<point x="198" y="597" type="line"/>
			<point x="207" y="588" type="line"/>
			<point x="431" y="712" type="line"/>
			<point x="437" y="791"/>
			<point x="400" y="822"/>
			<point x="358" y="822" type="curve" smooth="yes"/>
			<point x="327" y="822"/>
			<point x="309" y="805"/>
		</contour>
	</outline>
	<anchor name="_top" x="263" y="550"/>
</glyph>
<glyph name="onesuperior" format="2">
	<unicode hex="00B9"/>
	<advance width="379"/>
	<outline>
		<contour>
			<point x="290" y="404" type="line"/>
			<point x="305" y="830" type="line"/>
			<point x="288" y="836" type="line"/>
			<point x="40" y="788" type="line"/>
			<point x="37" y="770" type="line"/>
			<point x="137" y="770" type="line"/>
			<point x="123" y="404" type="line"/>
			<point x="28" y="389" type="line"/>
			<point x="25" y="374" type="line"/>
			<point x="373" y="374" type="line"/>
			<point x="373" y="389" type="line"/>
		</contour>
	</outline>
</glyph>
<glyph name="ordmasculine" format="2">
	<unicode hex="00BA"/>
	<advance width="479"/>
	<outline>
		<contour>
			<point x="246" y="362" type="curve" smooth="yes"/>
			<point x="379" y="362"/>
			<point x="453" y="458"/>
			<point x="453" y="566" type="curve" smooth="yes"/>
			<point x="453" y="677"/>
			<point x="388" y="743"/>
			<point x="267" y="743" type="curve" smooth="yes"/>
			<point x="123" y="743"/>
			<point x="57" y="648"/>
			<point x="57" y="538" type="curve" smooth="yes"/>
			<point x="57" y="427"/>
			<point x="135" y="362"/>
		</contour>
		<contour>
			<point x="252" y="386" type="curve" smooth="yes"/>
			<point x="217" y="386"/>
			<point x="209" y="427"/>
			<point x="209" y="536" type="curve" smooth="yes"/>
			<point x="209" y="641"/>
			<point x="213" y="720"/>
			<point x="256" y="720" type="curve" smooth="yes"/>
			<point x="297" y="720"/>
			<point x="304" y="659"/>
			<point x="304" y="567" type="curve" smooth="yes"/>
			<point x="304" y="461"/>
			<point x="298" y="386"/>
		</contour>
	</outline>
</glyph>
<glyph name="germandbls" format="2">
	<unicode hex="00DF"/>
	<advance width="800"/>
	<outline>
		<contour>
			<point x="544" y="11" type="curve" smooth="yes"/>
			<point x="504" y="11"/>
			<point x="481" y="29"/>
			<point x="477" y="73" type="curve" smooth="yes"/>
			<point x="471" y="137" type="line"/>
			<point x="456" y="146"/>
			<point x="428" y="155"/>
			<point x="408" y="155" type="curve" smooth="yes"/>
			<point x="368" y="155"/>
			<point x="328" y="138"/>
			<point x="328" y="90" type="curve" smooth="yes"/>
			<point x="328" y="16"/>
			<point x="419" y="-14"/>
			<point x="526" y="-14" type="curve" smooth="yes"/>
			<point x="677" y="-14"/>
			<point x="760" y="103"/>
			<point x="760" y="199" type="curve" smooth="yes"/>
			<point x="760" y="355"/>
			<point x="485" y="408"/>
			<point x="485" y="483" type="curve" smooth="yes"/>
			<point x="485" y="583"/>
			<point x="701" y="523"/>
			<point x="701" y="660" type="curve" smooth="yes"/>
			<point x="701" y="735"/>
			<point x="577" y="782"/>
			<point x="444" y="782" type="curve" smooth="yes"/>
			<point x="261" y="782"/>
			<point x="92" y="704"/>
			<point x="85" y="537" type="curve" smooth="yes"/>
			<point x="63" y="23" type="line" smooth="yes"/>
			<point x="63" y="15"/>
			<point x="61" y="-81"/>
			<point x="59" y="-104" type="curve" smooth="yes"/>
			<point x="56" y="-143"/>
			<point x="38" y="-147"/>
			<point x="1" y="-113" type="curve" smooth="yes"/>
			<point x="-45" y="-71" type="line"/>
			<point x="-80" y="-100"/>
			<point x="-99" y="-128"/>
			<point x="-99" y="-156" type="curve" smooth="yes"/>
			<point x="-99" y="-201"/>
			<point x="-64" y="-229"/>
			<point x="-9" y="-229" type="curve" smooth="yes"/>
			<point x="52" y="-229"/>
			<point x="106" y="-170"/>
			<point x="125" y="-146" type="curve" smooth="yes"/>
			<point x="226" y="-18"/>
			<point x="278" y="90"/>
			<point x="282" y="170" type="curve" smooth="yes"/>
			<point x="305" y="594" type="line" smooth="yes"/>
			<point x="310" y="683"/>
			<point x="329" y="755"/>
			<point x="442" y="755" type="curve" smooth="yes"/>
			<point x="496" y="755"/>
			<point x="539" y="732"/>
			<point x="539" y="658" type="curve" smooth="yes"/>
			<point x="539" y="516"/>
			<point x="365" y="519"/>
			<point x="365" y="372" type="curve" smooth="yes"/>
			<point x="365" y="215"/>
			<point x="618" y="209"/>
			<point x="618" y="93" type="curve" smooth="yes"/>
			<point x="618" y="36"/>
			<point x="579" y="11"/>
		</contour>
	</outline>
</glyph>
<glyph name="ae" format="2">
	<unicode hex="00E6"/>
	<advance width="929"/>
	<outline>
		<contour>
			<point x="728" y="537" type="curve" smooth="yes"/>
			<point x="655" y="537"/>
			<point x="590" y="513"/>
			<point x="557" y="462" type="curve"/>
			<point x="570" y="545" type="line"/>
			<point x="553" y="559" type="line"/>
			<point x="438" y="516" type="line"/>
			<point x="399" y="530"/>
			<point x="354" y="537"/>
			<point x="316" y="537" type="curve" smooth="yes"/>
			<point x="152" y="537"/>
			<point x="35" y="416"/>
			<point x="35" y="206" type="curve" smooth="yes"/>
			<point x="35" y="62"/>
			<point x="100" y="-14"/>
			<point x="209" y="-14" type="curve" smooth="yes"/>
			<point x="301" y="-14"/>
			<point x="350" y="64"/>
			<point x="388" y="166" type="curve"/>
			<point x="409" y="57"/>
			<point x="506" y="-14"/>
			<point x="640" y="-14" type="curve" smooth="yes"/>
			<point x="685" y="-14"/>
			<point x="804" y="-6"/>
			<point x="870" y="122" type="curve"/>
			<point x="858" y="130" type="line"/>
			<point x="795" y="35"/>
			<point x="747" y="23"/>
			<point x="714" y="23" type="curve" smooth="yes"/>
			<point x="623" y="23"/>
			<point x="608" y="131"/>
			<point x="604" y="239" type="curve"/>
			<point x="662" y="250" type="line" smooth="yes"/>
			<point x="779" y="272"/>
			<point x="904" y="281"/>
			<point x="904" y="408" type="curve" smooth="yes"/>
			<point x="904" y="494"/>
			<point x="823" y="537"/>
		</contour>
		<contour>
			<point x="301" y="94" type="curve" smooth="yes"/>
			<point x="265" y="94"/>
			<point x="256" y="117"/>
			<point x="256" y="171" type="curve" smooth="yes"/>
			<point x="256" y="403"/>
			<point x="287" y="508"/>
			<point x="360" y="508" type="curve" smooth="yes"/>
			<point x="395" y="508"/>
			<point x="420" y="495"/>
			<point x="454" y="476" type="curve"/>
			<point x="395" y="272" type="line" smooth="yes"/>
			<point x="361" y="155"/>
			<point x="337" y="94"/>
		</contour>
		<contour>
			<point x="729" y="410" type="curve" smooth="yes"/>
			<point x="729" y="331"/>
			<point x="717" y="281"/>
			<point x="654" y="268" type="curve" smooth="yes"/>
			<point x="604" y="258" type="line"/>
			<point x="604" y="377"/>
			<point x="621" y="515"/>
			<point x="685" y="515" type="curve" smooth="yes"/>
			<point x="727" y="515"/>
			<point x="729" y="463"/>
		</contour>
	</outline>
	<anchor name="top" x="518" y="550"/>
</glyph>
<glyph name="eth" format="2">
	<unicode hex="00F0"/>
	<advance width="658"/>
	<outline>
		<contour>
			<point x="321" y="-14" type="curve" smooth="yes"/>
			<point x="486" y="-14"/>
			<point x="617" y="109"/>
			<point x="617" y="356" type="curve" smooth="yes"/>
			<point x="617" y="536"/>
			<point x="522" y="648"/>
			<point x="440" y="702" type="curve"/>
			<point x="525" y="751" type="line"/>
			<point x="512" y="772" type="line"/>
			<point x="415" y="716" type="line"/>
			<point x="352" y="751"/>
			<point x="284" y="767"/>
			<point x="179" y="771" type="curve"/>
			<point x="173" y="746" type="line"/>
			<point x="269" y="725"/>
			<point x="299" y="712"/>
			<point x="343" y="676" type="curve"/>
			<point x="250" y="627" type="line"/>
			<point x="264" y="605" type="line"/>
			<point x="362" y="657" type="line"/>
			<point x="404" y="610"/>
			<point x="433" y="525"/>
			<point x="444" y="464" type="curve"/>
			<point x="437" y="460" type="line"/>
			<point x="413" y="505"/>
			<point x="375" y="537"/>
			<point x="305" y="537" type="curve" smooth="yes"/>
			<point x="227" y="537"/>
			<point x="34" y="494"/>
			<point x="34" y="259" type="curve" smooth="yes"/>
			<point x="34" y="66"/>
			<point x="149" y="-14"/>
		</contour>
		<contour>
			<point x="316" y="8" type="curve" smooth="yes"/>
			<point x="260" y="8"/>
			<point x="259" y="80"/>
			<point x="259" y="266" type="curve" smooth="yes"/>
			<point x="259" y="463"/>
			<point x="279" y="519"/>
			<point x="327" y="519" type="curve" smooth="yes"/>
			<point x="394" y="519"/>
			<point x="389" y="388"/>
			<point x="388" y="280" type="curve" smooth="yes"/>
			<point x="386" y="71"/>
			<point x="379" y="8"/>
		</contour>
	</outline>
</glyph>
<glyph name="thorn" format="2">
	<unicode hex="00FE"/>
	<advance width="659"/>
	<outline>
		<contour>
			<point x="49" y="-226" type="line"/>
			<point x="343" y="-216" type="line"/>
			<point x="345" y="-197" type="line"/>
			<point x="242" y="-179" type="line"/>
			<point x="261" y="7" type="line"/>
			<point x="285" y="-7"/>
			<point x="330" y="-14"/>
			<point x="354" y="-14" type="curve" smooth="yes"/>
			<point x="540" y="-14"/>
			<point x="629" y="152"/>
			<point x="629" y="317" type="curve" smooth="yes"/>
			<point x="629" y="443"/>
			<point x="569" y="537"/>
			<point x="459" y="537" type="curve" smooth="yes"/>
			<point x="322" y="537"/>
			<point x="307" y="417"/>
			<point x="268" y="281" type="curve" smooth="yes"/>
			<point x="233" y="158" type="line"/>
			<point x="223" y="161" type="line"/>
			<point x="281" y="445" type="line"/>
			<point x="292" y="756" type="line"/>
			<point x="280" y="767" type="line"/>
			<point x="5" y="767" type="line"/>
			<point x="2" y="751" type="line"/>
			<point x="95" y="728" type="line"/>
			<point x="67" y="54" type="line"/>
			<point x="41" y="-215" type="line"/>
		</contour>
		<contour>
			<point x="371" y="429" type="curve" smooth="yes"/>
			<point x="401" y="429"/>
			<point x="407" y="404"/>
			<point x="407" y="336" type="curve" smooth="yes"/>
			<point x="407" y="158"/>
			<point x="372" y="12"/>
			<point x="311" y="12" type="curve" smooth="yes"/>
			<point x="289" y="12"/>
			<point x="258" y="24"/>
			<point x="226" y="43" type="curve"/>
			<point x="287" y="262" type="line" smooth="yes"/>
			<point x="329" y="413"/>
			<point x="340" y="429"/>
		</contour>
	</outline>
</glyph>
<glyph name="Aogonek" format="2">
	<unicode hex="0104"/>
	<advance width="775"/>
	<outline>
		<contour>
			<point x="554" y="-249" type="curve" smooth="yes"/>
			<point x="613" y="-249"/>
			<point x="674" y="-217"/>
			<point x="705" y="-135" type="curve"/>
			<point x="695" y="-130" type="line"/>
			<point x="675" y="-155"/>
			<point x="653" y="-163"/>
			<point x="634" y="-163" type="curve" smooth="yes"/>
			<point x="615" y="-163"/>
			<point x="599" y="-151"/>
			<point x="599" y="-124" type="curve" smooth="yes"/>
			<point x="599" y="-96"/>
			<point x="611" y="-64"/>
			<point x="670" y="0" type="curve"/>
			<point x="759" y="0" type="line"/>
			<point x="761" y="18" type="line"/>
			<point x="678" y="28" type="line"/>
			<point x="505" y="749" type="line"/>
			<point x="303" y="717" type="line"/>
			<point x="72" y="27" type="line"/>
			<point x="-2" y="18" type="line"/>
			<point x="-4" y="0" type="line"/>
			<point x="197" y="0" type="line"/>
			<point x="200" y="18" type="line"/>
			<point x="100" y="27" type="line"/>
			<point x="178" y="262" type="line"/>
			<point x="399" y="262" type="line"/>
			<point x="451" y="27" type="line"/>
			<point x="365" y="18" type="line"/>
			<point x="363" y="0" type="line"/>
			<point x="633" y="0" type="line"/>
			<point x="484" y="-72"/>
			<point x="454" y="-125"/>
			<point x="454" y="-168" type="curve" smooth="yes"/>
			<point x="454" y="-224"/>
			<point x="492" y="-249"/>
		</contour>
		<contour>
			<point x="187" y="286" type="line"/>
			<point x="312" y="676" type="line"/>
			<point x="316" y="676" type="line"/>
			<point x="393" y="286" type="line"/>
		</contour>
	</outline>
</glyph>
<glyph name="aogonek" format="2">
	<unicode hex="0105"/>
	<advance width="656"/>
	<outline>
		<contour>
			<point x="209" y="-14" type="curve" smooth="yes"/>
			<point x="341" y="-14"/>
			<point x="353" y="91"/>
			<point x="381" y="188" type="curve" smooth="yes"/>
			<point x="432" y="365" type="line"/>
			<point x="442" y="363" type="line"/>
			<point x="388" y="119" type="line" smooth="yes"/>
			<point x="366" y="22"/>
			<point x="430" y="-27"/>
			<point x="534" y="-11" type="curve"/>
			<point x="403" y="-78"/>
			<point x="376" y="-127"/>
			<point x="376" y="-168" type="curve" smooth="yes"/>
			<point x="376" y="-224"/>
			<point x="414" y="-249"/>
			<point x="476" y="-249" type="curve" smooth="yes"/>
			<point x="535" y="-249"/>
			<point x="596" y="-217"/>
			<point x="627" y="-135" type="curve"/>
			<point x="617" y="-130" type="line"/>
			<point x="597" y="-155"/>
			<point x="575" y="-163"/>
			<point x="556" y="-163" type="curve" smooth="yes"/>
			<point x="537" y="-163"/>
			<point x="521" y="-151"/>
			<point x="521" y="-124" type="curve" smooth="yes"/>
			<point x="521" y="-58"/>
			<point x="596" y="0"/>
			<point x="679" y="65" type="curve"/>
			<point x="667" y="79" type="line"/>
			<point x="652" y="67"/>
			<point x="625" y="46"/>
			<point x="600" y="46" type="curve" smooth="yes"/>
			<point x="573" y="46"/>
			<point x="571" y="65"/>
			<point x="572" y="94" type="curve" smooth="yes"/>
			<point x="585" y="534" type="line"/>
			<point x="571" y="545" type="line"/>
			<point x="428" y="510" type="line"/>
			<point x="395" y="522"/>
			<point x="358" y="537"/>
			<point x="310" y="537" type="curve" smooth="yes"/>
			<point x="126" y="537"/>
			<point x="35" y="381"/>
			<point x="35" y="206" type="curve" smooth="yes"/>
			<point x="35" y="80"/>
			<point x="87" y="-14"/>
		</contour>
		<contour>
			<point x="293" y="94" type="curve" smooth="yes"/>
			<point x="262" y="94"/>
			<point x="253" y="125"/>
			<point x="257" y="199" type="curve" smooth="yes"/>
			<point x="267" y="404"/>
			<point x="290" y="511"/>
			<point x="353" y="511" type="curve" smooth="yes"/>
			<point x="375" y="511"/>
			<point x="407" y="499"/>
			<point x="439" y="481" type="curve"/>
			<point x="373" y="242" type="line" smooth="yes"/>
			<point x="340" y="122"/>
			<point x="330" y="94"/>
		</contour>
	</outline>
</glyph>
<glyph name="eogonek" format="2">
	<unicode hex="0119"/>
	<advance width="583"/>
	<outline>
		<contour>
			<point x="33" y="223" type="curve" smooth="yes"/>
			<point x="33" y="73"/>
			<point x="120" y="-14"/>
			<point x="294" y="-14" type="curve" smooth="yes"/>
			<point x="325" y="-14"/>
			<point x="361" y="-9"/>
			<point x="385" y="-1" type="curve"/>
			<point x="240" y="-84"/>
			<point x="216" y="-127"/>
			<point x="216" y="-168" type="curve" smooth="yes"/>
			<point x="216" y="-223"/>
			<point x="255" y="-249"/>
			<point x="316" y="-249" type="curve" smooth="yes"/>
			<point x="375" y="-249"/>
			<point x="436" y="-217"/>
			<point x="467" y="-135" type="curve"/>
			<point x="457" y="-130" type="line"/>
			<point x="437" y="-155"/>
			<point x="415" y="-163"/>
			<point x="396" y="-163" type="curve" smooth="yes"/>
			<point x="377" y="-163"/>
			<point x="361" y="-151"/>
			<point x="361" y="-124" type="curve" smooth="yes"/>
			<point x="361" y="-96"/>
			<point x="368" y="-32"/>
			<point x="439" y="24" type="curve" smooth="yes"/>
			<point x="494" y="67"/>
			<point x="515" y="106"/>
			<point x="524" y="122" type="curve"/>
			<point x="512" y="130" type="line"/>
			<point x="479" y="80"/>
			<point x="427" y="23"/>
			<point x="368" y="23" type="curve" smooth="yes"/>
			<point x="298" y="23"/>
			<point x="264" y="79"/>
			<point x="258" y="239" type="curve"/>
			<point x="345" y="254" type="line" smooth="yes"/>
			<point x="415" y="266"/>
			<point x="558" y="280"/>
			<point x="558" y="400" type="curve" smooth="yes"/>
			<point x="558" y="482"/>
			<point x="501" y="537"/>
			<point x="358" y="537" type="curve" smooth="yes"/>
			<point x="155" y="537"/>
			<point x="33" y="408"/>
		</contour>
		<contour>
			<point x="258" y="258" type="line"/>
			<point x="264" y="414"/>
			<point x="278" y="519"/>
			<point x="339" y="519" type="curve" smooth="yes"/>
			<point x="378" y="519"/>
			<point x="384" y="473"/>
			<point x="384" y="417" type="curve" smooth="yes"/>
			<point x="384" y="315"/>
			<point x="367" y="281"/>
			<point x="305" y="268" type="curve" smooth="yes"/>
		</contour>
	</outline>
</glyph>
<glyph name="Iogonek" format="2">
	<unicode hex="012E"/>
	<advance width="431"/>
	<outline>
		<contour>
			<point x="10" y="0" type="line"/>
			<point x="245" y="0" type="line"/>
			<point x="96" y="-72"/>
			<point x="66" y="-125"/>
			<point x="66" y="-168" type="curve" smooth="yes"/>
			<point x="66" y="-224"/>
			<point x="104" y="-249"/>
			<point x="166" y="-249" type="curve" smooth="yes"/>
			<point x="225" y="-249"/>
			<point x="286" y="-217"/>
			<point x="317" y="-135" type="curve"/>
			<point x="307" y="-130" type="line"/>
			<point x="287" y="-155"/>
			<point x="265" y="-163"/>
			<point x="246" y="-163" type="curve" smooth="yes"/>
			<point x="227" y="-163"/>
			<point x="211" y="-151"/>
			<point x="211" y="-124" type="curve" smooth="yes"/>
			<point x="211" y="-96"/>
			<point x="223" y="-64"/>
			<point x="282" y="0" type="curve"/>
			<point x="404" y="0" type="line"/>
			<point x="406" y="18" type="line"/>
			<point x="320" y="28" type="line"/>
			<point x="345" y="700" type="line"/>
			<point x="418" y="712" type="line"/>
			<point x="421" y="730" type="line"/>
			<point x="51" y="730" type="line"/>
			<point x="47" y="712" type="line"/>
			<point x="121" y="697" type="line"/>
			<point x="93" y="27" type="line"/>
			<point x="12" y="18" type="line"/>
		</contour>
	</outline>
</glyph>
<glyph name="iogonek" format="2">
	<unicode hex="012F"/>
	<advance width="370"/>
	<outline>
		<contour>
			<point x="72" y="133" type="line" smooth="yes"/>
			<point x="61" y="-7"/>
			<point x="146" y="-17"/>
			<point x="266" y="7" type="curve"/>
			<point x="167" y="-59"/>
			<point x="93" y="-113"/>
			<point x="93" y="-168" type="curve" smooth="yes"/>
			<point x="93" y="-224"/>
			<point x="131" y="-249"/>
			<point x="193" y="-249" type="curve" smooth="yes"/>
			<point x="252" y="-249"/>
			<point x="313" y="-217"/>
			<point x="344" y="-135" type="curve"/>
			<point x="334" y="-130" type="line"/>
			<point x="314" y="-155"/>
			<point x="292" y="-163"/>
			<point x="273" y="-163" type="curve" smooth="yes"/>
			<point x="254" y="-163"/>
			<point x="238" y="-151"/>
			<point x="238" y="-124" type="curve" smooth="yes"/>
			<point x="238" y="-85"/>
			<point x="257" y="-21"/>
			<point x="322" y="24" type="curve" smooth="yes"/>
			<point x="349" y="43"/>
			<point x="368" y="59"/>
			<point x="378" y="68" type="curve"/>
			<point x="367" y="84" type="line"/>
			<point x="350" y="70"/>
			<point x="326" y="56"/>
			<point x="304" y="56" type="curve" smooth="yes"/>
			<point x="281" y="56"/>
			<point x="280" y="70"/>
			<point x="283" y="112" type="curve" smooth="yes"/>
			<point x="302" y="395" type="line" smooth="yes"/>
			<point x="308" y="477"/>
			<point x="273" y="537"/>
			<point x="177" y="537" type="curve" smooth="yes"/>
			<point x="107" y="537"/>
			<point x="39" y="513"/>
			<point x="3" y="497" type="curve"/>
			<point x="10" y="477" type="line"/>
			<point x="36" y="488"/>
			<point x="63" y="494"/>
			<point x="75" y="494" type="curve" smooth="yes"/>
			<point x="97" y="494"/>
			<point x="101" y="481"/>
			<point x="99" y="457" type="curve" smooth="yes"/>
		</contour>
		<contour>
			<point x="73" y="701" type="curve" smooth="yes"/>
			<point x="73" y="643"/>
			<point x="120" y="597"/>
			<point x="199" y="597" type="curve" smooth="yes"/>
			<point x="269" y="597"/>
			<point x="320" y="636"/>
			<point x="320" y="698" type="curve" smooth="yes"/>
			<point x="320" y="754"/>
			<point x="266" y="801"/>
			<point x="197" y="801" type="curve" smooth="yes"/>
			<point x="120" y="801"/>
			<point x="73" y="757"/>
		</contour>
	</outline>
</glyph>
<glyph name="kgreenlandic" format="2">
	<unicode hex="0138"/>
	<advance width="647"/>
	<outline>
		<contour>
			<point x="60" y="0" type="line"/>
			<point x="258" y="0" type="line"/>
			<point x="269" y="258" type="line"/>
			<point x="274" y="259"/>
			<point x="278" y="260"/>
			<point x="279" y="260" type="curve"/>
			<point x="352" y="82" type="line" smooth="yes"/>
			<point x="377" y="21"/>
			<point x="413" y="-14"/>
			<point x="486" y="-14" type="curve" smooth="yes"/>
			<point x="563" y="-14"/>
			<point x="642" y="48"/>
			<point x="660" y="69" type="curve"/>
			<point x="653" y="79" type="line"/>
			<point x="635" y="69"/>
			<point x="619" y="65"/>
			<point x="599" y="65" type="curve" smooth="yes"/>
			<point x="578" y="65"/>
			<point x="559" y="76"/>
			<point x="537" y="122" type="curve" smooth="yes"/>
			<point x="445" y="316" type="line"/>
			<point x="484" y="336"/>
			<point x="509" y="350"/>
			<point x="533" y="366" type="curve" smooth="yes"/>
			<point x="577" y="395"/>
			<point x="595" y="429"/>
			<point x="595" y="462" type="curve" smooth="yes"/>
			<point x="595" y="496"/>
			<point x="569" y="537"/>
			<point x="512" y="537" type="curve" smooth="yes"/>
			<point x="446" y="537"/>
			<point x="418" y="497"/>
			<point x="409" y="446" type="curve"/>
			<point x="444" y="422" type="line" smooth="yes"/>
			<point x="478" y="399"/>
			<point x="465" y="374"/>
			<point x="423" y="351" type="curve" smooth="yes"/>
			<point x="370" y="321"/>
			<point x="331" y="307"/>
			<point x="270" y="294" type="curve"/>
			<point x="276" y="424" type="line" smooth="yes"/>
			<point x="280" y="507"/>
			<point x="251" y="537"/>
			<point x="150" y="537" type="curve" smooth="yes"/>
			<point x="100" y="537"/>
			<point x="30" y="516"/>
			<point x="-4" y="502" type="curve"/>
			<point x="4" y="481" type="line"/>
			<point x="28" y="489"/>
			<point x="43" y="493"/>
			<point x="59" y="493" type="curve" smooth="yes"/>
			<point x="77" y="493"/>
			<point x="82" y="474"/>
			<point x="80" y="438" type="curve" smooth="yes"/>
		</contour>
	</outline>
</glyph>
<glyph name="Eng" format="2">
	<unicode hex="014A"/>
	<advance width="695"/>
	<outline>
		<contour>
			<point x="10" y="0" type="line"/>
			<point x="225" y="0" type="line"/>
			<point x="227" y="18" type="line"/>
			<point x="121" y="28" type="line"/>
			<point x="143" y="561" type="line"/>
			<point x="392" y="84" type="line"/>
			<point x="384" y="-119"/>
			<point x="366" y="-159"/>
			<point x="317" y="-217" type="curve"/>
			<point x="327" y="-229" type="line"/>
			<point x="524" y="-123"/>
			<point x="597" y="-30"/>
			<point x="603" y="117" type="curve" smooth="yes"/>
			<point x="624" y="700" type="line"/>
			<point x="697" y="712" type="line"/>
			<point x="700" y="730" type="line"/>
			<point x="529" y="730" type="line"/>
			<point x="525" y="712" type="line"/>
			<point x="596" y="700" type="line"/>
			<point x="577" y="187" type="line"/>
			<point x="291" y="730" type="line"/>
			<point x="51" y="730" type="line"/>
			<point x="47" y="712" type="line"/>
			<point x="121" y="697" type="line"/>
			<point x="93" y="27" type="line"/>
			<point x="12" y="18" type="line"/>
		</contour>
	</outline>
</glyph>
<glyph name="OE" format="2">
	<unicode hex="0152"/>
	<advance width="1041"/>
	<outline>
		<contour>
			<point x="45" y="339" type="curve" smooth="yes"/>
			<point x="42" y="125"/>
			<point x="142" y="-14"/>
			<point x="373" y="-14" type="curve" smooth="yes"/>
			<point x="412" y="-14"/>
			<point x="448" y="-9"/>
			<point x="483" y="0" type="curve"/>
			<point x="972" y="0" type="line"/>
			<point x="1003" y="185" type="line"/>
			<point x="982" y="186" type="line"/>
			<point x="957" y="110" type="line" smooth="yes"/>
			<point x="937" y="48"/>
			<point x="897" y="23"/>
			<point x="822" y="23" type="curve" smooth="yes"/>
			<point x="547" y="23" type="line"/>
			<point x="693" y="100"/>
			<point x="752" y="246"/>
			<point x="756" y="362" type="curve"/>
			<point x="938" y="362" type="line"/>
			<point x="940" y="386" type="line"/>
			<point x="757" y="386" type="line"/>
			<point x="757" y="526"/>
			<point x="715" y="636"/>
			<point x="601" y="707" type="curve"/>
			<point x="844" y="707" type="line" smooth="yes"/>
			<point x="922" y="707"/>
			<point x="946" y="678"/>
			<point x="966" y="602" type="curve" smooth="yes"/>
			<point x="983" y="537" type="line"/>
			<point x="1004" y="538" type="line"/>
			<point x="984" y="730" type="line"/>
			<point x="547" y="730" type="line"/>
			<point x="511" y="740"/>
			<point x="471" y="745"/>
			<point x="428" y="745" type="curve" smooth="yes"/>
			<point x="203" y="745"/>
			<point x="49" y="594"/>
		</contour>
		<contour>
			<point x="280" y="372" type="curve" smooth="yes"/>
			<point x="285" y="610"/>
			<point x="305" y="729"/>
			<point x="409" y="729" type="curve" smooth="yes"/>
			<point x="500" y="729"/>
			<point x="531" y="603"/>
			<point x="525" y="378" type="curve" smooth="yes"/>
			<point x="518" y="127"/>
			<point x="499" y="4"/>
			<point x="391" y="4" type="curve" smooth="yes"/>
			<point x="308" y="4"/>
			<point x="275" y="145"/>
		</contour>
	</outline>
</glyph>
<glyph name="oe" format="2">
	<unicode hex="0153"/>
	<advance width="933"/>
	<outline>
		<contour>
			<point x="720" y="537" type="curve" smooth="yes"/>
			<point x="627" y="537"/>
			<point x="558" y="501"/>
			<point x="497" y="434" type="curve"/>
			<point x="473" y="482"/>
			<point x="420" y="537"/>
			<point x="317" y="537" type="curve" smooth="yes"/>
			<point x="130" y="537"/>
			<point x="34" y="407"/>
			<point x="34" y="250" type="curve" smooth="yes"/>
			<point x="34" y="67"/>
			<point x="137" y="-14"/>
			<point x="297" y="-14" type="curve" smooth="yes"/>
			<point x="395" y="-14"/>
			<point x="444" y="28"/>
			<point x="478" y="77" type="curve"/>
			<point x="513" y="17"/>
			<point x="594" y="-14"/>
			<point x="663" y="-14" type="curve" smooth="yes"/>
			<point x="779" y="-14"/>
			<point x="849" y="76"/>
			<point x="874" y="122" type="curve"/>
			<point x="862" y="130" type="line"/>
			<point x="824" y="77"/>
			<point x="779" y="23"/>
			<point x="718" y="23" type="curve" smooth="yes"/>
			<point x="630" y="23"/>
			<point x="613" y="132"/>
			<point x="607" y="239" type="curve"/>
			<point x="663" y="249" type="line" smooth="yes"/>
			<point x="793" y="272"/>
			<point x="905" y="282"/>
			<point x="908" y="405" type="curve" smooth="yes"/>
			<point x="910" y="482"/>
			<point x="845" y="537"/>
		</contour>
		<contour>
			<point x="317" y="8" type="curve" smooth="yes"/>
			<point x="260" y="8"/>
			<point x="259" y="90"/>
			<point x="261" y="246" type="curve" smooth="yes"/>
			<point x="264" y="413"/>
			<point x="267" y="519"/>
			<point x="333" y="519" type="curve" smooth="yes"/>
			<point x="392" y="519"/>
			<point x="391" y="429"/>
			<point x="389" y="280" type="curve" smooth="yes"/>
			<point x="386" y="119"/>
			<point x="392" y="8"/>
		</contour>
		<contour>
			<point x="735" y="407" type="curve" smooth="yes"/>
			<point x="735" y="305"/>
			<point x="710" y="279"/>
			<point x="640" y="264" type="curve" smooth="yes"/>
			<point x="607" y="257" type="line"/>
			<point x="616" y="413"/>
			<point x="624" y="519"/>
			<point x="690" y="519" type="curve" smooth="yes"/>
			<point x="731" y="519"/>
			<point x="735" y="463"/>
		</contour>
	</outline>
</glyph>
<glyph name="tcedilla" format="2">
	<unicode hex="0163"/>
	<advance width="437"/>
	<outline>
		<contour>
			<point x="223" y="-256" type="curve" smooth="yes"/>
			<point x="318" y="-256"/>
			<point x="356" y="-204"/>
			<point x="356" y="-143" type="curve" smooth="yes"/>
			<point x="356" y="-60"/>
			<point x="258" y="-33"/>
			<point x="193" y="-59" type="curve"/>
			<point x="215" y="-12" type="line"/>
			<point x="326" y="-22"/>
			<point x="389" y="9"/>
			<point x="441" y="76" type="curve"/>
			<point x="421" y="93" type="line"/>
			<point x="382" y="49"/>
			<point x="350" y="26"/>
			<point x="320" y="26" type="curve" smooth="yes"/>
			<point x="284" y="26"/>
			<point x="280" y="53"/>
			<point x="283" y="108" type="curve" smooth="yes"/>
			<point x="304" y="498" type="line"/>
			<point x="415" y="498" type="line"/>
			<point x="416" y="523" type="line"/>
			<point x="304" y="523" type="line"/>
			<point x="312" y="653" type="line"/>
			<point x="213" y="653" type="line"/>
			<point x="102" y="524" type="line"/>
			<point x="27" y="518" type="line"/>
			<point x="23" y="498" type="line"/>
			<point x="97" y="498" type="line"/>
			<point x="77" y="144" type="line" smooth="yes"/>
			<point x="72" y="63"/>
			<point x="111" y="9"/>
			<point x="188" y="-8" type="curve"/>
			<point x="153" y="-82" type="line"/>
			<point x="162" y="-95" type="line"/>
			<point x="190" y="-87"/>
			<point x="228" y="-95"/>
			<point x="228" y="-139" type="curve" smooth="yes"/>
			<point x="228" y="-184"/>
			<point x="200" y="-195"/>
			<point x="169" y="-195" type="curve" smooth="yes"/>
			<point x="144" y="-195"/>
			<point x="116" y="-190"/>
			<point x="83" y="-176" type="curve"/>
			<point x="75" y="-190" type="line"/>
			<point x="118" y="-230"/>
			<point x="159" y="-256"/>
		</contour>
	</outline>
</glyph>
<glyph name="Uogonek" format="2">
	<unicode hex="0172"/>
	<advance width="822"/>
	<outline>
		<contour>
			<point x="605" y="-249" type="curve" smooth="yes"/>
			<point x="664" y="-249"/>
			<point x="725" y="-217"/>
			<point x="756" y="-135" type="curve"/>
			<point x="746" y="-130" type="line"/>
			<point x="726" y="-155"/>
			<point x="704" y="-163"/>
			<point x="685" y="-163" type="curve" smooth="yes"/>
			<point x="666" y="-163"/>
			<point x="650" y="-151"/>
			<point x="650" y="-124" type="curve" smooth="yes"/>
			<point x="650" y="-96"/>
			<point x="662" y="-64"/>
			<point x="721" y="0" type="curve"/>
			<point x="787" y="0" type="line"/>
			<point x="789" y="18" type="line"/>
			<point x="703" y="28" type="line"/>
			<point x="746" y="700" type="line"/>
			<point x="819" y="712" type="line"/>
			<point x="822" y="730" type="line"/>
			<point x="458" y="730" type="line"/>
			<point x="454" y="712" type="line"/>
			<point x="529" y="700" type="line"/>
			<point x="514" y="558" type="line" smooth="yes"/>
			<point x="474" y="182"/>
			<point x="415" y="61"/>
			<point x="342" y="61" type="curve" smooth="yes"/>
			<point x="301" y="61"/>
			<point x="289" y="84"/>
			<point x="295" y="202" type="curve" smooth="yes"/>
			<point x="322" y="697" type="line"/>
			<point x="394" y="712" type="line"/>
			<point x="397" y="730" type="line"/>
			<point x="35" y="730" type="line"/>
			<point x="31" y="712" type="line"/>
			<point x="105" y="697" type="line"/>
			<point x="82" y="232" type="line" smooth="yes"/>
			<point x="74" y="70"/>
			<point x="115" y="-14"/>
			<point x="243" y="-14" type="curve" smooth="yes"/>
			<point x="431" y="-14"/>
			<point x="471" y="157"/>
			<point x="514" y="403" type="curve"/>
			<point x="519" y="403" type="line"/>
			<point x="490" y="12" type="line"/>
			<point x="497" y="0" type="line"/>
			<point x="684" y="0" type="line"/>
			<point x="535" y="-72"/>
			<point x="505" y="-125"/>
			<point x="505" y="-168" type="curve" smooth="yes"/>
			<point x="505" y="-224"/>
			<point x="543" y="-249"/>
		</contour>
	</outline>
</glyph>
<glyph name="florin" format="2">
	<unicode hex="0192"/>
	<advance width="747"/>
	<outline>
		<contour>
			<point x="133" y="-179" type="curve" smooth="yes"/>
			<point x="77" y="-179"/>
			<point x="55" y="-120"/>
			<point x="86" y="-56" type="curve" smooth="yes"/>
			<point x="112" y="-3" type="line"/>
			<point x="90" y="18"/>
			<point x="65" y="39"/>
			<point x="24" y="39" type="curve" smooth="yes"/>
			<point x="-31" y="39"/>
			<point x="-62" y="12"/>
			<point x="-62" y="-41" type="curve" smooth="yes"/>
			<point x="-62" y="-149"/>
			<point x="56" y="-193"/>
			<point x="133" y="-193" type="curve" smooth="yes"/>
			<point x="301" y="-193"/>
			<point x="398" y="-58"/>
			<point x="414" y="47" type="curve" smooth="yes"/>
			<point x="472" y="434" type="line"/>
			<point x="579" y="434" type="line"/>
			<point x="580" y="459" type="line"/>
			<point x="475" y="459" type="line"/>
			<point x="483" y="537" type="line" smooth="yes"/>
			<point x="493" y="637"/>
			<point x="503" y="704"/>
			<point x="563" y="704" type="curve" smooth="yes"/>
			<point x="619" y="704"/>
			<point x="627" y="657"/>
			<point x="601" y="591" type="curve" smooth="yes"/>
			<point x="584" y="548" type="line"/>
			<point x="606" y="527"/>
			<point x="639" y="505"/>
			<point x="680" y="505" type="curve" smooth="yes"/>
			<point x="733" y="505"/>
			<point x="758" y="542"/>
			<point x="758" y="579" type="curve" smooth="yes"/>
			<point x="758" y="667"/>
			<point x="665" y="718"/>
			<point x="563" y="718" type="curve" smooth="yes"/>
			<point x="344" y="718"/>
			<point x="281" y="588"/>
			<point x="263" y="482" type="curve" smooth="yes"/>
			<point x="259" y="458" type="line"/>
			<point x="188" y="455" type="line"/>
			<point x="184" y="434" type="line"/>
			<point x="257" y="434" type="line"/>
			<point x="213" y="-12" type="line" smooth="yes"/>
			<point x="203" y="-112"/>
			<point x="193" y="-179"/>
		</contour>
	</outline>
</glyph>
<glyph name="ohorn" format="2">
	<unicode hex="01A1"/>
	<advance width="770"/>
	<outline>
		<contour>
			<point x="302" y="-14" type="curve" smooth="yes"/>
			<point x="531" y="-14"/>
			<point x="610" y="131"/>
			<point x="610" y="283" type="curve" smooth="yes"/>
			<point x="610" y="316"/>
			<point x="606" y="346"/>
			<point x="599" y="373" type="curve"/>
			<point x="727" y="418"/>
			<point x="781" y="490"/>
			<point x="781" y="578" type="curve" smooth="yes"/>
			<point x="781" y="631"/>
			<point x="739" y="683"/>
			<point x="676" y="683" type="curve" smooth="yes"/>
			<point x="610" y="683"/>
			<point x="581" y="647"/>
			<point x="581" y="598" type="curve" smooth="yes"/>
			<point x="581" y="583"/>
			<point x="586" y="562"/>
			<point x="596" y="547" type="curve"/>
			<point x="653" y="531" type="line" smooth="yes"/>
			<point x="678" y="524"/>
			<point x="684" y="513"/>
			<point x="684" y="493" type="curve" smooth="yes"/>
			<point x="684" y="469"/>
			<point x="661" y="428"/>
			<point x="591" y="396" type="curve"/>
			<point x="558" y="486"/>
			<point x="476" y="537"/>
			<point x="346" y="537" type="curve" smooth="yes"/>
			<point x="121" y="537"/>
			<point x="34" y="401"/>
			<point x="34" y="241" type="curve" smooth="yes"/>
			<point x="34" y="90"/>
			<point x="116" y="-14"/>
		</contour>
		<contour>
			<point x="317" y="8" type="curve" smooth="yes"/>
			<point x="267" y="8"/>
			<point x="261" y="70"/>
			<point x="261" y="235" type="curve" smooth="yes"/>
			<point x="261" y="481"/>
			<point x="290" y="519"/>
			<point x="333" y="519" type="curve" smooth="yes"/>
			<point x="387" y="519"/>
			<point x="389" y="451"/>
			<point x="389" y="281" type="curve" smooth="yes"/>
			<point x="389" y="109"/>
			<point x="386" y="8"/>
		</contour>
	</outline>
</glyph>
<glyph name="uhorn" format="2">
	<unicode hex="01B0"/>
	<advance width="830"/>
	<outline>
		<contour>
			<point x="202" y="-17" type="curve" smooth="yes"/>
			<point x="304" y="-17"/>
			<point x="333" y="41"/>
			<point x="363" y="147" type="curve" smooth="yes"/>
			<point x="419" y="344" type="line"/>
			<point x="429" y="343" type="line"/>
			<point x="395" y="110" type="line" smooth="yes"/>
			<point x="384" y="33"/>
			<point x="432" y="-14"/>
			<point x="495" y="-14" type="curve" smooth="yes"/>
			<point x="569" y="-14"/>
			<point x="659" y="48"/>
			<point x="681" y="68" type="curve"/>
			<point x="670" y="84" type="line"/>
			<point x="646" y="65"/>
			<point x="621" y="56"/>
			<point x="607" y="56" type="curve" smooth="yes"/>
			<point x="587" y="56"/>
			<point x="583" y="68"/>
			<point x="584" y="89" type="curve" smooth="yes"/>
			<point x="598" y="355" type="line"/>
			<point x="770" y="398"/>
			<point x="840" y="477"/>
			<point x="840" y="578" type="curve" smooth="yes"/>
			<point x="840" y="631"/>
			<point x="798" y="683"/>
			<point x="735" y="683" type="curve" smooth="yes"/>
			<point x="669" y="683"/>
			<point x="640" y="647"/>
			<point x="640" y="598" type="curve" smooth="yes"/>
			<point x="640" y="583"/>
			<point x="645" y="562"/>
			<point x="655" y="547" type="curve"/>
			<point x="712" y="531" type="line" smooth="yes"/>
			<point x="737" y="524"/>
			<point x="743" y="513"/>
			<point x="743" y="493" type="curve" smooth="yes"/>
			<point x="743" y="464"/>
			<point x="709" y="410"/>
			<point x="599" y="377" type="curve"/>
			<point x="607" y="523" type="line"/>
			<point x="437" y="523" type="line"/>
			<point x="336" y="155" type="line" smooth="yes"/>
			<point x="321" y="100"/>
			<point x="311" y="83"/>
			<point x="293" y="83" type="curve" smooth="yes"/>
			<point x="277" y="83"/>
			<point x="269" y="93"/>
			<point x="273" y="131" type="curve" smooth="yes"/>
			<point x="303" y="425" type="line" smooth="yes"/>
			<point x="310" y="496"/>
			<point x="274" y="537"/>
			<point x="189" y="537" type="curve" smooth="yes"/>
			<point x="115" y="537"/>
			<point x="48" y="519"/>
			<point x="8" y="502" type="curve"/>
			<point x="16" y="481" type="line"/>
			<point x="33" y="487"/>
			<point x="49" y="494"/>
			<point x="71" y="494" type="curve" smooth="yes"/>
			<point x="94" y="494"/>
			<point x="96" y="477"/>
			<point x="93" y="451" type="curve" smooth="yes"/>
			<point x="65" y="177" type="line" smooth="yes"/>
			<point x="52" y="47"/>
			<point x="109" y="-17"/>
		</contour>
	</outline>
</glyph>
<glyph name="oogonek" format="2">
	<unicode hex="01EB"/>
	<advance width="644"/>
	<outline>
		<contour>
			<point x="316" y="-249" type="curve" smooth="yes"/>
			<point x="375" y="-249"/>
			<point x="436" y="-217"/>
			<point x="467" y="-135" type="curve"/>
			<point x="457" y="-130" type="line"/>
			<point x="437" y="-155"/>
			<point x="415" y="-163"/>
			<point x="396" y="-163" type="curve" smooth="yes"/>
			<point x="377" y="-163"/>
			<point x="361" y="-151"/>
			<point x="361" y="-124" type="curve" smooth="yes"/>
			<point x="361" y="-95"/>
			<point x="374" y="-61"/>
			<point x="439" y="8" type="curve"/>
			<point x="564" y="54"/>
			<point x="610" y="167"/>
			<point x="610" y="283" type="curve" smooth="yes"/>
			<point x="610" y="442"/>
			<point x="524" y="537"/>
			<point x="346" y="537" type="curve" smooth="yes"/>
			<point x="121" y="537"/>
			<point x="34" y="401"/>
			<point x="34" y="241" type="curve" smooth="yes"/>
			<point x="34" y="90"/>
			<point x="116" y="-14"/>
			<point x="302" y="-14" type="curve" smooth="yes"/>
			<point x="330" y="-14"/>
			<point x="356" y="-12"/>
			<point x="379" y="-8" type="curve"/>
			<point x="243" y="-76"/>
			<point x="216" y="-126"/>
			<point x="216" y="-168" type="curve" smooth="yes"/>
			<point x="216" y="-224"/>
			<point x="254" y="-249"/>
		</contour>
		<contour>
			<point x="317" y="8" type="curve" smooth="yes"/>
			<point x="267" y="8"/>
			<point x="261" y="70"/>
			<point x="261" y="235" type="curve" smooth="yes"/>
			<point x="261" y="481"/>
			<point x="290" y="519"/>
			<point x="333" y="519" type="curve" smooth="yes"/>
			<point x="387" y="519"/>
			<point x="389" y="451"/>
			<point x="389" y="281" type="curve" smooth="yes"/>
			<point x="389" y="109"/>
			<point x="386" y="8"/>
		</contour>
	</outline>
</glyph>
<glyph name="Aringacute" format="2">
	<unicode hex="01FA"/>
	<advance width="775"/>
	<outline>
		<contour>
			<point x="-4" y="0" type="line"/>
			<point x="197" y="0" type="line"/>
			<point x="200" y="18" type="line"/>
			<point x="100" y="27" type="line"/>
			<point x="178" y="262" type="line"/>
			<point x="399" y="262" type="line"/>
			<point x="451" y="27" type="line"/>
			<point x="365" y="18" type="line"/>
			<point x="363" y="0" type="line"/>
			<point x="759" y="0" type="line"/>
			<point x="761" y="18" type="line"/>
			<point x="678" y="28" type="line"/>
			<point x="506" y="745" type="line"/>
			<point x="546" y="767"/>
			<point x="566" y="802"/>
			<point x="566" y="844" type="curve" smooth="yes"/>
			<point x="566" y="911"/>
			<point x="516" y="965"/>
			<point x="411" y="965" type="curve" smooth="yes"/>
			<point x="289" y="965"/>
			<point x="240" y="906"/>
			<point x="240" y="836" type="curve" smooth="yes"/>
			<point x="240" y="791"/>
			<point x="264" y="756"/>
			<point x="309" y="737" type="curve"/>
			<point x="72" y="27" type="line"/>
			<point x="-2" y="18" type="line"/>
		</contour>
		<contour>
			<point x="187" y="286" type="line"/>
			<point x="312" y="676" type="line"/>
			<point x="316" y="676" type="line"/>
			<point x="393" y="286" type="line"/>
		</contour>
		<contour>
			<point x="399" y="739" type="curve" smooth="yes"/>
			<point x="377" y="739"/>
			<point x="361" y="757"/>
			<point x="361" y="845" type="curve" smooth="yes"/>
			<point x="361" y="928"/>
			<point x="380" y="947"/>
			<point x="404" y="947" type="curve" smooth="yes"/>
			<point x="425" y="947"/>
			<point x="444" y="932"/>
			<point x="444" y="846" type="curve" smooth="yes"/>
			<point x="444" y="757"/>
			<point x="424" y="739"/>
		</contour>
		<contour>
			<point x="300" y="984" type="line"/>
			<point x="557" y="1065" type="line"/>
			<point x="565" y="1079"/>
			<point x="568" y="1101"/>
			<point x="568" y="1115" type="curve" smooth="yes"/>
			<point x="568" y="1163"/>
			<point x="538" y="1192"/>
			<point x="507" y="1192" type="curve" smooth="yes"/>
			<point x="476" y="1192"/>
			<point x="458" y="1185"/>
			<point x="435" y="1159" type="curve" smooth="yes"/>
			<point x="293" y="994" type="line"/>
		</contour>
	</outline>
</glyph>
<glyph name="circumflex" format="2">
	<unicode hex="02C6"/>
	<advance width="500"/>
	<outline>
		<contour>
			<point x="454" y="589" type="line"/>
			<point x="334" y="790" type="line"/>
			<point x="314" y="799"/>
			<point x="296" y="806"/>
			<point x="275" y="806" type="curve" smooth="yes"/>
			<point x="253" y="806"/>
			<point x="227" y="795"/>
			<point x="209" y="768" type="curve" smooth="yes"/>
			<point x="86" y="589" type="line"/>
			<point x="95" y="580" type="line"/>
			<point x="275" y="676" type="line"/>
			<point x="443" y="578" type="line"/>
		</contour>
	</outline>
	<anchor name="_top" x="266" y="550"/>
</glyph>
<glyph name="ring" format="2">
	<unicode hex="02DA"/>
	<advance width="495"/>
	<outline>
		<contour>
			<point x="271" y="584" type="curve" smooth="yes"/>
			<point x="381" y="584"/>
			<point x="438" y="637"/>
			<point x="438" y="707" type="curve" smooth="yes"/>
			<point x="438" y="774"/>
			<point x="388" y="828"/>
			<point x="283" y="828" type="curve" smooth="yes"/>
			<point x="161" y="828"/>
			<point x="112" y="769"/>
			<point x="112" y="699" type="curve" smooth="yes"/>
			<point x="112" y="631"/>
			<point x="166" y="584"/>
		</contour>
		<contour>
			<point x="271" y="602" type="curve" smooth="yes"/>
			<point x="249" y="602"/>
			<point x="233" y="620"/>
			<point x="233" y="708" type="curve" smooth="yes"/>
			<point x="233" y="791"/>
			<point x="252" y="810"/>
			<point x="276" y="810" type="curve" smooth="yes"/>
			<point x="297" y="810"/>
			<point x="316" y="795"/>
			<point x="316" y="709" type="curve" smooth="yes"/>
			<point x="316" y="620"/>
			<point x="296" y="602"/>
		</contour>
	</outline>
	<anchor name="_top" x="266" y="550"/>
</glyph>
<glyph name="tilde" format="2">
	<unicode hex="02DC"/>
	<advance width="495"/>
	<outline>
		<contour>
			<point x="351" y="608" type="curve" smooth="yes"/>
			<point x="402" y="608"/>
			<point x="431" y="643"/>
			<point x="472" y="760" type="curve"/>
			<point x="457" y="767" type="line"/>
			<point x="432" y="733"/>
			<point x="410" y="727"/>
			<point x="392" y="727" type="curve" smooth="yes"/>
			<point x="369" y="727"/>
			<point x="336" y="738"/>
			<point x="291" y="756" type="curve" smooth="yes"/>
			<point x="232" y="780"/>
			<point x="213" y="786"/>
			<point x="183" y="786" type="curve" smooth="yes"/>
			<point x="137" y="786"/>
			<point x="114" y="750"/>
			<point x="77" y="624" type="curve"/>
			<point x="91" y="617" type="line"/>
			<point x="121" y="658"/>
			<point x="140" y="663"/>
			<point x="158" y="663" type="curve" smooth="yes"/>
			<point x="175" y="663"/>
			<point x="209" y="650"/>
			<point x="255" y="632" type="curve" smooth="yes"/>
			<point x="293" y="617"/>
			<point x="318" y="608"/>
		</contour>
	</outline>
	<anchor name="_top" x="266" y="550"/>
</glyph>
<glyph name="hungarumlaut" format="2">
	<unicode hex="02DD"/>
	<advance width="510"/>
	<outline>
		<contour>
			<point x="451" y="779" type="curve" smooth="yes"/>
			<point x="331" y="598" type="line"/>
			<point x="342" y="587" type="line"/>
			<point x="574" y="706" type="line"/>
			<point x="582" y="772"/>
			<point x="553" y="818"/>
			<point x="510" y="818" type="curve" smooth="yes"/>
			<point x="488" y="818"/>
			<point x="465" y="801"/>
		</contour>
		<contour>
			<point x="220" y="788" type="curve" smooth="yes"/>
			<point x="130" y="598" type="line"/>
			<point x="140" y="587" type="line"/>
			<point x="353" y="730" type="line"/>
			<point x="359" y="794"/>
			<point x="327" y="832"/>
			<point x="284" y="832" type="curve" smooth="yes"/>
			<point x="250" y="832"/>
			<point x="232" y="814"/>
		</contour>
	</outline>
	<anchor name="_top" x="266" y="550"/>
</glyph>
<glyph name="commaaccentcomb" format="2">
	<unicode hex="0326"/>
	<outline>
		<contour>
			<point x="-93" y="-333" type="line"/>
			<point x="13" y="-280"/>
			<point x="85" y="-212"/>
			<point x="85" y="-148" type="curve" smooth="yes"/>
			<point x="85" y="-90"/>
			<point x="49" y="-56"/>
			<point x="-13" y="-56" type="curve" smooth="yes"/>
			<point x="-85" y="-56"/>
			<point x="-107" y="-108"/>
			<point x="-92" y="-160" type="curve"/>
			<point x="-52" y="-174" type="line" smooth="yes"/>
			<point x="-26" y="-183"/>
			<point x="-20" y="-193"/>
			<point x="-20" y="-207" type="curve" smooth="yes"/>
			<point x="-20" y="-233"/>
			<point x="-29" y="-264"/>
			<point x="-102" y="-321" type="curve"/>
		</contour>
	</outline>
	<anchor name="_bottom" x="-10" y="-30"/>
</glyph>
<glyph name="numeral-greek" format="2">
	<unicode hex="0374"/>
	<advance width="304"/>
	<outline>
		<contour>
			<point x="84" y="516" type="line"/>
			<point x="258" y="670" type="line"/>
			<point x="256" y="682" type="line"/>
			<point x="244" y="716"/>
			<point x="230" y="744"/>
			<point x="188" y="744" type="curve" smooth="yes"/>
			<point x="154" y="744"/>
			<point x="129" y="719"/>
			<point x="119" y="683" type="curve" smooth="yes"/>
			<point x="75" y="518" type="line"/>
		</contour>
	</outline>
</glyph>
<glyph name="tonos" format="2">
	<unicode hex="0384"/>
	<advance width="459"/>
	<outline>
		<contour>
			<point x="218" y="585" type="line"/>
			<point x="396" y="739" type="line"/>
			<point x="396" y="749" type="line"/>
			<point x="390" y="798"/>
			<point x="357" y="828"/>
			<point x="314" y="828" type="curve" smooth="yes"/>
			<point x="285" y="828"/>
			<point x="261" y="812"/>
			<point x="247" y="765" type="curve" smooth="yes"/>
			<point x="198" y="596" type="line"/>
		</contour>
	</outline>
	<anchor name="_top" x="206" y="550"/>
</glyph>
<glyph name="dieresistonos" format="2">
	<unicode hex="0385"/>
	<advance width="665"/>
	<outline>
		<contour>
			<point x="310" y="586" type="line"/>
			<point x="462" y="758" type="line"/>
			<point x="462" y="769" type="line"/>
			<point x="451" y="805"/>
			<point x="420" y="828"/>
			<point x="387" y="828" type="curve" smooth="yes"/>
			<point x="348" y="828"/>
			<point x="320" y="812"/>
			<point x="311" y="753" type="curve" smooth="yes"/>
			<point x="288" y="595" type="line"/>
		</contour>
		<contour>
			<point x="144" y="602" type="curve" smooth="yes"/>
			<point x="204" y="602"/>
			<point x="248" y="637"/>
			<point x="248" y="695" type="curve" smooth="yes"/>
			<point x="248" y="751"/>
			<point x="212" y="783"/>
			<point x="149" y="783" type="curve" smooth="yes"/>
			<point x="91" y="783"/>
			<point x="46" y="747"/>
			<point x="46" y="690" type="curve" smooth="yes"/>
			<point x="46" y="634"/>
			<point x="83" y="602"/>
		</contour>
		<contour>
			<point x="572" y="603" type="curve" smooth="yes"/>
			<point x="631" y="603"/>
			<point x="675" y="638"/>
			<point x="675" y="696" type="curve" smooth="yes"/>
			<point x="675" y="752"/>
			<point x="639" y="784"/>
			<point x="577" y="784" type="curve" smooth="yes"/>
			<point x="519" y="784"/>
			<point x="473" y="748"/>
			<point x="473" y="691" type="curve" smooth="yes"/>
			<point x="473" y="635"/>
			<point x="510" y="603"/>
		</contour>
	</outline>
	<anchor name="_top" x="318" y="550"/>
</glyph>
<glyph name="Sigma" format="2">
	<unicode hex="03A3"/>
	<advance width="665"/>
	<outline>
		<contour>
			<point x="28" y="0" type="line"/>
			<point x="590" y="0" type="line"/>
			<point x="613" y="186" type="line"/>
			<point x="592" y="186" type="line"/>
			<point x="577" y="126" type="line" smooth="yes"/>
			<point x="555" y="39"/>
			<point x="523" y="23"/>
			<point x="428" y="23" type="curve" smooth="yes"/>
			<point x="154" y="23" type="line"/>
			<point x="190" y="9" type="line"/>
			<point x="465" y="394" type="line"/>
			<point x="465" y="408" type="line"/>
			<point x="293" y="707" type="line"/>
			<point x="473" y="707" type="line" smooth="yes"/>
			<point x="551" y="707"/>
			<point x="581" y="690"/>
			<point x="607" y="606" type="curve" smooth="yes"/>
			<point x="633" y="523" type="line"/>
			<point x="654" y="526" type="line"/>
			<point x="628" y="730" type="line"/>
			<point x="67" y="730" type="line"/>
			<point x="64" y="694" type="line"/>
			<point x="259" y="357" type="line"/>
			<point x="27" y="39" type="line"/>
		</contour>
	</outline>
</glyph>
<glyph name="Psi" format="2">
	<unicode hex="03A8"/>
	<advance width="1030"/>
	<outline>
		<contour>
			<point x="311" y="0" type="line"/>
			<point x="681" y="0" type="line"/>
			<point x="683" y="18" type="line"/>
			<point x="597" y="28" type="line"/>
			<point x="603" y="176" type="line"/>
			<point x="829" y="193"/>
			<point x="921" y="261"/>
			<point x="936" y="448" type="curve" smooth="yes"/>
			<point x="956" y="697" type="line"/>
			<point x="1031" y="712" type="line"/>
			<point x="1029" y="730" type="line"/>
			<point x="767" y="730" type="line"/>
			<point x="749" y="446" type="line" smooth="yes"/>
			<point x="741" y="312"/>
			<point x="702" y="208"/>
			<point x="603" y="204" type="curve"/>
			<point x="627" y="700" type="line"/>
			<point x="700" y="712" type="line"/>
			<point x="703" y="730" type="line"/>
			<point x="356" y="730" type="line"/>
			<point x="351" y="712" type="line"/>
			<point x="425" y="697" type="line"/>
			<point x="404" y="204" type="line"/>
			<point x="305" y="208"/>
			<point x="279" y="312"/>
			<point x="285" y="446" type="curve" smooth="yes"/>
			<point x="297" y="730" type="line"/>
			<point x="35" y="730" type="line"/>
			<point x="31" y="712" type="line"/>
			<point x="105" y="697" type="line"/>
			<point x="98" y="448" type="line" smooth="yes"/>
			<point x="91" y="231"/>
			<point x="220" y="190"/>
			<point x="402" y="177" type="curve"/>
			<point x="394" y="27" type="line"/>
			<point x="313" y="18" type="line"/>
		</contour>
	</outline>
</glyph>
<glyph name="gamma" format="2">
	<unicode hex="03B3"/>
	<advance width="594"/>
	<outline>
		<contour>
			<point x="222" y="-198" type="curve" smooth="yes"/>
			<point x="247" y="-198"/>
			<point x="290" y="-188"/>
			<point x="311" y="-178" type="curve"/>
			<point x="320" y="-152"/>
			<point x="323" y="-116"/>
			<point x="323" y="-79" type="curve" smooth="yes"/>
			<point x="323" y="-60"/>
			<point x="323" y="-6"/>
			<point x="321" y="17" type="curve"/>
			<point x="442" y="112"/>
			<point x="555" y="242"/>
			<point x="555" y="418" type="curve" smooth="yes"/>
			<point x="555" y="491"/>
			<point x="514" y="537"/>
			<point x="458" y="537" type="curve" smooth="yes"/>
			<point x="393" y="537"/>
			<point x="371" y="487"/>
			<point x="379" y="417" type="curve"/>
			<point x="449" y="399" type="line" smooth="yes"/>
			<point x="503" y="385"/>
			<point x="513" y="355"/>
			<point x="513" y="331" type="curve" smooth="yes"/>
			<point x="513" y="246"/>
			<point x="405" y="109"/>
			<point x="321" y="52" type="curve"/>
			<point x="320" y="194"/>
			<point x="320" y="324"/>
			<point x="317" y="372" type="curve" smooth="yes"/>
			<point x="308" y="509"/>
			<point x="257" y="537"/>
			<point x="158" y="537" type="curve" smooth="yes"/>
			<point x="127" y="537"/>
			<point x="64" y="529"/>
			<point x="-2" y="502" type="curve"/>
			<point x="6" y="481" type="line"/>
			<point x="18" y="487"/>
			<point x="45" y="494"/>
			<point x="61" y="494" type="curve" smooth="yes"/>
			<point x="82" y="494"/>
			<point x="104" y="479"/>
			<point x="116" y="393" type="curve" smooth="yes"/>
			<point x="140" y="224"/>
			<point x="154" y="109"/>
			<point x="168" y="13" type="curve"/>
			<point x="139" y="-35"/>
			<point x="129" y="-70"/>
			<point x="129" y="-106" type="curve" smooth="yes"/>
			<point x="129" y="-161"/>
			<point x="158" y="-198"/>
		</contour>
	</outline>
</glyph>
<glyph name="epsilon" format="2">
	<unicode hex="03B5"/>
	<advance width="604"/>
	<outline>
		<contour>
			<point x="274" y="-14" type="curve" smooth="yes"/>
			<point x="445" y="-14"/>
			<point x="525" y="53"/>
			<point x="560" y="122" type="curve"/>
			<point x="549" y="130" type="line"/>
			<point x="491" y="44"/>
			<point x="440" y="22"/>
			<point x="374" y="22" type="curve" smooth="yes"/>
			<point x="306" y="22"/>
			<point x="224" y="50"/>
			<point x="226" y="146" type="curve" smooth="yes"/>
			<point x="227" y="206"/>
			<point x="259" y="232"/>
			<point x="286" y="254" type="curve"/>
			<point x="303" y="219"/>
			<point x="329" y="196"/>
			<point x="360" y="196" type="curve" smooth="yes"/>
			<point x="388" y="196"/>
			<point x="421" y="217"/>
			<point x="422" y="266" type="curve" smooth="yes"/>
			<point x="423" y="314"/>
			<point x="393" y="327"/>
			<point x="371" y="327" type="curve" smooth="yes"/>
			<point x="340" y="327"/>
			<point x="311" y="312"/>
			<point x="285" y="275" type="curve"/>
			<point x="261" y="300"/>
			<point x="253" y="336"/>
			<point x="254" y="372" type="curve" smooth="yes"/>
			<point x="256" y="480"/>
			<point x="320" y="519"/>
			<point x="382" y="519" type="curve" smooth="yes"/>
			<point x="424" y="519"/>
			<point x="461" y="502"/>
			<point x="461" y="473" type="curve" smooth="yes"/>
			<point x="460" y="448"/>
			<point x="447" y="430"/>
			<point x="409" y="376" type="curve"/>
			<point x="417" y="355"/>
			<point x="455" y="314"/>
			<point x="500" y="314" type="curve" smooth="yes"/>
			<point x="536" y="314"/>
			<point x="575" y="339"/>
			<point x="579" y="394" type="curve" smooth="yes"/>
			<point x="585" y="475"/>
			<point x="498" y="537"/>
			<point x="347" y="537" type="curve" smooth="yes"/>
			<point x="198" y="537"/>
			<point x="75" y="496"/>
			<point x="73" y="379" type="curve" smooth="yes"/>
			<point x="72" y="317"/>
			<point x="110" y="281"/>
			<point x="181" y="263" type="curve"/>
			<point x="180" y="261" type="line"/>
			<point x="85" y="252"/>
			<point x="36" y="203"/>
			<point x="35" y="132" type="curve" smooth="yes"/>
			<point x="33" y="38"/>
			<point x="122" y="-14"/>
		</contour>
	</outline>
	<anchor name="top" x="307" y="554"/>
</glyph>
<glyph name="iota" format="2">
	<unicode hex="03B9"/>
	<advance width="404"/>
	<outline>
		<contour>
			<point x="171" y="-14" type="curve" smooth="yes"/>
			<point x="273" y="-14"/>
			<point x="318" y="36"/>
			<point x="376" y="117" type="curve"/>
			<point x="370" y="125" type="line"/>
			<point x="347" y="113"/>
			<point x="317" y="100"/>
			<point x="284" y="100" type="curve" smooth="yes"/>
			<point x="211" y="100"/>
			<point x="205" y="130"/>
			<point x="205" y="168" type="curve" smooth="yes"/>
			<point x="205" y="232"/>
			<point x="234" y="372"/>
			<point x="262" y="523" type="curve"/>
			<point x="254" y="531" type="line"/>
			<point x="47" y="518" type="line"/>
			<point x="35" y="324"/>
			<point x="20" y="189"/>
			<point x="20" y="130" type="curve" smooth="yes"/>
			<point x="20" y="42"/>
			<point x="63" y="-14"/>
		</contour>
	</outline>
	<anchor name="top" x="154" y="554"/>
</glyph>
<glyph name="lambda" format="2">
	<unicode hex="03BB"/>
	<advance width="593"/>
	<outline>
		<contour>
			<point x="444" y="-11" type="curve" smooth="yes"/>
			<point x="494" y="-11"/>
			<point x="528" y="27"/>
			<point x="552" y="99" type="curve"/>
			<point x="546" y="105" type="line"/>
			<point x="519" y="91"/>
			<point x="501" y="87"/>
			<point x="477" y="87" type="curve" smooth="yes"/>
			<point x="432" y="87"/>
			<point x="404" y="105"/>
			<point x="395" y="190" type="curve" smooth="yes"/>
			<point x="350" y="598" type="line" smooth="yes"/>
			<point x="333" y="753"/>
			<point x="251" y="782"/>
			<point x="163" y="782" type="curve" smooth="yes"/>
			<point x="72" y="782"/>
			<point x="-21" y="744"/>
			<point x="-21" y="648" type="curve" smooth="yes"/>
			<point x="-21" y="610"/>
			<point x="-2" y="569"/>
			<point x="57" y="569" type="curve" smooth="yes"/>
			<point x="101" y="569"/>
			<point x="141" y="598"/>
			<point x="153" y="612" type="curve"/>
			<point x="138" y="650" type="line" smooth="yes"/>
			<point x="126" y="681"/>
			<point x="122" y="702"/>
			<point x="122" y="717" type="curve" smooth="yes"/>
			<point x="122" y="745"/>
			<point x="128" y="768"/>
			<point x="175" y="768" type="curve" smooth="yes"/>
			<point x="253" y="768"/>
			<point x="291" y="734"/>
			<point x="303" y="610" type="curve" smooth="yes"/>
			<point x="305" y="590" type="line"/>
			<point x="-44" y="8" type="line"/>
			<point x="-37" y="0" type="line"/>
			<point x="223" y="0" type="line"/>
			<point x="337" y="271" type="line"/>
			<point x="339" y="271" type="line"/>
			<point x="353" y="129" type="line" smooth="yes"/>
			<point x="364" y="28"/>
			<point x="376" y="-11"/>
		</contour>
	</outline>
</glyph>
<glyph name="nu" format="2">
	<unicode hex="03BD"/>
	<advance width="594"/>
	<outline>
		<contour>
			<point x="266" y="-30" type="line"/>
			<point x="442" y="112"/>
			<point x="555" y="242"/>
			<point x="555" y="418" type="curve" smooth="yes"/>
			<point x="555" y="491"/>
			<point x="514" y="537"/>
			<point x="458" y="537" type="curve" smooth="yes"/>
			<point x="393" y="537"/>
			<point x="371" y="487"/>
			<point x="379" y="417" type="curve"/>
			<point x="449" y="399" type="line" smooth="yes"/>
			<point x="503" y="385"/>
			<point x="513" y="355"/>
			<point x="513" y="331" type="curve" smooth="yes"/>
			<point x="513" y="246"/>
			<point x="405" y="109"/>
			<point x="321" y="52" type="curve"/>
			<point x="320" y="194"/>
			<point x="320" y="324"/>
			<point x="317" y="372" type="curve" smooth="yes"/>
			<point x="308" y="509"/>
			<point x="257" y="537"/>
			<point x="158" y="537" type="curve" smooth="yes"/>
			<point x="127" y="537"/>
			<point x="64" y="529"/>
			<point x="-2" y="502" type="curve"/>
			<point x="6" y="481" type="line"/>
			<point x="18" y="487"/>
			<point x="45" y="494"/>
			<point x="61" y="494" type="curve" smooth="yes"/>
			<point x="82" y="494"/>
			<point x="104" y="479"/>
			<point x="116" y="393" type="curve" smooth="yes"/>
			<point x="140" y="224"/>
			<point x="159" y="122"/>
			<point x="159" y="17" type="curve"/>
		</contour>
	</outline>
</glyph>
<glyph name="omicron" format="2">
	<unicode hex="03BF"/>
	<advance width="624"/>
	<outline>
		<contour>
			<point x="292" y="-14" type="curve" smooth="yes"/>
			<point x="511" y="-14"/>
			<point x="590" y="131"/>
			<point x="590" y="283" type="curve" smooth="yes"/>
			<point x="590" y="442"/>
			<point x="504" y="537"/>
			<point x="336" y="537" type="curve" smooth="yes"/>
			<point x="121" y="537"/>
			<point x="34" y="401"/>
			<point x="34" y="241" type="curve" smooth="yes"/>
			<point x="34" y="90"/>
			<point x="116" y="-14"/>
		</contour>
		<contour>
			<point x="307" y="8" type="curve" smooth="yes"/>
			<point x="267" y="8"/>
			<point x="261" y="70"/>
			<point x="261" y="235" type="curve" smooth="yes"/>
			<point x="261" y="481"/>
			<point x="280" y="519"/>
			<point x="323" y="519" type="curve" smooth="yes"/>
			<point x="367" y="519"/>
			<point x="369" y="451"/>
			<point x="369" y="281" type="curve" smooth="yes"/>
			<point x="369" y="109"/>
			<point x="366" y="8"/>
		</contour>
	</outline>
	<anchor name="top" x="289" y="550"/>
</glyph>
<glyph name="tau" format="2">
	<unicode hex="03C4"/>
	<advance width="596"/>
	<outline>
		<contour>
			<point x="308" y="-14" type="curve" smooth="yes"/>
			<point x="417" y="-14"/>
			<point x="463" y="30"/>
			<point x="500" y="76" type="curve"/>
			<point x="480" y="93" type="line"/>
			<point x="441" y="49"/>
			<point x="409" y="26"/>
			<point x="379" y="26" type="curve" smooth="yes"/>
			<point x="343" y="26"/>
			<point x="332" y="53"/>
			<point x="332" y="108" type="curve" smooth="yes"/>
			<point x="332" y="202"/>
			<point x="335" y="275"/>
			<point x="344" y="380" type="curve"/>
			<point x="413" y="374"/>
			<point x="478" y="368"/>
			<point x="490" y="368" type="curve" smooth="yes"/>
			<point x="545" y="368"/>
			<point x="588" y="404"/>
			<point x="588" y="459" type="curve" smooth="yes"/>
			<point x="588" y="495"/>
			<point x="566" y="524"/>
			<point x="547" y="537" type="curve"/>
			<point x="418" y="490" type="line"/>
			<point x="129" y="525" type="line" smooth="yes"/>
			<point x="48" y="535"/>
			<point x="-1" y="484"/>
			<point x="-1" y="418" type="curve" smooth="yes"/>
			<point x="-1" y="356"/>
			<point x="56" y="328"/>
			<point x="102" y="332" type="curve"/>
			<point x="110" y="356" type="line" smooth="yes"/>
			<point x="119" y="383"/>
			<point x="125" y="400"/>
			<point x="154" y="398" type="curve" smooth="yes"/>
			<point x="179" y="396"/>
			<point x="204" y="393"/>
			<point x="229" y="391" type="curve"/>
			<point x="177" y="267"/>
			<point x="136" y="185"/>
			<point x="136" y="114" type="curve" smooth="yes"/>
			<point x="136" y="44"/>
			<point x="178" y="-14"/>
		</contour>
	</outline>
</glyph>
<glyph name="upsilon" format="2">
	<unicode hex="03C5"/>
	<advance width="586"/>
	<outline>
		<contour>
			<point x="261" y="-14" type="curve" smooth="yes"/>
			<point x="487" y="-14"/>
			<point x="546" y="234"/>
			<point x="546" y="401" type="curve" smooth="yes"/>
			<point x="546" y="504"/>
			<point x="501" y="537"/>
			<point x="457" y="537" type="curve" smooth="yes"/>
			<point x="394" y="537"/>
			<point x="371" y="484"/>
			<point x="380" y="417" type="curve"/>
			<point x="434" y="401" type="line" smooth="yes"/>
			<point x="481" y="387"/>
			<point x="504" y="383"/>
			<point x="504" y="340" type="curve" smooth="yes"/>
			<point x="504" y="251"/>
			<point x="474" y="61"/>
			<point x="348" y="59" type="curve" smooth="yes"/>
			<point x="293" y="58"/>
			<point x="268" y="93"/>
			<point x="268" y="152" type="curve" smooth="yes"/>
			<point x="268" y="206"/>
			<point x="308" y="391"/>
			<point x="308" y="441" type="curve" smooth="yes"/>
			<point x="308" y="513"/>
			<point x="261" y="537"/>
			<point x="194" y="537" type="curve" smooth="yes"/>
			<point x="143" y="537"/>
			<point x="83" y="531"/>
			<point x="13" y="502" type="curve"/>
			<point x="21" y="481" type="line"/>
			<point x="39" y="489"/>
			<point x="58" y="494"/>
			<point x="76" y="494" type="curve" smooth="yes"/>
			<point x="94" y="494"/>
			<point x="101" y="480"/>
			<point x="101" y="459" type="curve" smooth="yes"/>
			<point x="101" y="411"/>
			<point x="62" y="220"/>
			<point x="62" y="153" type="curve" smooth="yes"/>
			<point x="62" y="49"/>
			<point x="128" y="-14"/>
		</contour>
	</outline>
	<anchor name="top" x="356" y="550"/>
</glyph>
<glyph name="psi" format="2">
	<unicode hex="03C8"/>
	<advance width="834"/>
	<outline>
		<contour>
			<point x="296" y="-230" type="line"/>
			<point x="480" y="-208" type="line"/>
			<point x="498" y="-4" type="line"/>
			<point x="710" y="40"/>
			<point x="795" y="209"/>
			<point x="795" y="408" type="curve" smooth="yes"/>
			<point x="795" y="487"/>
			<point x="763" y="537"/>
			<point x="702" y="537" type="curve" smooth="yes"/>
			<point x="645" y="537"/>
			<point x="620" y="489"/>
			<point x="629" y="422" type="curve"/>
			<point x="693" y="398" type="line" smooth="yes"/>
			<point x="735" y="382"/>
			<point x="753" y="371"/>
			<point x="753" y="320" type="curve" smooth="yes"/>
			<point x="753" y="233"/>
			<point x="701" y="97"/>
			<point x="504" y="65" type="curve"/>
			<point x="562" y="730" type="line"/>
			<point x="504" y="730" type="line"/>
			<point x="345" y="64" type="line"/>
			<point x="280" y="77"/>
			<point x="268" y="113"/>
			<point x="268" y="152" type="curve" smooth="yes"/>
			<point x="268" y="206"/>
			<point x="308" y="391"/>
			<point x="308" y="441" type="curve" smooth="yes"/>
			<point x="308" y="513"/>
			<point x="261" y="537"/>
			<point x="186" y="537" type="curve" smooth="yes"/>
			<point x="143" y="537"/>
			<point x="70" y="527"/>
			<point x="13" y="502" type="curve"/>
			<point x="21" y="481" type="line"/>
			<point x="39" y="489"/>
			<point x="59" y="494"/>
			<point x="77" y="494" type="curve" smooth="yes"/>
			<point x="91" y="494"/>
			<point x="101" y="484"/>
			<point x="101" y="454" type="curve" smooth="yes"/>
			<point x="101" y="411"/>
			<point x="62" y="221"/>
			<point x="62" y="158" type="curve" smooth="yes"/>
			<point x="62" y="63"/>
			<point x="124" y="-4"/>
			<point x="327" y="-14" type="curve"/>
			<point x="277" y="-223" type="line"/>
		</contour>
	</outline>
</glyph>
<glyph name="omega" format="2">
	<unicode hex="03C9"/>
	<advance width="898"/>
	<outline>
		<contour>
			<point x="250" y="-17" type="curve" smooth="yes"/>
			<point x="351" y="-17"/>
			<point x="411" y="46"/>
			<point x="440" y="117" type="curve"/>
			<point x="441" y="117" type="line"/>
			<point x="464" y="40"/>
			<point x="507" y="-17"/>
			<point x="597" y="-17" type="curve" smooth="yes"/>
			<point x="763" y="-17"/>
			<point x="859" y="101"/>
			<point x="859" y="284" type="curve" smooth="yes"/>
			<point x="859" y="375"/>
			<point x="821" y="477"/>
			<point x="762" y="533" type="curve"/>
			<point x="748" y="538" type="line"/>
			<point x="556" y="483" type="line"/>
			<point x="605" y="419"/>
			<point x="645" y="333"/>
			<point x="645" y="233" type="curve" smooth="yes"/>
			<point x="645" y="123"/>
			<point x="606" y="77"/>
			<point x="558" y="77" type="curve" smooth="yes"/>
			<point x="532" y="77"/>
			<point x="508" y="89"/>
			<point x="486" y="158" type="curve"/>
			<point x="522" y="204"/>
			<point x="542" y="251"/>
			<point x="542" y="306" type="curve" smooth="yes"/>
			<point x="542" y="372"/>
			<point x="508" y="418"/>
			<point x="453" y="418" type="curve" smooth="yes"/>
			<point x="387" y="418"/>
			<point x="353" y="366"/>
			<point x="353" y="294" type="curve" smooth="yes"/>
			<point x="353" y="252"/>
			<point x="365" y="211"/>
			<point x="398" y="155" type="curve"/>
			<point x="370" y="88"/>
			<point x="344" y="77"/>
			<point x="317" y="77" type="curve" smooth="yes"/>
			<point x="286" y="77"/>
			<point x="253" y="100"/>
			<point x="253" y="223" type="curve" smooth="yes"/>
			<point x="253" y="349"/>
			<point x="279" y="454"/>
			<point x="339" y="531" type="curve"/>
			<point x="326" y="541" type="line"/>
			<point x="139" y="512"/>
			<point x="38" y="383"/>
			<point x="38" y="221" type="curve" smooth="yes"/>
			<point x="38" y="84"/>
			<point x="124" y="-17"/>
		</contour>
	</outline>
	<anchor name="bottom" x="431" y="-30"/>
	<anchor name="top" x="444" y="554"/>
</glyph>
<glyph name="Stigma" format="2">
	<unicode hex="03DA"/>
	<advance width="716"/>
	<outline>
		<contour>
			<point x="407" y="-209" type="line"/>
			<point x="497" y="-132"/>
			<point x="562" y="-61"/>
			<point x="562" y="46" type="curve" smooth="yes"/>
			<point x="562" y="121"/>
			<point x="516" y="161"/>
			<point x="425" y="189" type="curve" smooth="yes"/>
			<point x="290" y="231"/>
			<point x="281" y="306"/>
			<point x="281" y="428" type="curve" smooth="yes"/>
			<point x="281" y="578"/>
			<point x="315" y="730"/>
			<point x="443" y="730" type="curve" smooth="yes"/>
			<point x="492" y="730"/>
			<point x="529" y="706"/>
			<point x="529" y="657" type="curve" smooth="yes"/>
			<point x="529" y="634"/>
			<point x="516" y="592"/>
			<point x="508" y="574" type="curve" smooth="yes"/>
			<point x="485" y="522" type="line"/>
			<point x="524" y="491"/>
			<point x="564" y="477"/>
			<point x="606" y="477" type="curve" smooth="yes"/>
			<point x="667" y="477"/>
			<point x="707" y="523"/>
			<point x="707" y="577" type="curve" smooth="yes"/>
			<point x="707" y="682"/>
			<point x="577" y="745"/>
			<point x="444" y="745" type="curve" smooth="yes"/>
			<point x="176" y="745"/>
			<point x="45" y="564"/>
			<point x="45" y="332" type="curve" smooth="yes"/>
			<point x="45" y="104"/>
			<point x="163" y="38"/>
			<point x="300" y="4" type="curve" smooth="yes"/>
			<point x="390" y="-18"/>
			<point x="424" y="-39"/>
			<point x="424" y="-98" type="curve" smooth="yes"/>
			<point x="424" y="-132"/>
			<point x="418" y="-158"/>
			<point x="397" y="-199" type="curve"/>
		</contour>
	</outline>
</glyph>
<glyph name="Koppa" format="2">
	<unicode hex="03DE"/>
	<advance width="612"/>
	<outline>
		<contour>
			<point x="351" y="-173" type="curve" smooth="yes"/>
			<point x="411" y="-173"/>
			<point x="463" y="-143"/>
			<point x="487" y="-112" type="curve"/>
			<point x="484" y="-105" type="line"/>
			<point x="471" y="-110"/>
			<point x="462" y="-111"/>
			<point x="452" y="-111" type="curve" smooth="yes"/>
			<point x="430" y="-111"/>
			<point x="415" y="-98"/>
			<point x="415" y="-68" type="curve" smooth="yes"/>
			<point x="415" y="-18"/>
			<point x="424" y="12"/>
			<point x="548" y="205" type="curve" smooth="yes"/>
			<point x="573" y="244" type="line"/>
			<point x="497" y="376" type="line"/>
			<point x="180" y="190" type="line"/>
			<point x="379" y="425"/>
			<point x="416" y="470"/>
			<point x="416" y="531" type="curve" smooth="yes"/>
			<point x="416" y="574"/>
			<point x="391" y="630"/>
			<point x="301" y="630" type="curve" smooth="yes"/>
			<point x="241" y="630"/>
			<point x="189" y="600"/>
			<point x="165" y="569" type="curve"/>
			<point x="168" y="562" type="line"/>
			<point x="181" y="567"/>
			<point x="190" y="568"/>
			<point x="200" y="568" type="curve" smooth="yes"/>
			<point x="222" y="568"/>
			<point x="237" y="555"/>
			<point x="237" y="525" type="curve" smooth="yes"/>
			<point x="237" y="473"/>
			<point x="199" y="403"/>
			<point x="88" y="226" type="curve" smooth="yes"/>
			<point x="41" y="151" type="line"/>
			<point x="72" y="107" type="line"/>
			<point x="409" y="193" type="line"/>
			<point x="265" y="23"/>
			<point x="236" y="-14"/>
			<point x="236" y="-74" type="curve" smooth="yes"/>
			<point x="236" y="-117"/>
			<point x="261" y="-173"/>
		</contour>
	</outline>
</glyph>
<glyph name="Sampi" format="2">
	<unicode hex="03E0"/>
	<advance width="782"/>
	<outline>
		<contour>
			<point x="242" y="-203" type="line"/>
			<point x="277" y="-181" type="line"/>
			<point x="261" y="-148" type="line" smooth="yes"/>
			<point x="255" y="-136"/>
			<point x="258" y="-128"/>
			<point x="276" y="-114" type="curve" smooth="yes"/>
			<point x="588" y="115" type="line"/>
			<point x="590" y="95"/>
			<point x="590" y="73"/>
			<point x="590" y="51" type="curve" smooth="yes"/>
			<point x="590" y="-15"/>
			<point x="583" y="-100"/>
			<point x="570" y="-170" type="curve"/>
			<point x="707" y="-172" type="line"/>
			<point x="721" y="-90"/>
			<point x="733" y="9"/>
			<point x="733" y="86" type="curve" smooth="yes"/>
			<point x="733" y="394"/>
			<point x="557" y="537"/>
			<point x="189" y="532" type="curve"/>
			<point x="186" y="494" type="line"/>
			<point x="290" y="487"/>
			<point x="379" y="461"/>
			<point x="444" y="415" type="curve"/>
			<point x="105" y="163" type="line" smooth="yes"/>
			<point x="85" y="147"/>
			<point x="79" y="146"/>
			<point x="63" y="164" type="curve" smooth="yes"/>
			<point x="46" y="182" type="line"/>
			<point x="13" y="162" type="line"/>
			<point x="124" y="-14" type="line"/>
			<point x="159" y="8" type="line"/>
			<point x="143" y="41" type="line" smooth="yes"/>
			<point x="134" y="54"/>
			<point x="146" y="64"/>
			<point x="158" y="75" type="curve" smooth="yes"/>
			<point x="518" y="339" type="line"/>
			<point x="541" y="308"/>
			<point x="557" y="272"/>
			<point x="568" y="230" type="curve"/>
			<point x="223" y="-26" type="line" smooth="yes"/>
			<point x="203" y="-42"/>
			<point x="197" y="-43"/>
			<point x="181" y="-25" type="curve" smooth="yes"/>
			<point x="164" y="-7" type="line"/>
			<point x="131" y="-27" type="line"/>
		</contour>
	</outline>
</glyph>
<glyph name="sampi" format="2">
	<unicode hex="03E1"/>
	<advance width="600"/>
	<outline>
		<contour>
			<point x="515" y="-256" type="line"/>
			<point x="563" y="-159"/>
			<point x="595" y="-36"/>
			<point x="600" y="59" type="curve" smooth="yes"/>
			<point x="616" y="357"/>
			<point x="481" y="504"/>
			<point x="198" y="566" type="curve"/>
			<point x="183" y="519" type="line"/>
			<point x="312" y="486"/>
			<point x="386" y="405"/>
			<point x="425" y="311" type="curve"/>
			<point x="152" y="210" type="line" smooth="yes"/>
			<point x="130" y="202"/>
			<point x="128" y="204"/>
			<point x="119" y="213" type="curve" smooth="yes"/>
			<point x="111" y="221" type="line"/>
			<point x="90" y="214" type="line"/>
			<point x="140" y="66" type="line"/>
			<point x="161" y="74" type="line"/>
			<point x="160" y="87" type="line"/>
			<point x="160" y="103"/>
			<point x="163" y="106"/>
			<point x="187" y="115" type="curve" smooth="yes"/>
			<point x="452" y="212" type="line"/>
			<point x="456" y="188"/>
			<point x="458" y="165"/>
			<point x="459" y="142" type="curve"/>
			<point x="204" y="48" type="line" smooth="yes"/>
			<point x="183" y="40"/>
			<point x="180" y="42"/>
			<point x="172" y="51" type="curve"/>
			<point x="164" y="59" type="line"/>
			<point x="143" y="52" type="line"/>
			<point x="193" y="-96" type="line"/>
			<point x="213" y="-88" type="line"/>
			<point x="213" y="-75" type="line" smooth="yes"/>
			<point x="213" y="-59"/>
			<point x="216" y="-56"/>
			<point x="239" y="-47" type="curve" smooth="yes"/>
			<point x="454" y="32" type="line"/>
			<point x="440" y="-63"/>
			<point x="403" y="-165"/>
			<point x="378" y="-226" type="curve"/>
		</contour>
	</outline>
</glyph>
<glyph name="Lje-cy" format="2">
	<unicode hex="0409"/>
	<advance width="1113"/>
	<outline>
		<contour>
			<point x="544" y="706" type="line"/>
			<point x="516" y="27" type="line"/>
			<point x="435" y="18" type="line"/>
			<point x="433" y="0" type="line"/>
			<point x="783" y="0" type="line" smooth="yes"/>
			<point x="981" y="0"/>
			<point x="1102" y="99"/>
			<point x="1102" y="245" type="curve" smooth="yes"/>
			<point x="1102" y="356"/>
			<point x="1012" y="415"/>
			<point x="884" y="415" type="curve" smooth="yes"/>
			<point x="841" y="415"/>
			<point x="807" y="412"/>
			<point x="776" y="403" type="curve"/>
			<point x="774" y="385" type="line"/>
			<point x="785" y="388"/>
			<point x="791" y="389"/>
			<point x="808" y="389" type="curve" smooth="yes"/>
			<point x="847" y="389"/>
			<point x="884" y="358"/>
			<point x="884" y="239" type="curve" smooth="yes"/>
			<point x="884" y="114"/>
			<point x="849" y="23"/>
			<point x="766" y="23" type="curve" smooth="yes"/>
			<point x="742" y="23" type="line"/>
			<point x="770" y="700" type="line"/>
			<point x="842" y="712" type="line"/>
			<point x="845" y="730" type="line"/>
			<point x="256" y="730" type="line"/>
			<point x="252" y="712" type="line"/>
			<point x="328" y="697" type="line"/>
			<point x="328" y="410"/>
			<point x="285" y="148"/>
			<point x="206" y="95" type="curve"/>
			<point x="122" y="224" type="line"/>
			<point x="33" y="224"/>
			<point x="-5" y="162"/>
			<point x="-5" y="108" type="curve" smooth="yes"/>
			<point x="-5" y="41"/>
			<point x="46" y="-9"/>
			<point x="116" y="-9" type="curve" smooth="yes"/>
			<point x="352" y="-9"/>
			<point x="359" y="567"/>
			<point x="359" y="706" type="curve"/>
		</contour>
	</outline>
</glyph>
<glyph name="Nje-cy" format="2">
	<unicode hex="040A"/>
	<advance width="1111"/>
	<outline>
		<contour>
			<point x="523" y="362" type="line"/>
			<point x="509" y="27" type="line"/>
			<point x="428" y="18" type="line"/>
			<point x="426" y="0" type="line"/>
			<point x="781" y="0" type="line" smooth="yes"/>
			<point x="979" y="0"/>
			<point x="1100" y="99"/>
			<point x="1100" y="245" type="curve" smooth="yes"/>
			<point x="1100" y="356"/>
			<point x="1013" y="415"/>
			<point x="882" y="415" type="curve" smooth="yes"/>
			<point x="839" y="415"/>
			<point x="805" y="412"/>
			<point x="769" y="403" type="curve"/>
			<point x="767" y="385" type="line"/>
			<point x="778" y="388"/>
			<point x="790" y="389"/>
			<point x="804" y="389" type="curve" smooth="yes"/>
			<point x="851" y="389"/>
			<point x="882" y="358"/>
			<point x="882" y="239" type="curve" smooth="yes"/>
			<point x="882" y="114"/>
			<point x="847" y="23"/>
			<point x="764" y="23" type="curve" smooth="yes"/>
			<point x="735" y="23" type="line"/>
			<point x="764" y="697" type="line"/>
			<point x="836" y="712" type="line"/>
			<point x="839" y="730" type="line"/>
			<point x="467" y="730" type="line"/>
			<point x="463" y="712" type="line"/>
			<point x="537" y="697" type="line"/>
			<point x="524" y="386" type="line"/>
			<point x="335" y="386" type="line"/>
			<point x="348" y="697" type="line"/>
			<point x="420" y="712" type="line"/>
			<point x="423" y="730" type="line"/>
			<point x="51" y="730" type="line"/>
			<point x="47" y="712" type="line"/>
			<point x="121" y="697" type="line"/>
			<point x="93" y="27" type="line"/>
			<point x="12" y="18" type="line"/>
			<point x="10" y="0" type="line"/>
			<point x="395" y="0" type="line"/>
			<point x="397" y="18" type="line"/>
			<point x="319" y="28" type="line"/>
			<point x="333" y="362" type="line"/>
		</contour>
	</outline>
</glyph>
<glyph name="Be-cy" format="2">
	<unicode hex="0411"/>
	<advance width="696"/>
	<outline>
		<contour>
			<point x="12" y="18" type="line"/>
			<point x="10" y="0" type="line"/>
			<point x="366" y="0" type="line" smooth="yes"/>
			<point x="564" y="0"/>
			<point x="675" y="99"/>
			<point x="675" y="245" type="curve" smooth="yes"/>
			<point x="675" y="356"/>
			<point x="586" y="415"/>
			<point x="467" y="415" type="curve" smooth="yes"/>
			<point x="424" y="415"/>
			<point x="390" y="412"/>
			<point x="354" y="403" type="curve"/>
			<point x="352" y="385" type="line"/>
			<point x="363" y="388"/>
			<point x="375" y="389"/>
			<point x="389" y="389" type="curve" smooth="yes"/>
			<point x="436" y="389"/>
			<point x="457" y="358"/>
			<point x="457" y="239" type="curve" smooth="yes"/>
			<point x="457" y="114"/>
			<point x="425" y="23"/>
			<point x="349" y="23" type="curve" smooth="yes"/>
			<point x="320" y="23" type="line"/>
			<point x="345" y="707" type="line"/>
			<point x="436" y="707" type="line" smooth="yes"/>
			<point x="522" y="707"/>
			<point x="559" y="684"/>
			<point x="584" y="577" type="curve" smooth="yes"/>
			<point x="598" y="518" type="line"/>
			<point x="619" y="521" type="line"/>
			<point x="607" y="730" type="line"/>
			<point x="51" y="730" type="line"/>
			<point x="47" y="712" type="line"/>
			<point x="121" y="697" type="line"/>
			<point x="93" y="27" type="line"/>
		</contour>
	</outline>
</glyph>
<glyph name="De-cy" format="2">
	<unicode hex="0414"/>
	<advance width="758"/>
	<outline>
		<contour>
			<point x="-1" y="-166" type="line"/>
			<point x="20" y="-166" type="line"/>
			<point x="36" y="-37"/>
			<point x="79" y="0"/>
			<point x="165" y="0" type="curve" smooth="yes"/>
			<point x="572" y="0" type="line" smooth="yes"/>
			<point x="658" y="0"/>
			<point x="691" y="-30"/>
			<point x="691" y="-164" type="curve"/>
			<point x="712" y="-166" type="line"/>
			<point x="729" y="24" type="line"/>
			<point x="652" y="24" type="line"/>
			<point x="678" y="700" type="line"/>
			<point x="751" y="712" type="line"/>
			<point x="754" y="730" type="line"/>
			<point x="168" y="730" type="line"/>
			<point x="164" y="712" type="line"/>
			<point x="240" y="697" type="line"/>
			<point x="240" y="410"/>
			<point x="199" y="189"/>
			<point x="79" y="24" type="curve"/>
			<point x="6" y="24" type="line"/>
		</contour>
		<contour>
			<point x="113" y="24" type="line"/>
			<point x="268" y="247"/>
			<point x="268" y="581"/>
			<point x="268" y="706" type="curve"/>
			<point x="455" y="706" type="line"/>
			<point x="426" y="24" type="line"/>
		</contour>
	</outline>
	<guideline x="497" y="24" angle="0"/>
	<guideline x="703" y="-166" angle="0"/>
</glyph>
<glyph name="Zhe-cy" format="2">
	<unicode hex="0416"/>
	<advance width="1242"/>
	<outline>
		<contour>
			<point x="526" y="368" type="curve"/>
			<point x="512" y="27" type="line"/>
			<point x="429" y="18" type="line"/>
			<point x="427" y="0" type="line"/>
			<point x="814" y="0" type="line"/>
			<point x="816" y="18" type="line"/>
			<point x="738" y="28" type="line"/>
			<point x="753" y="368" type="line"/>
			<point x="763" y="367"/>
			<point x="772" y="365"/>
			<point x="785" y="357" type="curve" smooth="yes"/>
			<point x="799" y="348"/>
			<point x="811" y="323"/>
			<point x="834" y="243" type="curve" smooth="yes"/>
			<point x="841" y="221"/>
			<point x="848" y="195"/>
			<point x="856" y="165" type="curve" smooth="yes"/>
			<point x="897" y="13"/>
			<point x="954" y="-14"/>
			<point x="1041" y="-14" type="curve" smooth="yes"/>
			<point x="1117" y="-14"/>
			<point x="1191" y="22"/>
			<point x="1235" y="57" type="curve"/>
			<point x="1226" y="71" type="line"/>
			<point x="1200" y="56"/>
			<point x="1193" y="53"/>
			<point x="1171" y="53" type="curve" smooth="yes"/>
			<point x="1150" y="53"/>
			<point x="1135" y="74"/>
			<point x="1085" y="188" type="curve" smooth="yes"/>
			<point x="1071" y="219"/>
			<point x="1055" y="247"/>
			<point x="1035" y="272" type="curve" smooth="yes"/>
			<point x="982" y="338"/>
			<point x="908" y="381"/>
			<point x="810" y="385" type="curve"/>
			<point x="811" y="389" type="line"/>
			<point x="870" y="412"/>
			<point x="900" y="452"/>
			<point x="934" y="523" type="curve" smooth="yes"/>
			<point x="962" y="582"/>
			<point x="981" y="613"/>
			<point x="998" y="613" type="curve" smooth="yes"/>
			<point x="1012" y="613"/>
			<point x="1038" y="582"/>
			<point x="1064" y="542" type="curve" smooth="yes"/>
			<point x="1090" y="503" type="line"/>
			<point x="1154" y="533"/>
			<point x="1193" y="584"/>
			<point x="1193" y="643" type="curve" smooth="yes"/>
			<point x="1193" y="702"/>
			<point x="1146" y="740"/>
			<point x="1096" y="740" type="curve" smooth="yes"/>
			<point x="1004" y="740"/>
			<point x="961" y="650"/>
			<point x="909" y="539" type="curve" smooth="yes"/>
			<point x="875" y="467"/>
			<point x="846" y="430"/>
			<point x="804" y="409" type="curve" smooth="yes"/>
			<point x="789" y="402"/>
			<point x="772" y="397"/>
			<point x="754" y="393" type="curve"/>
			<point x="767" y="697" type="line"/>
			<point x="839" y="712" type="line"/>
			<point x="842" y="730" type="line"/>
			<point x="470" y="730" type="line"/>
			<point x="466" y="712" type="line"/>
			<point x="540" y="697" type="line"/>
			<point x="527" y="393" type="line"/>
			<point x="507" y="397"/>
			<point x="491" y="402"/>
			<point x="478" y="409" type="curve" smooth="yes"/>
			<point x="439" y="430"/>
			<point x="415" y="467"/>
			<point x="388" y="539" type="curve" smooth="yes"/>
			<point x="347" y="650"/>
			<point x="313" y="740"/>
			<point x="226" y="740" type="curve" smooth="yes"/>
			<point x="176" y="740"/>
			<point x="117" y="705"/>
			<point x="117" y="633" type="curve" smooth="yes"/>
			<point x="117" y="584"/>
			<point x="143" y="533"/>
			<point x="203" y="503" type="curve"/>
			<point x="234" y="542" type="line" smooth="yes"/>
			<point x="265" y="582"/>
			<point x="295" y="613"/>
			<point x="309" y="613" type="curve" smooth="yes"/>
			<point x="326" y="613"/>
			<point x="339" y="582"/>
			<point x="361" y="523" type="curve" smooth="yes"/>
			<point x="387" y="452"/>
			<point x="410" y="409"/>
			<point x="468" y="389" type="curve"/>
			<point x="469" y="385" type="line"/>
			<point x="365" y="380"/>
			<point x="281" y="332"/>
			<point x="219" y="260" type="curve" smooth="yes"/>
			<point x="201" y="238"/>
			<point x="184" y="214"/>
			<point x="170" y="188" type="curve" smooth="yes"/>
			<point x="106" y="74"/>
			<point x="88" y="53"/>
			<point x="67" y="53" type="curve" smooth="yes"/>
			<point x="45" y="53"/>
			<point x="38" y="56"/>
			<point x="15" y="71" type="curve"/>
			<point x="3" y="57" type="line"/>
			<point x="43" y="22"/>
			<point x="113" y="-14"/>
			<point x="189" y="-14" type="curve" smooth="yes"/>
			<point x="276" y="-14"/>
			<point x="335" y="13"/>
			<point x="395" y="165" type="curve" smooth="yes"/>
			<point x="452" y="308"/>
			<point x="472" y="345"/>
			<point x="492" y="357" type="curve" smooth="yes"/>
			<point x="502" y="363"/>
			<point x="514" y="367"/>
		</contour>
	</outline>
</glyph>
<glyph name="Ze-cy" format="2">
	<unicode hex="0417"/>
	<advance width="621"/>
	<outline>
		<contour>
			<point x="63" y="566" type="curve"/>
			<point x="78" y="556" type="line"/>
			<point x="112" y="630"/>
			<point x="179" y="697"/>
			<point x="256" y="697" type="curve" smooth="yes"/>
			<point x="319" y="697"/>
			<point x="358" y="659"/>
			<point x="358" y="560" type="curve" smooth="yes"/>
			<point x="358" y="457"/>
			<point x="328" y="415"/>
			<point x="299" y="401" type="curve" smooth="yes"/>
			<point x="274" y="389"/>
			<point x="255" y="385"/>
			<point x="214" y="383" type="curve"/>
			<point x="212" y="365" type="line"/>
			<point x="244" y="369"/>
			<point x="270" y="371"/>
			<point x="289" y="371" type="curve" smooth="yes"/>
			<point x="338" y="371"/>
			<point x="382" y="345"/>
			<point x="382" y="222" type="curve" smooth="yes"/>
			<point x="382" y="76"/>
			<point x="332" y="2"/>
			<point x="247" y="2" type="curve" smooth="yes"/>
			<point x="166" y="2"/>
			<point x="156" y="50"/>
			<point x="194" y="140" type="curve" smooth="yes"/>
			<point x="216" y="193" type="line"/>
			<point x="191" y="225"/>
			<point x="149" y="246"/>
			<point x="107" y="246" type="curve" smooth="yes"/>
			<point x="42" y="246"/>
			<point x="6" y="196"/>
			<point x="6" y="148" type="curve" smooth="yes"/>
			<point x="6" y="35"/>
			<point x="142" y="-14"/>
			<point x="257" y="-14" type="curve" smooth="yes"/>
			<point x="440" y="-14"/>
			<point x="600" y="80"/>
			<point x="600" y="224" type="curve" smooth="yes"/>
			<point x="600" y="331"/>
			<point x="508" y="397"/>
			<point x="339" y="388" type="curve"/>
			<point x="339" y="392" type="line"/>
			<point x="471" y="412"/>
			<point x="575" y="485"/>
			<point x="575" y="591" type="curve" smooth="yes"/>
			<point x="575" y="700"/>
			<point x="477" y="747"/>
			<point x="346" y="747" type="curve" smooth="yes"/>
			<point x="222" y="747"/>
			<point x="121" y="693"/>
		</contour>
	</outline>
</glyph>
<glyph name="Pe-cy" format="2">
	<unicode hex="041F"/>
	<advance width="848"/>
	<outline>
		<contour>
			<point x="10" y="0" type="line"/>
			<point x="395" y="0" type="line"/>
			<point x="397" y="18" type="line"/>
			<point x="319" y="28" type="line"/>
			<point x="347" y="706" type="line"/>
			<point x="539" y="706" type="line"/>
			<point x="511" y="27" type="line"/>
			<point x="445" y="18" type="line"/>
			<point x="443" y="0" type="line"/>
			<point x="821" y="0" type="line"/>
			<point x="823" y="18" type="line"/>
			<point x="737" y="28" type="line"/>
			<point x="762" y="700" type="line"/>
			<point x="835" y="712" type="line"/>
			<point x="838" y="730" type="line"/>
			<point x="51" y="730" type="line"/>
			<point x="47" y="712" type="line"/>
			<point x="121" y="697" type="line"/>
			<point x="93" y="27" type="line"/>
			<point x="12" y="18" type="line"/>
		</contour>
	</outline>
</glyph>
<glyph name="U-cy" format="2">
	<unicode hex="0423"/>
	<advance width="768"/>
	<outline>
		<contour>
			<point x="513" y="323" type="line"/>
			<point x="316" y="703" type="line"/>
			<point x="412" y="712" type="line"/>
			<point x="414" y="730" type="line"/>
			<point x="8" y="730" type="line"/>
			<point x="6" y="712" type="line"/>
			<point x="89" y="702" type="line"/>
			<point x="405" y="112" type="line"/>
			<point x="382" y="67"/>
			<point x="347" y="33"/>
			<point x="312" y="33" type="curve" smooth="yes"/>
			<point x="308" y="33"/>
			<point x="304" y="33"/>
			<point x="300" y="34" type="curve"/>
			<point x="273" y="198" type="line"/>
			<point x="195" y="220"/>
			<point x="107" y="183"/>
			<point x="107" y="98" type="curve" smooth="yes"/>
			<point x="107" y="26"/>
			<point x="169" y="-19"/>
			<point x="247" y="-19" type="curve" smooth="yes"/>
			<point x="324" y="-19"/>
			<point x="380" y="10"/>
			<point x="456" y="149" type="curve" smooth="yes"/>
			<point x="525" y="275"/>
			<point x="626" y="501"/>
			<point x="716" y="703" type="curve"/>
			<point x="792" y="712" type="line"/>
			<point x="794" y="730" type="line"/>
			<point x="591" y="730" type="line"/>
			<point x="588" y="712" type="line"/>
			<point x="688" y="703" type="line"/>
			<point x="637" y="580"/>
			<point x="577" y="444"/>
			<point x="517" y="323" type="curve"/>
		</contour>
	</outline>
	<anchor name="top" x="452" y="730"/>
</glyph>
<glyph name="Ef-cy" format="2">
	<unicode hex="0424"/>
	<advance width="970"/>
	<outline>
		<contour>
			<point x="282" y="0" type="line"/>
			<point x="676" y="0" type="line"/>
			<point x="678" y="18" type="line"/>
			<point x="592" y="28" type="line"/>
			<point x="595" y="111" type="line"/>
			<point x="621" y="101"/>
			<point x="656" y="93"/>
			<point x="705" y="93" type="curve" smooth="yes"/>
			<point x="849" y="93"/>
			<point x="949" y="202"/>
			<point x="949" y="378" type="curve" smooth="yes"/>
			<point x="949" y="536"/>
			<point x="849" y="631"/>
			<point x="714" y="631" type="curve" smooth="yes"/>
			<point x="682" y="631"/>
			<point x="642" y="624"/>
			<point x="613" y="613" type="curve"/>
			<point x="617" y="713" type="line"/>
			<point x="690" y="725" type="line"/>
			<point x="693" y="743" type="line"/>
			<point x="323" y="743" type="line"/>
			<point x="319" y="725" type="line"/>
			<point x="393" y="710" type="line"/>
			<point x="389" y="613" type="line"/>
			<point x="363" y="624"/>
			<point x="327" y="631"/>
			<point x="278" y="631" type="curve" smooth="yes"/>
			<point x="134" y="631"/>
			<point x="34" y="518"/>
			<point x="34" y="356" type="curve" smooth="yes"/>
			<point x="34" y="187"/>
			<point x="139" y="93"/>
			<point x="274" y="93" type="curve" smooth="yes"/>
			<point x="306" y="93"/>
			<point x="340" y="100"/>
			<point x="369" y="111" type="curve"/>
			<point x="365" y="27" type="line"/>
			<point x="284" y="18" type="line"/>
		</contour>
		<contour>
			<point x="336" y="126" type="curve" smooth="yes"/>
			<point x="278" y="126"/>
			<point x="245" y="193"/>
			<point x="245" y="333" type="curve" smooth="yes"/>
			<point x="245" y="485"/>
			<point x="298" y="598"/>
			<point x="356" y="598" type="curve" smooth="yes"/>
			<point x="369" y="598"/>
			<point x="377" y="596"/>
			<point x="388" y="593" type="curve"/>
			<point x="369" y="132" type="line"/>
			<point x="360" y="128"/>
			<point x="350" y="126"/>
		</contour>
		<contour>
			<point x="596" y="132" type="curve"/>
			<point x="613" y="593" type="line"/>
			<point x="625" y="596"/>
			<point x="633" y="598"/>
			<point x="647" y="598" type="curve" smooth="yes"/>
			<point x="705" y="598"/>
			<point x="738" y="518"/>
			<point x="738" y="407" type="curve" smooth="yes"/>
			<point x="738" y="229"/>
			<point x="688" y="126"/>
			<point x="627" y="126" type="curve" smooth="yes"/>
			<point x="614" y="126"/>
			<point x="605" y="128"/>
		</contour>
	</outline>
	<guideline x="369" y="111" angle="0"/>
	<guideline x="345" y="662" angle="0"/>
</glyph>
<glyph name="Tse-cy" format="2">
	<unicode hex="0426"/>
	<advance width="872"/>
	<outline>
		<contour>
			<point x="320" y="24" type="line"/>
			<point x="348" y="697" type="line"/>
			<point x="420" y="712" type="line"/>
			<point x="423" y="730" type="line"/>
			<point x="51" y="730" type="line"/>
			<point x="47" y="712" type="line"/>
			<point x="121" y="697" type="line"/>
			<point x="93" y="27" type="line"/>
			<point x="12" y="18" type="line"/>
			<point x="10" y="0" type="line"/>
			<point x="702" y="0" type="line" smooth="yes"/>
			<point x="778" y="0"/>
			<point x="811" y="-30"/>
			<point x="811" y="-164" type="curve"/>
			<point x="832" y="-166" type="line"/>
			<point x="849" y="23" type="line"/>
			<point x="736" y="23" type="line"/>
			<point x="762" y="700" type="line"/>
			<point x="835" y="712" type="line"/>
			<point x="838" y="730" type="line"/>
			<point x="471" y="730" type="line"/>
			<point x="467" y="712" type="line"/>
			<point x="538" y="700" type="line"/>
			<point x="510" y="24" type="line"/>
		</contour>
	</outline>
</glyph>
<glyph name="Che-cy" format="2">
	<unicode hex="0427"/>
	<advance width="821"/>
	<outline>
		<contour>
			<point x="496" y="319" type="curve"/>
			<point x="484" y="27" type="line"/>
			<point x="418" y="18" type="line"/>
			<point x="416" y="0" type="line"/>
			<point x="794" y="0" type="line"/>
			<point x="796" y="18" type="line"/>
			<point x="710" y="28" type="line"/>
			<point x="735" y="700" type="line"/>
			<point x="808" y="712" type="line"/>
			<point x="811" y="730" type="line"/>
			<point x="444" y="730" type="line"/>
			<point x="440" y="712" type="line"/>
			<point x="511" y="700" type="line"/>
			<point x="497" y="347" type="line"/>
			<point x="471" y="326"/>
			<point x="439" y="311"/>
			<point x="399" y="311" type="curve" smooth="yes"/>
			<point x="340" y="311"/>
			<point x="314" y="354"/>
			<point x="314" y="415" type="curve" smooth="yes"/>
			<point x="314" y="507"/>
			<point x="321" y="609"/>
			<point x="327" y="697" type="curve"/>
			<point x="399" y="712" type="line"/>
			<point x="402" y="730" type="line"/>
			<point x="30" y="730" type="line"/>
			<point x="26" y="712" type="line"/>
			<point x="100" y="697" type="line"/>
			<point x="94" y="620"/>
			<point x="90" y="550"/>
			<point x="90" y="474" type="curve" smooth="yes"/>
			<point x="90" y="332"/>
			<point x="193" y="269"/>
			<point x="322" y="269" type="curve" smooth="yes"/>
			<point x="393" y="269"/>
			<point x="454" y="289"/>
		</contour>
	</outline>
</glyph>
<glyph name="Hardsign-cy" format="2">
	<unicode hex="042A"/>
	<advance width="821"/>
	<outline>
		<contour>
			<point x="248" y="707" type="line"/>
			<point x="219" y="27" type="line"/>
			<point x="138" y="18" type="line"/>
			<point x="136" y="0" type="line"/>
			<point x="491" y="0" type="line" smooth="yes"/>
			<point x="689" y="0"/>
			<point x="810" y="99"/>
			<point x="810" y="245" type="curve" smooth="yes"/>
			<point x="810" y="356"/>
			<point x="723" y="415"/>
			<point x="592" y="415" type="curve" smooth="yes"/>
			<point x="549" y="415"/>
			<point x="515" y="412"/>
			<point x="479" y="403" type="curve"/>
			<point x="477" y="385" type="line"/>
			<point x="488" y="388"/>
			<point x="500" y="389"/>
			<point x="514" y="389" type="curve" smooth="yes"/>
			<point x="561" y="389"/>
			<point x="592" y="358"/>
			<point x="592" y="239" type="curve" smooth="yes"/>
			<point x="592" y="114"/>
			<point x="557" y="23"/>
			<point x="474" y="23" type="curve" smooth="yes"/>
			<point x="445" y="23" type="line"/>
			<point x="474" y="697" type="line"/>
			<point x="546" y="712" type="line"/>
			<point x="549" y="730" type="line"/>
			<point x="51" y="730" type="line"/>
			<point x="24" y="517" type="line"/>
			<point x="45" y="513" type="line"/>
			<point x="70" y="605" type="line" smooth="yes"/>
			<point x="93" y="691"/>
			<point x="141" y="707"/>
			<point x="210" y="707" type="curve" smooth="yes"/>
		</contour>
	</outline>
	<anchor name="top" x="283" y="730"/>
</glyph>
<glyph name="Yeru-cy" format="2">
	<unicode hex="042B"/>
	<advance width="1069"/>
	<outline>
		<contour>
			<point x="121" y="697" type="line"/>
			<point x="93" y="27" type="line"/>
			<point x="12" y="18" type="line"/>
			<point x="10" y="0" type="line"/>
			<point x="375" y="0" type="line" smooth="yes"/>
			<point x="563" y="0"/>
			<point x="674" y="103"/>
			<point x="674" y="245" type="curve" smooth="yes"/>
			<point x="674" y="356"/>
			<point x="587" y="415"/>
			<point x="466" y="415" type="curve" smooth="yes"/>
			<point x="423" y="415"/>
			<point x="389" y="412"/>
			<point x="353" y="403" type="curve"/>
			<point x="351" y="385" type="line"/>
			<point x="362" y="388"/>
			<point x="374" y="389"/>
			<point x="388" y="389" type="curve" smooth="yes"/>
			<point x="425" y="389"/>
			<point x="456" y="348"/>
			<point x="456" y="239" type="curve" smooth="yes"/>
			<point x="456" y="114"/>
			<point x="421" y="23"/>
			<point x="348" y="23" type="curve" smooth="yes"/>
			<point x="319" y="23" type="line"/>
			<point x="348" y="697" type="line"/>
			<point x="420" y="712" type="line"/>
			<point x="423" y="730" type="line"/>
			<point x="51" y="730" type="line"/>
			<point x="47" y="712" type="line"/>
		</contour>
		<contour>
			<point x="767" y="697" type="line"/>
			<point x="739" y="27" type="line"/>
			<point x="658" y="18" type="line"/>
			<point x="656" y="0" type="line"/>
			<point x="1041" y="0" type="line"/>
			<point x="1043" y="18" type="line"/>
			<point x="965" y="28" type="line"/>
			<point x="994" y="697" type="line"/>
			<point x="1066" y="712" type="line"/>
			<point x="1069" y="730" type="line"/>
			<point x="697" y="730" type="line"/>
			<point x="693" y="712" type="line"/>
		</contour>
	</outline>
	<anchor name="top" x="569" y="730"/>
</glyph>
<glyph name="Softsign-cy" format="2">
	<unicode hex="042C"/>
	<advance width="695"/>
	<outline>
		<contour>
			<point x="121" y="697" type="line"/>
			<point x="93" y="27" type="line"/>
			<point x="12" y="18" type="line"/>
			<point x="10" y="0" type="line"/>
			<point x="365" y="0" type="line" smooth="yes"/>
			<point x="563" y="0"/>
			<point x="684" y="99"/>
			<point x="684" y="245" type="curve" smooth="yes"/>
			<point x="684" y="356"/>
			<point x="597" y="415"/>
			<point x="466" y="415" type="curve" smooth="yes"/>
			<point x="423" y="415"/>
			<point x="389" y="412"/>
			<point x="353" y="403" type="curve"/>
			<point x="351" y="385" type="line"/>
			<point x="362" y="388"/>
			<point x="374" y="389"/>
			<point x="388" y="389" type="curve" smooth="yes"/>
			<point x="435" y="389"/>
			<point x="466" y="358"/>
			<point x="466" y="239" type="curve" smooth="yes"/>
			<point x="466" y="114"/>
			<point x="431" y="23"/>
			<point x="348" y="23" type="curve" smooth="yes"/>
			<point x="319" y="23" type="line"/>
			<point x="348" y="697" type="line"/>
			<point x="420" y="712" type="line"/>
			<point x="423" y="730" type="line"/>
			<point x="51" y="730" type="line"/>
			<point x="47" y="712" type="line"/>
		</contour>
	</outline>
</glyph>
<glyph name="Ereversed-cy" format="2">
	<unicode hex="042D"/>
	<advance width="706"/>
	<outline>
		<contour>
			<point x="435" y="386" type="curve"/>
			<point x="136" y="386" type="line"/>
			<point x="134" y="362" type="line"/>
			<point x="435" y="362" type="line"/>
			<point x="428" y="152"/>
			<point x="374" y="4"/>
			<point x="270" y="4" type="curve" smooth="yes"/>
			<point x="196" y="4"/>
			<point x="176" y="49"/>
			<point x="214" y="140" type="curve" smooth="yes"/>
			<point x="236" y="193" type="line"/>
			<point x="211" y="225"/>
			<point x="169" y="246"/>
			<point x="127" y="246" type="curve" smooth="yes"/>
			<point x="62" y="246"/>
			<point x="26" y="196"/>
			<point x="26" y="148" type="curve" smooth="yes"/>
			<point x="26" y="38"/>
			<point x="163" y="-14"/>
			<point x="278" y="-14" type="curve" smooth="yes"/>
			<point x="515" y="-14"/>
			<point x="671" y="152"/>
			<point x="671" y="407" type="curve" smooth="yes"/>
			<point x="671" y="611"/>
			<point x="558" y="745"/>
			<point x="343" y="745" type="curve" smooth="yes"/>
			<point x="239" y="745"/>
			<point x="136" y="695"/>
			<point x="76" y="563" type="curve"/>
			<point x="90" y="554" type="line"/>
			<point x="129" y="635"/>
			<point x="186" y="690"/>
			<point x="273" y="690" type="curve" smooth="yes"/>
			<point x="379" y="690"/>
			<point x="435" y="605"/>
		</contour>
	</outline>
	<anchor name="top" x="327" y="730"/>
</glyph>
<glyph name="Ia-cy" format="2">
	<unicode hex="042F"/>
	<advance width="808"/>
	<outline>
		<contour>
			<point x="498" y="707" type="line"/>
			<point x="471" y="27" type="line"/>
			<point x="405" y="18" type="line"/>
			<point x="403" y="0" type="line"/>
			<point x="781" y="0" type="line"/>
			<point x="783" y="18" type="line"/>
			<point x="697" y="28" type="line"/>
			<point x="722" y="700" type="line"/>
			<point x="795" y="712" type="line"/>
			<point x="798" y="730" type="line"/>
			<point x="415" y="730" type="line" smooth="yes"/>
			<point x="271" y="730"/>
			<point x="122" y="681"/>
			<point x="122" y="533" type="curve" smooth="yes"/>
			<point x="122" y="434"/>
			<point x="205" y="360"/>
			<point x="371" y="343" type="curve"/>
			<point x="371" y="339" type="line"/>
			<point x="287" y="324"/>
			<point x="202" y="299"/>
			<point x="139" y="188" type="curve" smooth="yes"/>
			<point x="74" y="74"/>
			<point x="60" y="50"/>
			<point x="39" y="50" type="curve" smooth="yes"/>
			<point x="17" y="50"/>
			<point x="7" y="56"/>
			<point x="-17" y="71" type="curve"/>
			<point x="-27" y="57" type="line"/>
			<point x="12" y="22"/>
			<point x="92" y="-14"/>
			<point x="168" y="-14" type="curve" smooth="yes"/>
			<point x="255" y="-14"/>
			<point x="302" y="13"/>
			<point x="365" y="165" type="curve" smooth="yes"/>
			<point x="420" y="298"/>
			<point x="442" y="330"/>
			<point x="461" y="335" type="curve" smooth="yes"/>
			<point x="472" y="338" type="line"/>
			<point x="469" y="364" type="line"/>
			<point x="464" y="363"/>
			<point x="448" y="362"/>
			<point x="443" y="362" type="curve" smooth="yes"/>
			<point x="389" y="362"/>
			<point x="350" y="430"/>
			<point x="350" y="503" type="curve" smooth="yes"/>
			<point x="350" y="631"/>
			<point x="413" y="707"/>
			<point x="490" y="707" type="curve" smooth="yes"/>
		</contour>
	</outline>
	<anchor name="top" x="454" y="730"/>
</glyph>
<glyph name="be-cy" format="2">
	<unicode hex="0431"/>
	<advance width="622"/>
	<outline>
		<contour>
			<point x="282" y="-12" type="curve" smooth="yes"/>
			<point x="515" y="-12"/>
			<point x="597" y="185"/>
			<point x="597" y="339" type="curve" smooth="yes"/>
			<point x="597" y="468"/>
			<point x="533" y="537"/>
			<point x="436" y="537" type="curve" smooth="yes"/>
			<point x="348" y="537"/>
			<point x="297" y="473"/>
			<point x="269" y="326" type="curve" smooth="yes"/>
			<point x="243" y="189" type="line"/>
			<point x="237" y="190" type="line"/>
			<point x="223" y="345"/>
			<point x="237" y="578"/>
			<point x="264" y="589" type="curve" smooth="yes"/>
			<point x="292" y="601"/>
			<point x="417" y="556"/>
			<point x="490" y="565" type="curve" smooth="yes"/>
			<point x="557" y="573"/>
			<point x="569" y="627"/>
			<point x="580" y="770" type="curve"/>
			<point x="563" y="774" type="line"/>
			<point x="554" y="745"/>
			<point x="538" y="720"/>
			<point x="509" y="716" type="curve" smooth="yes"/>
			<point x="404" y="701"/>
			<point x="319" y="695"/>
			<point x="265" y="677" type="curve" smooth="yes"/>
			<point x="107" y="624"/>
			<point x="30" y="458"/>
			<point x="30" y="251" type="curve" smooth="yes"/>
			<point x="30" y="85"/>
			<point x="126" y="-12"/>
		</contour>
		<contour>
			<point x="350" y="444" type="curve" smooth="yes"/>
			<point x="372" y="444"/>
			<point x="377" y="370"/>
			<point x="377" y="314" type="curve" smooth="yes"/>
			<point x="377" y="163"/>
			<point x="354" y="8"/>
			<point x="307" y="8" type="curve" smooth="yes"/>
			<point x="268" y="8"/>
			<point x="261" y="76"/>
			<point x="261" y="169" type="curve"/>
			<point x="283" y="285"/>
			<point x="315" y="444"/>
		</contour>
	</outline>
	<guideline x="972" y="537" angle="0"/>
</glyph>
